<mxfile host="65bd71144e">
    <diagram id="naK1cKPiy5bsRtWbkxW5" name="Page-1">
        <mxGraphModel dx="5476" dy="3085" grid="1" gridSize="10" guides="1" tooltips="1" connect="1" arrows="1" fold="1" page="1" pageScale="1" pageWidth="1169" pageHeight="1654" math="0" shadow="0">
            <root>
                <mxCell id="0"/>
                <mxCell id="1" parent="0"/>
                <mxCell id="24" value="" style="rounded=1;whiteSpace=wrap;html=1;fillColor=none;dashed=1;" parent="1" vertex="1">
                    <mxGeometry x="-860" y="-1650" width="481" height="290" as="geometry"/>
                </mxCell>
                <mxCell id="4" value="" style="shape=image;verticalLabelPosition=bottom;labelBackgroundColor=default;verticalAlign=top;aspect=fixed;imageAspect=0;image=https://miro.medium.com/1*XON7HtEQCgYqJ5FChk8WBQ.png;" parent="1" vertex="1">
                    <mxGeometry x="-651" y="-1460" width="214.28" height="90" as="geometry"/>
                </mxCell>
                <mxCell id="12" value="" style="shape=image;verticalLabelPosition=bottom;labelBackgroundColor=default;verticalAlign=top;aspect=fixed;imageAspect=0;image=data:image/png,iVBORw0KGgoAAAANSUhEUgAAAK0AAAC5CAIAAADViiiZAAAgAElEQVR4Ae2deVzUxh7Akywgp4AthyiXPK+CoHhUKx5ogUpBsFhLq1QUvIpiHx88QMtrtaIWLEVrERHQankIFUHriQiKF4KCcigqoFy7iyx7J/++vua5b7ubhOxuko26+UPD7OQ3v/n9vplMJr+ZARDDYbAAggAGIxgsgBg4MECAWsDQHhhI+K8FDBwYODBwYGDglQUM7cErS7zd/xs4eLv9/6r2Bg5eWeLt/t/Awdvt/1e1N3DwyhJv9/9vMgdyuVwgEHR2dra0tNTW1l67du3ixYtnz54tKSkpKioqKCg4depUSUlJWVnZ5cuXr1+/fu/evUePHnV1dQ0MDLxtVLxpHPT19TU3N1+6dOnQoUPJyclfffXVsmXLQkND586dO3ny5HHjxo0aNcrZ2dnBwcHW1tbJycnZ2dnNzc3T03PKlCnz589fuHBhVFRUXFzc9u3bjxw5UllZ2draKhQK33gs3gQOJBJJS0tLYWHhunXrQkJCZs+e7eXlZW9vb2xsDGh7GBkZDR8+3MfHZ+7cuWFhYcnJyWVlZe3t7W8qEK83B48fPz5w4EBwcPC4ceOcnJyGDBmird8Huc7S0tLZ2dnT0zM0NDQvL+/NA+K15IDP5xcVFQUEBFhbW5uamkIQNIgbqfsZgiAzM7N33303MjKyvLxcLBa/GS3Ea8MBDMNCobCpqSklJcXV1ZU6z+okaezYsYcOHXrx4oVIJIJh+PVl4jXgAIbh7u7uy5cvr1q1Sien0XaxhYXFli1bqquruVyuXC5/HWlgNQcwDHd2dhYXF8fGxtLmRMoEjxw5cuPGjZcuXeLz+a8dCuzlAO0ExMTEvPvuu5T5in5Bnp6eGzZsqKyslMlkrxENbOQAhuH79+9v2LDBw8MDBEH6fUd9Cb6+vhs2bHj69OnrggIbOcjOzvb29jY3N6fePwxKHDJkiL+/f2FhoUgkYj8N7OKgpaVl9uzZQ4cOZdBfNBYFQZCNjU1MTExbWxvLUWALB3K5vLCw0MnJiUa36E+0n5/fnTt32Nxj0D8Hcrm8vb1969atw4YN05+naC/Z1tY2Nze3r6+PnQ2DnjmQyWR37tz59NNPafcDOwrYvHlzc3MzC1HQMwelpaXz5s1jh4+Y0AIEwfDw8OrqarYNPuqTg2PHjnl6ejJhfjaVYWJiMmfOnLNnz7Kqu6AfDmQyWVpamrOzM5scxJwuxsbGEyZM+Pe//y2RSFjyjNADB1KpdOfOnfb29swZnn0lgSBoZ2dXUFAglUrZgALTHMhksp07d1pbW7PPNXrQiMPhXLlyhQ19BUY5EAqFWVlZw4cP14PJWVzk7du39f6VkjkOxGJxQUHBqFGjWOwR/aj2zjvvXLt2Tb+tAkMcwDB87ty5t/DtgCRZvr6+d+7c0WNHgSEOGhoapk2bRtIob2E2Y2PjsLCwhw8f6gsFJjjo7Oz08/N7C72rUZUtLS2/+uqrzs5OvaBAOwdSqXTx4sUaWYSBzB4eHtHR0UlJSbGxsRYWFgyUSKYIa2vr1NRUvcyioZ2DjIwMtn1HDg8Pb25uHhgYEIlEQqGwtbU1JCSEjJ8YyOPm5nbx4kXmmwQaOYBh+Nq1a+PGjWPAfCSLAEFw1qxZra2tKoaura319vYmKYTubKGhoU+ePFHRkO4/aeSgo6ODPfcZ6jxra+uMjAx1mwoEgl27duky/4laOL777juGo5jo4mBgYCA9PZ1tIabjx4/HCw0qLy/38vKi1p1aS7OwsKioqFDnlb4UWjiAYbiyspI9LS3qDwiC4uPj8UzZ09OzfPlyrT1H+YV+fn48Hg9PW8rTaeGAy+XGx8dTbhodBRobGz948ADPgnK5PCcnh1Vj3jt27MDTlvJ06jmQy+WXLl1i2xMBAIAlS5YQf/J/+vQpq4JiRo4cWVNTQ7nLMQVSz0F/f39wcLCO9y4dl1dVVWGaQJEol8uTkpIsLS3pKF0LmRAEBQUFKdSj9YR6Ds6fP69Fnem+xNfXl4wda2trR48eTbcy5OW7uLj88ccfZDTXMQ/FHAiFQnYOIefl5ZG01KJFizgcDnlX0Z0zNDS0v7+fpPJaZ6OYg5MnT9JtFy3kjxgx4tmzZyRtdP78efaMNAMAMGbMmNLSUpLKa52NSg76+vo++OADLfxE9yXbtm0TCAQkbSQQCFj1adTIyGj9+vV0T3ygkoPi4mIWTkp0cXEpLy/XKOAnPz+fbjQ1kj9x4sTKykqSHGuXjTIOhEJhcHAwk0vUkDTlihUrXrx4oW4dmUxWUVGByQefzx8xYgRJ+QxkGzJkyA8//EDrsm2UcVBVVeXu7s6AUTQqwsLCIicnB9PZ9fX1vr6+eJHj3377rUYF0Z05KCiopaVFnWaqUijjYPPmzazqXqGOCQwMbGhowDTW999/P3To0PLycsxfOzo66HatRvIhCCorK6MvhpEaDtrb2z/88EONKsZAZiMjo4SEBMzmtLu7e86cOQAAzJs3D3OQUSgUrl+/ngElyReRmJhI3wskNRyUlJSwavgFNa6np+eFCxcwb/eioiLFU6yurk49j1wuP3/+vJWVFXk/0Z3T09OTvnUbKeBALBZv377dzMyMbkNoJJ/D4Xz66aeYn+wEAkFcXJwi2iA2NladAwRB2traQkNDNSqU7sz0hSpRwEFbWxsLJ67b2dkdPnwY08F37txRHvR0dHTEDEoQiUQZGRkmJiZ0e5e8/MTERMwa6Z5IAQdXrlyZMGEC+cowk9PLy6urq0vdQFKpNDMzUzlk0tLSMi0tTT0ngiDV1dW+vr7MKEymlJEjR9I0H1JXDuRyeVZWFn0LG5OxjnqeIUOG7NixA7N3/ezZs88//1z5EgiC5s2bh/kE4fP5bOstEoRQYKJMMlFXDvh8/ubNm5XNyobzoUOHqgejohYpLS1Vb+rd3d0xx/BhGFbuUbKhavv37yfpWo2y6cpBa2sr2zpTAAB8+eWXmFZ4+fJlcnIypjuXLl2KOab04sWLsLAw9izjGBISglk1HRN15eDmzZtsW86Cw+HcunUL0y4tLS0+Pj6YHMyYMQNvhuHevXttbGwwr2I+0cTEhI5F3nXiQC6Xnzp1inlbEJc4depUTAhgGD5+/DjetdbW1vv27cNsEhobG/HowZNGX7qxsTHeCClmrUkm6sSBWCw+cOAAfXXWTnJRURFm5aVS6UcffUQgc/HixZgTSKRSaWxsrHqvgkAUfT8ZGRkVFhZiVlCXRJ046O/vT0xMpK/OWkieOHFiT08PpkXq6+uJB7vs7e1LSkow3zIqKireeecdLfSh/BIIglJSUjArqEuiThzweLxPPvmE8qrqIjAjIwPvDZvMG2BSUhJmxIdQKAwMDNRFMaquBUEwIiJCF5djXqsTB11dXZMnT6aqhrrLcXNzq62txawnl8slEyPj4+PT2NiIKaG0tFR3DSmR4Onpicc6puZkEnXioL29nSWtJWrf+Ph4LpeLWe2DBw+S9MGJEycwv0AiCMKS+NV//OMfmKNemBUnmagTB/fv3ydpXAaymZubnzhxAjPkRCQSKb4uDqpJcHAw5qMBQZBffvll0MsZyODm5kb54rw6cXD9+nUGqk2yiLCwMLyInXPnztna2pKUAwBAdXU15m3U3d3NhmUfXVxc8B5/mGqTSdSJg8uXL5M3Lq05LSwsUlNT8QZYNm7caGpqSl6BmJgYTNvJZLKvv/6avByacjo5OVE+G1onDk6fPk1TVTUV6+vrSxDRe+7cOY0mLtra2mJ+iUbncet9bNHR0ZHySU46ccCSWSscDmf58uXEMxTq6+vj4uLI47V3717MJqGrqysiIoK8HDpy2tvb442VYepMJlEnDg4fPkxHPTWV6eLicvLkyUFry+Vy09LSSAp3dXXFDGyUSqVHjhwhKYSmbOjCzIPWV6MMOnGQlZVFU1U1Ejt9+nSS71ESiaS0tJTMu4OFhcXp06cxTVlXV6cczqSRqpRkZh0H2dnZlFRMFyFWVlY//fQTpsPwEqurq/39/Ym/F0AQFBoaijlcIxAIvvnmGz2OJbCOAzb0D9zc3B4/fozncrz0pqamZcuWES914OHhgff9+uzZs3pcB87Ozo5d/YOSkhJdbmVKrl27di2ms2EYxrybFZl5PF5ycjLBluGWlpZbt27FFNLZ2fnZZ5/pKzjF0dHx7NmziopQcqJT/4AN4wf37t3DNER3d/exY8eIx93QzQJnzZqFR+SsWbOamprU5cMwfODAATs7O7wLaU13cnK6fPmyula6pOjEgd7HE8PCwjAHkmEYvn79upub25IlS2pqajA/JSusduvWLZXIVYUX7ezsfvnlF0VO5ZPm5ub3339fkZPJE2dn57t37yoro/u5ThzcvXuXyfqrl3Xt2jVME4jF4l27dgEAYGpqOmnSpIsXL+J9OkIQRC6XP336NCkpSX2XGBAEY2Jient71UuRSqWJiYl6mdLJuu8Lz549U7edurdoSvHz88MbSObxeCNHjkTLBUHQ0tKyoKBA3ZfKKQMDA9nZ2eqxll5eXnhzYWtqatTz01RZZbEeHh54sTbKNdLoXKf2oLOzU19ba4AgiDehHUGQ4uJiZcOh5ykpKYMuZV5eXv7ee++pdAB3796Nt8rt3Llz1QuiO2XcuHF4N4BGvlfOrBMHXC5XX0Hrrq6ueLtWSKVSzMnXEAR9/vnnjY2NBM8IBEGamppmzJihHLRCsPbAhQsXjIyM6Ha8snwQBOlYTE8nDl6+fEkm2Eu5GlSdb9q0CS9K4M6dO3ilGBkZzZw58/z588QNQ39//8aNG11cXFA5ZmZmxcXFmPSIRCKGW0QIgjZt2qR8K1NyrhMHIpEoPT0dz+j0pTs6Op45cwbzTQFBkBUrVhAX7enpefjwYeKhaIlEkpOTM2nSJFRUTEwMn8/HtHhOTg5xcdT+yuFwjh49iqmJLok6cSCTyfQypBgZGYm3Dl5HR4ejo+Ogpnd1dU1JScF8EVBYUyQSXbhwISAgAIIgBwcHvIGK3t5eMh8sBlWJZAZjY2M6FtvViQMEQSorKxkOURw6dOj+/fsxh/kQBNm/fz/JkBNbW9slS5YQd7ylUumDBw9iYmKsrKz27NmjQETlZNu2bSS9qHs2ExMTvJZJRSuN/tSVg5aWlqCgIN2rR17CrFmz8G6Ivr6+999/X6W3TyDZ2Nh4+PDhxDFeMAzz+fy0tDQnJyc8yzIZpzllyhTiYTE8JYnTdeWAy+Vu3LiRwNbU/gSC4Nq1azFnnyEIcu7cOUXnjny5NjY2JSUleL0NhflKS0vxVtnh8/nR0dHkS9QlJ0GzpFBVixNdOZBIJBkZGYx9hB09evSZM2cw6ymRSLSefebg4JCens7lcolvNbxRBLlcfvr0aZLPI10gAADg9u3bmNXXMVFXDhAEKSsrc3Nz07F6ZC7ncDgLFy7E6+fX1NTosh6utbX1mjVrHjx4gPl+OKiVm5ubGZjw9O6771I+goRWjQIOWlpamBlNGjZsGN6SRzKZbN++fRoFp2OSFxISUlVVNegzQh0LoVD4ww8/0L0uzMqVK9WLpiSFAg6EQmF8fDz53hmmA8gkenh4YC55hCBIR0dHZGQkGSGD5pkxY8bx48e1MO7Vq1fpnh5PJgxTC80RBKGAAwRBjh49SveCxBAEJScn41WytLRUix4iHhOurq7bt2/H6w3g6cDlcgcdwsIrkUy6s7Pzo0eP8ErXMZ0aDhobGwmiOchUctA8xsbGmIsTIAjS39//7bffUrvEt5WV1eLFizEX6MazOAzDR48eVXznHLRGmmZYtWoV3lA6nkrk06nhAIbhFStW0PrFJTo6Gq9WDx48oCOAGATB2bNna7T4SHt7+/z58zV1MMn8BQUF2vVh8eymnE4NB+hbA30f442MjPAWL5LJZASr3ZA0MUG2KVOmnD9/nnwvPSUlhY7VeKdNm1ZfX6/sOWrPKeOgr69v9uzZNPUW58yZg1dtHo+3dOlSAkfq/pOHh0d2djbe+6qKYg8ePBg7dqzuhSpLQPtG9D0UKOsnorYgP7avXEky5ydOnFAxt+LPu3fvMhATZWVllZiYSHKZ68WLF1M7sObm5lZWVqaoMh0nlLUHCIJ0dnZSfisAAODp6YnXQ0QQ5JtvviFDEiV5IiMjb9y4MagbTpw4oRzGonvRUVFReC/MgypDMgOVHCAIkpGRoXu1VSR8//33mFMNEQQRCoX09c9V1AAAAARBPz+/oqIi4oGmyspK4hky6pIJUkaOHJmfn09cIklnE2SjmIO+vj5qx5idnZ2rqqrwhv2ZX72Rw+F4eHjs27ePIKKpsLCQwvYgMDCws7OTwIWU/EQxBwiCUDv59auvviIIEZg6dSrBnUTTTyAImpqaxsfH4ykWGBhI1WCGg4PD0aNH8W4DSghAhVDPAZ/PHz9+PCU+sLS0zM/Pl0qlErVDKpXevn1bsZcGJcVpKmTp0qVPnz5VtNgwDItEov3791O1xzkIgtOnT9d0WFM7OKjnQCaTnThxgpIJHm5ublu2bMnMzMxQOw4ePLhw4UKqbjtNCVDknzp1akFBwf379xsaGq5evfrPf/6TwsluNjY2ly5d0s6vml5FPQfoV5/FixcrjPXGn7i4uIwZM0Z5bw9KqvzFF19o6k6t89PCgUwmKy0t9fDwoMQcb6eQMWPG4C3/prWzCS6khQMEQXg83tatWynsNr9tNNARnK4HDhAEuX///uzZs982/1FS36ioKDqCkvXDgUwm++233+j7+ESJxVkoxMfHp7a2loF3RWUs6HouKMqIj49nJoCThR7VQiUIgnJzcxXvogoz0n1COwd8Pp9Va7Jr4RvGLjEzM0tISMBbKpxWFGjnAEGQe/fujRkzhjFrvqYFmZiYhIeH403iphUCir87E+h65swZw2skAaAQBE2ZMoXyVZMJPKLyExPtAbr2TF5eHpkZqATGeoN/srGxKS4uVvENk38yxAEaTbpz505DnxGT5tzcXLzJeszQwBwHCIL09vZu2LAB0xBvc+Kvv/5KPv6RJiwY5QBBED6f/+WXX77NXlep+5EjR+iLQiYPDdMcoEPOn3zyCa1B7iq2Zuef6D7zxNsFkHekjjn1wAGCIFwud/HixW/z1wd7e/u0tDRaQ5A1IkM/HCAIMjAwkJiYyIbtjhhuLSAIcnNzy8jI6O/v18hVtGbWGwcIgkil0p9//pmOEGeGXUu+OBAEfXx8jh8/ThDeSKu/8YTrkwMEQcRi8alTp+bMmUPelK91zpCQkGvXruEt7oTnJAbS9cwBgiASiaSmpubjjz9+rR1MRvlNmzbhLfPGgKeJi9A/BwiCwDDc09Ozbds2BmYmkXEY5XkcHR3z8vJY1SFQwYIVHCh0OnPmzPDhw9+kV0oTE5PAwEDKl8lXWIyqE3ZxgI4urFixwsnJifKbkmGBEASNGTMmOTm5u7ubKm/RJ4d1HKDvEUVFRXPnzmV4hU4KQRkxYkR4eLgevx9qSgwbOUC/T7a2tqanp8+bN4+SqRAU+phYlK2tbXh4eF5eHsl58po6jKb8LOUAra1YLL53715aWpq+dsAhdrnKr5aWlgsWLMjKymptbWU4ulB3OFjNAVq9gYGB+vr6n3/+mY7Fb1R8qd2fJiYmH3300YkTJ1paWvT+5VA7Jl4DDhRtw4sXL06dOqXRjt3a+VWjq6KjoysqKnp7e1k4OkSeideGA+UqPXz4MD4+3tbW1sjIiKaVeAhQgCDIyMjI3d09NTWV7uUplGtN6/lryQFqkZcvXxYXF0dHR48aNcrR0dHS0pK+aa8QBA0dOnTEiBFeXl5xcXEXL158+fIlrY5hWPhrzAFqKblc/vz583Pnzm3bti00NHT69Oljx46lZNKxkZGRo6Pjn/u1zZw5c9GiRbt3766srHy93gLIw/Tac6BcVYFA0NLS8scffxw4cGDdunXLli0LCQmZNWuWt7f3yJEjra2t8fb2NjExsbGx+XM5qkmTJvn7+y9atGj58uUJCQnZ2dlXr1599uyZfoMHletI0/kbxYGyjeRyOY/He/ToUU1NzaVLlwoLCw8fPvzTTz+lpqbu/PuxZ8+ezMzMI0eOFBcXV1RU1NXVtbW1sSdCRLlS9J2/sRzgmUwmk6ksrsL8JDI83fSY/tZxoEdbs7loAwds9g5zuhk4YM7WbC7JwAGbvcOcbgYOmLM1m0sycMBm7zCnm4ED5mzN5pIMHLDZO8zpZuCAOVuzuSQDB2z2DnO6GThgztZsLgmXAxiGu7u7u7q6tBt+F4vFHR0dPB6POFJPLpdz/zrwdtrAs51AIOjo6GhsbGz463j48OGzZ896eno0ksPn87lcbm9vL/k68ng8VGHlf3k8nkgkIq6pekWEQiGPx+vp6aEqkEkikfT09Dx69Ai1SUNDQ2Nj47Nnz7q7u4VCIbF6uBw8efIkKSlp5cqVz58/V68DcQoMwzdu3Fi2bFlycnJHRwdB5s7OzrV/HXi7d6tcC8NwR0dHXl5eQkLCsmXLgoODA/46FixY8Nlnn61atWrTpk3p6elnz54l86V43759f+4en5CQ0Nvbq1IQ5p/FxcXr1q1DFVb+Ny4ubvPmzZmZmbW1teSXyb98+XJCQsKqVasaGxsxiyOfKBAIzp07l5ycvGrVqvDw8KCgINQswcHBkZGRsbGxmzZtKi4uJoidweZALpcfPHhw2LBhAADk5OSQVwjNKZFIDhw4AACAlZVVamoqwdzehoYGAAD+jPT6/vvvBy0FhuH6+vqoqCgHBweCuDFzc3NfX18yN1lISAgIgg4ODk+fPh20dARBiJd8s7a29vPzy8rKIvnN+uDBg+i0//LycjKl4+Vpb2//4osvPD09CWwCAMDatWsJZtRgc9DZ2RkdHY3KdXV1xdMAL10kEv3444/o5Q4ODgS7EqMccDicXbt24UlTpPP5/M2bN6N7afv7++/evbugoOD3v46ioqLc3Nzdu3evX79+/vz5n3zyieIqgpNFixaBIOjo6Ehy+ilao3HjxqWnpyt2hfj555/T0tKWLVuGzrpxdHT87bffyFCYnZ2NLiCnCwdisTgsLAwNyBs+fPjWrVvz8/OLi4tRs5w8eTInJ2fv3r0bNmw4fvw4wdor2BxcvHjR3d1dwZem83KUOQAAwMbG5vHjx5j+0IiD1tbW9957DwCAJUuWNDQ0CIVCmUwmf3VIpVKhUPjy5cuenh6SS5Jqx8H8+fN5PJ5Y6RCJRH/uQnPy5El0LYfJkyeTaRIo4eDy5cvoHMAJEyY0NDQIBAKpVPrKJHI02AI1C3EXAYMDgUCwc+dOAAACAwO9vb05HM7ChQuJexkqPlZwAIIgiqqrqytmD04jDurr61E0d+3aReaGU9FK/U/tOAgICMC8sQQCQVxcHKohmWVRKeFg79696CTx06dPq1eQfAoGBw8fPpwyZYqJiUlmZuaxY8esra2NjY012uZYwYGPj09kZKSFhQUEQatXr1af+K0RBy0tLegufUuXLn3y5IlGaGJahFoOZDJZUlISumVUXV0dZonKiZRwsG3bNnSPwNu3bysL1/RclQOZTJafnw8AwOTJk69du9bd3T1+/HgIgr7++mvydldw4Ovre+vWreDgYAAAbG1tMzIyVPqMGnHw56vamjVr0Btu/fr1dXV1OrYK1HLQ29u7YsUKAAAcHR3JbBRPCQe//vorui3YDz/8oMv6e6oc9Pf3oxOGYmNj0Rjt5ORkAABGjRrV1tZGkjIFB97e3nV1dc3NzegERXd398LCQmV1NeJALpdXV1fPmDEDXSDB398/NTX13r17WtOgHQeBgYEqzzgYhrlcblZW1ujRowEA2L59O5nZbZRw8Pz5c39/fxAEnZ2djx8//uLFC/JjIcreVOXgxo0bHA7HyckpLy8Pzdfc3Iz29TIzM5WvJDhX4QBBkOvXr6M2mjlzpvLO7RpxgE6Jv3nz5rp16xR74/n7+yclJd25c4eM6VV01o6D0aNHb9++PUXp2Lp169KlSz08PMzNzZcuXdra2qpSEOaflHCAIMiVK1dmzpwJguCIESM+/fTTuLi4jUrHli1bqqurMRVQTlTlIDY2FgCAGTNm3Lt3D80nl8tDQkIgCAoODsbbuVJZIoIg6hzI5fL8/HwjIyMzM7M1a9YoBpc05QAtqKurq6ioKCIiAu2EmpmZTZw4MT4+vq6uTrmxUdFK/U/tOOBwOOZ/P9BXWQAALCwsvv76a5KjUlRxIBKJ1q9fr3i5Q/vm0KvDxMRk3bp16nVXSfkbBx0dHWinw9zc/Msvv1S87FVWVgIA4O7uXlRUpHI95p/qHKALnWzZsgUAAEtLy/T0dLSjoB0HaMPQ1dV1/vz58PBw1ARmZmYuLi7/+te/yI/oaceBg4PDokWLIv5+hISEuLq6giBobW09Z84cBeiY9kETKeGgr6/vww8/tLW1BQDAzMxs6tSpkZGRUUrHmjVryIzV/o2DPXv2KLCCIGj27Nn379+HYVgikUydOhUEwdWrV5OxMiYHCII8fvw4IiICAAAOh3PlyhUYhrXmADUlDMNisbiqqkoxCZrD4Xh6epIcC9eOA/S9Uap2cLnclJQUGxsbEAQ//vhjAgIo5GDHjh1WVlYAAHzwwQdNTU0SiUSmdpDp4P+fAz6fb21tzeFwgoODf/vtt7FjxxoZGdnb25eVlQmFwry8PBAE33//fTIPGzwOEASpqKiYPHkyCIJubm5dXV1NTU0oFmTGEwksKxQKT506NX36dPS1bfTo0WT2O9OFA0xlxGJxZGQkh8MBAGDQFznd24O2tjZ0TQhLS0syI1eYOqOJ/+cgPz/fzMzM3Nz85MmTcrm8oqIiKCgI3S7hp59+un79upubm4WFxY8//jho/5yAAwRBDh06hH4g+POLCLpHM8lxZYJqoD89ffo0ICAAgiBzc3MyjzDKOUAQ5NixY+hocXZ2NrHCunNw/fp1b29vAAA2bNhAXPMnHwIAAAQmSURBVNagv/6Pg76+vqCgIAiCxo4dq5jSW1tbGx0dbWpqCkFQVFRUUFAQAAARERFPnjwhlkvMQX9/f0JCArrqUUREBNoI6dgeKPQpKioyNzcfMmTInj17FIl4J3RwkJ+fj1J++PBhvHLRdN05uH37to+PDwAAy5cvJy5r0F//x8HZs2fRjRZTU1OVr+no6Pjmm28sLCw4HA46fmlnZ3f69Gnil1RiDhAEaWtri4yMRJew4Px1kOEAhuFBXwf2799vampqZmZ25MgR5YpgnlPOAY/HW7lyJdqIkn8uXL16FVO9QROfP38+a9YsAACGDx/+4MGDQfMTZPgvB2KxePXq1ejLT2dnp0pugUDw66+/TpgwQdGF3Lhxo6LNUMmM/jkoBwiCNDU1eXl5oTJJPhdaWlpWrFhx6NChW7dudXd3K7Mol8s7OztzcnK8vb3RNSvIfNTXjgP0O5NKN1EkEjU1NSUlJaGfkkNDQ1XGmtQNpWgPfv/9946Ojjaco6enR7mmynJkMtmOHTvQ/cU//PDD33//XT2mBo30qa+vf/z4McED/b8c1NXVTZ8+HQCAlStXKhejOEcH8gICAlC3DRs2TDG6oMijfEKGAwRBbt68iQr885V3x44dyhLUz2EYPnbsmLGxsZ2dnYeHx4QJE/z8/KKiolavXr1q1aqwsDAvLy97e3u0j0amE4MgiHYcWFlZeXt7T/r7MXHixHHjxqFN5sSJE8lQqODA3d3d09PzPZxj3bp1BPEjvb29n3/+OQRBHA5nxIgREyZMWLBgQUxMzOq/jsjIyJkzZ3p7e48ZMyYxMXGQ+INt27ahI7U3b95UdwCaAsPwo0ePvvjiC9Rz5eXlBG8jCg7Gjx9fU1NDIDM3NxcAAFNT07S0NLxsCgWqqqoWLFigWHUXBEGjVwc6oAQAwOjRo8vKysgEI/0JYkBAgEbxB2T2m4uKinr8+DGBcRTVPH78OJlNj0NCQojffQYGBg4cOKAYy0KXb0INw+FwFOtHhYaGEgx0AgMDAxcuXMjOzj558uSg5uPxeDk5OdnZ2cRvKTKZ7O7du1lZWQUFBQQMIggiFApzc3MzMjJIjsEhCNLX11dVVZWZmbly5coFCxZMmzZtxowZCxcuTE5OrqioGLQ1VrgBQZCSkpLc3NwjR44QP+YUl7S3t+fiHHl5eaWlpe3t7XhtuEKI4kQsFl+4cAFH3v+TL1y4QGbIXCKRlJeXf/fdd0uWLPHz85s2bdr06dMXLlwYHx+fk5Nz48YNgkaFuX08FZU3nLDTAv97X2CncgatGLOAgQPGTM3qggwcsNo9jCln4IAxU7O6IAMHrHYPY8oZOGDM1KwuyMABq93DmHIGDhgzNasLMnDAavcwppyBA8ZMzeqCDByw2j2MKWfggDFTs7ogAwesdg9jyv0HGwYwLXQ3FLgAAAAASUVORK5CYII=;" parent="1" vertex="1">
                    <mxGeometry x="-604" y="-1650" width="120.27" height="128.61" as="geometry"/>
                </mxCell>
                <mxCell id="25" value="&lt;b&gt;&lt;font style=&quot;font-size: 25px;&quot;&gt;orchestration&lt;/font&gt;&lt;/b&gt;" style="text;html=1;align=center;verticalAlign=middle;whiteSpace=wrap;rounded=0;" parent="1" vertex="1">
                    <mxGeometry x="-1100" y="-1540" width="190" height="30" as="geometry"/>
                </mxCell>
                <mxCell id="28" value="" style="curved=1;endArrow=classic;html=1;entryX=0.5;entryY=0;entryDx=0;entryDy=0;rounded=0;edgeStyle=orthogonalEdgeStyle;" parent="1" target="4" edge="1">
                    <mxGeometry width="50" height="50" relative="1" as="geometry">
                        <mxPoint x="-544" y="-1521" as="sourcePoint"/>
                        <mxPoint x="-494" y="-1480" as="targetPoint"/>
                    </mxGeometry>
                </mxCell>
                <mxCell id="31" value="" style="rounded=1;whiteSpace=wrap;html=1;fillColor=none;dashed=1;" parent="1" vertex="1">
                    <mxGeometry x="-920" y="-1320" width="580" height="530" as="geometry"/>
                </mxCell>
                <mxCell id="29" value="" style="curved=1;endArrow=classic;html=1;entryX=0.5;entryY=0;entryDx=0;entryDy=0;rounded=0;edgeStyle=orthogonalEdgeStyle;" parent="1" source="6" target="7" edge="1">
                    <mxGeometry width="50" height="50" relative="1" as="geometry">
                        <mxPoint x="-589" y="-1005" as="sourcePoint"/>
                        <mxPoint x="-749" y="-890" as="targetPoint"/>
                    </mxGeometry>
                </mxCell>
                <mxCell id="35" value="Passerelle reseau&amp;nbsp;" style="edgeLabel;html=1;align=center;verticalAlign=middle;resizable=0;points=[];" parent="29" vertex="1" connectable="0">
                    <mxGeometry x="0.2529" y="40" relative="1" as="geometry">
                        <mxPoint x="25" y="4" as="offset"/>
                    </mxGeometry>
                </mxCell>
                <mxCell id="32" value="&lt;span style=&quot;font-size: 25px;&quot;&gt;&lt;b&gt;Integration&lt;/b&gt;&lt;/span&gt;" style="text;html=1;align=center;verticalAlign=middle;whiteSpace=wrap;rounded=0;" parent="1" vertex="1">
                    <mxGeometry x="-1088.2" y="-1200" width="190" height="30" as="geometry"/>
                </mxCell>
                <mxCell id="7" value="" style="shape=image;verticalLabelPosition=bottom;labelBackgroundColor=default;verticalAlign=top;aspect=fixed;imageAspect=0;image=https://www.clipartmax.com/png/full/92-925106_vmware-workstation-logo-png.png;" parent="1" vertex="1">
                    <mxGeometry x="-607.64" y="-915.5" width="117.27" height="115.5" as="geometry"/>
                </mxCell>
                <mxCell id="6" value="" style="shape=image;verticalLabelPosition=bottom;labelBackgroundColor=default;verticalAlign=top;aspect=fixed;imageAspect=0;image=https://www.starwindsoftware.com/blog/wp-content/uploads/2019/03/racsultat-de-recherche-dimages-pour-azure-vm.png;" parent="1" vertex="1">
                    <mxGeometry x="-689.7" y="-1231.3899999999999" width="281.39" height="281.39" as="geometry"/>
                </mxCell>
                <mxCell id="5" value="" style="shape=image;verticalLabelPosition=bottom;labelBackgroundColor=default;verticalAlign=top;aspect=fixed;imageAspect=0;image=https://raw.githubusercontent.com/docker-library/docs/c350af05d3fac7b5c3f6327ac82fe4d990d8729c/docker/logo.png;" parent="1" vertex="1">
                    <mxGeometry x="-709" y="-1050" width="162.37" height="145" as="geometry"/>
                </mxCell>
                <mxCell id="18" value="" style="shape=image;verticalLabelPosition=bottom;labelBackgroundColor=default;verticalAlign=top;aspect=fixed;imageAspect=0;image=https://www-mkt-uploads.s3.fr-par.scw.cloud/f2eillf09uf4n87ibcfn_e2f85cd27f.svg;" parent="1" vertex="1">
                    <mxGeometry x="-614" y="-1290" width="140" height="140" as="geometry"/>
                </mxCell>
                <mxCell id="34" value="" style="curved=1;endArrow=classic;html=1;rounded=0;edgeStyle=orthogonalEdgeStyle;exitX=0.5;exitY=1;exitDx=0;exitDy=0;" parent="1" source="4" target="18" edge="1">
                    <mxGeometry width="50" height="50" relative="1" as="geometry">
                        <mxPoint x="-189" y="-1385" as="sourcePoint"/>
                        <mxPoint x="-349" y="-1270" as="targetPoint"/>
                        <Array as="points">
                            <mxPoint x="-544" y="-1340"/>
                            <mxPoint x="-544" y="-1340"/>
                        </Array>
                    </mxGeometry>
                </mxCell>
                <mxCell id="41" value="" style="rounded=1;whiteSpace=wrap;html=1;fillColor=none;dashed=1;" parent="1" vertex="1">
                    <mxGeometry x="-1160" y="-770" width="581" height="330" as="geometry"/>
                </mxCell>
                <mxCell id="42" value="&lt;span style=&quot;font-size: 25px;&quot;&gt;&lt;b&gt;Deploiement &amp;amp; Test&lt;/b&gt;&lt;/span&gt;" style="text;html=1;align=center;verticalAlign=middle;whiteSpace=wrap;rounded=0;" parent="1" vertex="1">
                    <mxGeometry x="-1230" y="-820" width="280" height="30" as="geometry"/>
                </mxCell>
                <mxCell id="2" value="" style="shape=image;verticalLabelPosition=bottom;labelBackgroundColor=default;verticalAlign=top;aspect=fixed;imageAspect=0;image=data:image/png,iVBORw0KGgoAAAANSUhEUgAAAIAAAACACAMAAAD04JH5AAABSlBMVEX///8Apc5BbMUIns07ccY4dMZAbcVDasUKnMxKZMRSXcOv4/A3dcY0d8csfsgqgMhZV8JHZ8QhiMlLY8QxesdPYMMZj8pUW8IogsgTlMsFoc1hUMAcjMpbVcEkhckYkMpoSr9vRL5nyeIfsNTn9/plTMCX2uvX8fdyQb7G6/ROwd190eam4O4Sq9FrSL8PmMs6udloYMXv8Prh6fa4zOqjwuZdldPN5vOa1erj9fqL1uni1fF+SMGHVMWabs6side+o+DRvunaze6uldry7fmWetHQxeu6ruOvot5yWMWQgdKYj9d8c8xwZsiYjdbe3PK8uuaVmNmGjtVkbsmss+OMktbHyet0f89edcquteN/l9eIodpsidF/mdfS3fGQq96xxOd4ptqLt+BdntW+2O6Vv+NfotaPvuJystyt0utXrNiLx+SNyuZsvd8+2iWfAAAIyUlEQVR4nO2Y7VvayBrGw7FWa1q1rCJ0UU4hBxpiCoZ3etyXvli1dq21y1pLcVVUQPn/v+7MZGbyTBIUNgN7znX5+6DJMJP7fp55ZiagKPfcE4hX/33xYvOnn3/5df8fMvD+BWPzzet/wsDPLwCbv1gTN/ATNPD8+cs3bydsYPO5i81fJ6pvufUR7yaZhFdU9CVkZ2tyBt6/dPNvzOSm4Q1QBfzn/aQMvHMJc7YnZGBHUIXs7H4a/6bw9h1T23GUf+SMuxitLSK7s72FzoG3W9sff/TwYXxJeP1hw451l69668Alv7q6ujce9caHHZblT7D91UcsytnY21j9IF/99W8bTpCfxM/2of7qgaIcLDYky7/dBQle/c398fbq6qIN/o8qYE/uJFjbQogbuMb2dzf2nETsLQK+KMrvizLfVLY+CvqLeLdpECm+7zSo9goGRX+w8kWavLW7KiR4kczvoa3H1lthBbJvLc8dyNIvCNklFJArKsVrbXllZY6A/38+nJNmYP8jULZFl3H7HI2V9ftjTmB5WdIU7G+seDjEH/xOQj3kHT8TVYCcddiY47JOgufwxFs45EOn1A+XRX6QshvvL9uqYnrn7OAaXxqOiGWrOpzI0LcOxWll+Exvw5F+hDmSoY/mddkXn6cfPxIpytD/6p5WjicFDSz61KEpQ3//B3FWQYIftcSu1tFTkWMZBj67VTlPnx4VBP0m1Z1hfJOg3/KoQma+Oj2LRzOQfyFkrIE/PKJQf2amWSSL0Gp9Z6oACQYavqpiqEfH34+g7EObx83vrbsF7qLpL+oOlalON4+/nXz9s9gqSHofLdyq+tBFSY4o5MQ31Gax2HSLY05kxe3wwC/UaUspPGA3D1w8aZa/nZyViu1W4e7H30nLL86HaH9tErFptzpqgjyeL5dPT0oBnJSALNdA++uJfVW0Sk2Pqi0NeBKgNI69ISJZpTBNVE9Jkk4f+6lS7fJpKdBSXPJJMEpAmegt0YqzSmVBlBJF2oFrctonwUWlZSuBo7ZwtvQEgOPWgmrbBrzTuoASQC7KYtdiGXlYWirLiJtT8JnVM6VFolzy1HahVGpL3gda4qwSSkrxCQkVaBXaEjZ9P9qC9BIBZf6UXETbtNfFwtL8fLl965P+JkWmCikxB/PlEspCpTxvA5NgFVoVGQZKHnWsdKEoZ/OMMr865cO65wuY8+BJOXNUIecFxTqL0huk1GlfoL9dOqhSjjIugx4HJbc0JYqSoLQvzteQCJLGE3HFUl7AjdEw+RsNB3TQhqoLkHO+Bmpr0S4cc4l0z7Bu5XxtbS0ezEBhwQ3P7hXv1Il2wJAuUmVzf4Wur5RAiKKQNb7VWlcwz5dEs9DpdVBrJBwOBzMQ9tUmDAgNaVYULY6U4xWli/4FWwrnoiji8qITti8GWA6HNaUSvryKh3tKJR6PXwcy0FlzgzKvoTSvDcptHEeu1FAxxONKDRno+Pcbkq4gjqI7J82X6Crsv9V1mOQ1MqAgA71ABpQwVgXQx13Sya15BlRo0LUYks7E45GABjphXwM4t12lnYh704BSEMn1eolIpK1UI5FIP5iBNpGNc1g8KMHXKNicNwVKP2KDqq+XSCS63h4jEYkLxGizloj3enH/6DLXs4lYD89QDBnwsTgSHdEAz/kNDhKLVK4Hvv1VE4lYLqC+UiEpiHD4ss6h6HqachNLDCqzWi4WiwXbBjDXjjiSTORYvCq+S+AkJwaM7CF9vyIZlVxCgMfbR/I2/uNucoiAa4DQFQ3Ebmi71qf6/iJEP5eRYAAvphiEr/0qSfKN76B+TlYCaDEBclXno0rFdw1kTKI/KyUBaCVQYU7/jtK6of2qt3cbnmrOzc3gr35a9Zkd/qycCSD0PQ5m+/7p1ftTs5SUPH0/B7lcquqeCa1qznJMOd+PBzmwRZ71q3qNCGVUo29OzU7ZoI9CErYgj4NZf6amntmi5NomL1sfVaJLlIXqiDo8M6TLI/QQEPVRpdqIkD4OfVRjyVtEAWNIP0M1B6pyzPrY5DHp0CBhGv36WOUx6/mB6qHsmCbfRcYw3cqYVFLS2TMMej2bN0McM59cH1/lDUTLqISM3E33nnvuueee/x1qaSOZNNLgiNMyGXHfR/cZ5xDS9HXDWNddJ0NGV9N1Y/SzSs2zoy6fZm0pfJt0+hjkc/oOoGfZAPBWoBkp1ppKjnJmadkQIE+faN85b7xJcq96B2Splm7CVjPt0RnEujAQUQcGbEWXgazYP28/xvWU0LAO0u6BNGwWCSsLx4Dh7p9V8Jd0z2OGe2eqeQfaIbGblOY2wD7IJtmcZ9jHaKyRZAWVvEXWgfXOpvVM2n6KMAV2fNCADjJM5x2NoHGQAqI9zGH06zQaWnmZfChPM+eaEccAHWInRqcp04Arno5hDJhCmrEFdgGmRBUM0KKhxZ9JI5B9fR3BBgseb0UFiXMBDJBC5AZqrDU56IuBZtfGMD9aJOEsDzRAMuQUYcppr7uCrKXRRpik9TBMEWZZDSH0FCfLDdBnZaEBFXoTt7w8+CQ1zGaYd+aYTRwrHzqNNFwDbkTCnmPCnwdSoH2obeBOA3yDUYEBRQVCwgzC9qG+OsIp8DcgJpzvzHW4fzmTPfIUwCKESsCAYMw5GhQVnAh829dUdb1ujFCE3mVIHmtCA8LZo4LBWp1lPC8+dYRl6NmIMin2QMcATKwqDldN0M2BHlfDzAHd1thWTB+YFA2AAwvvhHihsg2bLoiakjcRWdqa9bXlD8tvtq7rdXajiwZAefCt2LQt20VksrPAbqXdhzqMFM3nOCZFKQTBCxFsxflknZ28WRDIqMexa5mR+dA8BvjzcQ3kPSPS/AiGDPsjjp4Sx+Xt2hENMFVsQHM7IKF63qxG+AktCcexfc1lgBai/VIqOqAjVPGldKSf8Phbtum8ZZO8gKVsJ4qtFmdvcEZodeft3hj5pyQ1bRhpYfvWEMrAhhoagL7JqOJ3kJpaN+r1yfyAeM//JX8BqSq1wuQZM6AAAAAASUVORK5CYII=;" parent="1" vertex="1">
                    <mxGeometry x="-788.2" y="-748.32" width="188" height="188" as="geometry"/>
                </mxCell>
                <mxCell id="38" value="" style="shape=image;verticalLabelPosition=bottom;labelBackgroundColor=default;verticalAlign=top;aspect=fixed;imageAspect=0;image=https://www.ubt-uni.net/wp-content/uploads/2019/02/Cisco_Web.jpg;" parent="1" vertex="1">
                    <mxGeometry x="-938.2" y="-590" width="140" height="140" as="geometry"/>
                </mxCell>
                <mxCell id="40" value="" style="shape=image;verticalLabelPosition=bottom;labelBackgroundColor=default;verticalAlign=top;aspect=fixed;imageAspect=0;image=https://www.networkscreen.com.au/images/Boxshots/Juniper-vMX-Virtual-Router-Box.png;" parent="1" vertex="1">
                    <mxGeometry x="-938.2" y="-746.02" width="150" height="150" as="geometry"/>
                </mxCell>
                <mxCell id="56" value="" style="rounded=1;whiteSpace=wrap;html=1;fillColor=none;dashed=1;" parent="1" vertex="1">
                    <mxGeometry x="-614" y="-395" width="280" height="300" as="geometry"/>
                </mxCell>
                <mxCell id="57" value="&lt;span style=&quot;font-size: 25px;&quot;&gt;&lt;b&gt;Monitoring&lt;/b&gt;&lt;/span&gt;" style="text;html=1;align=center;verticalAlign=middle;whiteSpace=wrap;rounded=0;" parent="1" vertex="1">
                    <mxGeometry x="-910" y="-290" width="280" height="30" as="geometry"/>
                </mxCell>
                <mxCell id="62" value="" style="rounded=1;whiteSpace=wrap;html=1;fillColor=none;dashed=1;" parent="1" vertex="1">
                    <mxGeometry x="-510" y="-770" width="410" height="310" as="geometry"/>
                </mxCell>
                <mxCell id="61" value="" style="shape=image;verticalLabelPosition=bottom;labelBackgroundColor=default;verticalAlign=top;aspect=fixed;imageAspect=0;image=https://www.starwindsoftware.com/blog/wp-content/uploads/2019/03/racsultat-de-recherche-dimages-pour-azure-vm.png;" parent="1" vertex="1">
                    <mxGeometry x="-405" y="-781.71" width="221.39" height="221.39" as="geometry"/>
                </mxCell>
                <mxCell id="63" value="" style="shape=image;verticalLabelPosition=bottom;labelBackgroundColor=default;verticalAlign=top;aspect=fixed;imageAspect=0;image=data:image/png,iVBORw0KGgoAAAANSUhEUgAAAPMAAADWCAIAAACL9SPtAAAXBklEQVR4Ae2d32/jNhLH+y/v35CH+wvyUPjNB9TAPagP5we7TxcDKbBBAiS9Q1JjHTTtZXMu3Ow2Nty62bV50E7AjGYoUhKpH6ZnESwomaTI73w4Go1k6ysl/0SBGBX4KsZJyZxEASVkCwRxKiBkx2lXmZWQLQzEqYCQHaddZVZCtjAQpwJCdpx2lVkJ2cJAnAoI2XHaVWYlZAsDcSogZMdpV5mVkC0MxKmAkB2nXWVWQrYwEKcCQnacdpVZCdnCQJwKCNlx2lVmJWQLA3EqIGTHaVeZlZAtDMSpgJAdp11lVkK2MBCnAkJ2nHaVWQnZwkCcCgjZcdpVZiVkCwNxKiBkx2lXmZWQLQzEqYCQHaddZVZCtjAQpwJCdpx2lVkJ2cJAnAoI2XHaVWYlZAsDcSogZPvadblaT2d309ndcrUu2xe0fZgvKrQte6xDqy9kV7T4crU+OT3v9RP9N0hG09ld8e6G44lu2+snw/Gk2vIofsSDqilklzY3ZxoDenF1XaTHi6tr3AqXT07PxYUX0dBeR8i260M/JX4aE6nLTi6Xq7WunFcQ/02lL7ktZBcVbDq7y6OQ7HfGJBaHjbsqG94Unclh1BOy3XZ+mC9ITIz54+WT03N7pwXJhp6H44nzJGA/3GF+KmTb7L5cre1Mn5yeD8eTQTLCfA/HE1unSpGQZpCMeCe4w14/keDbLin/VMjmmrzssXtW7Eo9ydY+/mG+IF0RviX4zrUW+0DIZpIoNZ3dOQnDzYhfHyQj/CkvE5+tyYaaJ6fnlqNDcpD3KXuIAkJ2RhBnSE0ohMZlySb1eZ/OYQzHk4f5IjN02cgqIGS/6kFcKYkEcPjx2uZLiZDq9NmkPicb+ncGJxJ8E0PgTSE7VcMZUtsdJFkSocgGO9lDI8kMYppx+dDJtnPT6yfO5LRiuY5eP8ES83JBn40bOoNvyQxiuZRSh0u2M5YteJ+8GbKVUs4BS3CC4T5Qskn8UDykxtrpMu/t806tP6nlc/r352dd8aVQwWfrLpzB98XVtfjvQ/TZniG1JgwXONlPz2rzWW136vNO/fEppRz/8yEb+rEHJxB8HzjfB+Szg4TUGFBd5mRvsn569Ul92unqyp/sInwfeGbwIMguEqG+cle+xM8DnxHHSqk/Pu0229d+Q5FdJPi2JCtfBxRjKXKynQ9+BHFsnOxnxLFSaTTyF9oTkGxgUoJvvjZjJpsDR64Ui2T0uGR8Dz/Q8jmNsOHf8za9jsT/gpMNndvDrUPLfMdJttOH5d32w/wVL3Oy/9qqp2e1+pIeSYNs5LCVChZnG0dov7g8nOAkNrKd4UcdSV9ONjD3+UtuhPNXk8/WBypyXRF95iQqsu1fexkkI/tNck1G2UIe2Xn91E02HNd+4oo+OImEbKerLn5DMQ9Hy/5ukg0Dvri6tj8TG6vzjoHsh/mCXBrizTrCD0J5l8lWStm/bF/w2Rgy5e5v7j3ZlgikAaa1X8RrqY4novxJsgcntZ7T/AdfoYf9JjsP6yBZ6uJqdtxn44lYgpPI4N5jsvOCkOYttEdkQ3BCLmH1CSemmHtfyc77MZqash/Y7fHyfpEN4zfe1hkko2jg3leyudepL6nHUSZ79pFscN48bdL8GY+IGWpzL8nmDtv5Ba1Qehn72VOy8+COw23vJdn8wrGVIERTbiR7/qf64YO6XapV9qGRuu+u61EVLPBHcEM9TlNwADVVi4Fs528y1aSd7paT/d397tufd9//uoPCDx903bRAQqmwD7FkjlRgg1+IC9kFZKunCvHZHSR7/ufrzFfP6rv7HfbcnSJbKaVzI1AQsl+N13Cp+2QTQX74kEYm+l/XyCbXkUK2tlTThb0j+3aZum0tk5CtpaivIHF2AG15nE06vV2q73/tLtlkpYnPJuZrbrP7PhtH1UqlDhtH3oSkdq8g+e+lCNnNoUyO1H2yv/05RXn1nP798CETinQtNyJkE7ra3Ow+2fM/U5r/Pktzf/jaEVQTn90APRJnBxCZ3+ywdypk2/UJ8qmQHUBGQrbzVn/XyCZXwBJnB2CiWhddi0aE7Gp2rLWV+OwA8grZAUQM3YWQ7aWo8SuGzrv9JBqBV1O3+ISdRCNeEARs3IVoxMg0PHdRgWzdsBW+heyAcHp11TrZBAXyRJHz4X3us3EPzb8aj0xHriC96PRp3CLZ9m+AA6BOMuxkQ3DS5BPnQrYPjSHbtkK288d64E27TocNQsAPlJGH7LDnbvK9vURP58oMacva+pIryELS8sfzMYWVf9hkuVpbfiah10+a+cqtkF0IggYqEUs4r9g8h2TBujLTZEjGb5LD4mkAbqKn+GxineY2iSVqJZvEoNpVF/yq/Pu1+tf/dt/c7v75y+7itx35IW0imYXvWsNuoqeQTezS3CaxRH1kk1swGuuCR/znL7uvf3z5++b2pWCH25JMrA84omd9B2oOkT19HySxREHOysqa560LXiNOf09R/uZ29379cuSL31722OGGdwobLy5rynYTPYXssqgEq08sUQfZebF1cauDw57+/vpVGqXSyOTrH3dkp1EXY3qxppib6Fl8jsaRd2Sn5EYMhuC/1ANxSKlgFxw26f39Wn39Yxpwk/3GzcbgFrKN+rewk1giuM82RgIFgxAtBwTWJPCAgKQg2RCW6OBeF8qORA8pr0D0FJ+dJ1Tt+4klwpJtDK8rfFVRQ4zhhgtKvMcplnE8YeEjeobt3DnBmipINJIR1hiHVF454LYh3wcRdvFQBA+L340PG3AL2VjtNsvEEpXJ43PgaT7nF2R4J3rP8vnlklHn/nSeRNcpUliu1jxAChiTED3FZxcxSi11iCVCkW102KWuGvNm+35NX3aaVzNvP5kyxNyhkoCkcyE7zwq17yeWCEU2P+kH9Iv+ovCAO9TwiJ5Ctr+xKvZALBGEbO6wfeKQihNzNeMxSRC3TfQUsl12qO1zYokgZNfnEQPKwAcZhEKiZ5A+A866WleSG3nRjbjDDjpsGCgZZ4V0JAdFyOaatLOHWMLfZ/NQJFQIG1wgftvfPyAheorPDm61oh0SS/iTzc/yRYfSeD2eAfQHkejp32HjqhgOKNFIKgrJivgvFYPS4XaRdegfkAjZ4Yzj1xOxhD+I+pEMKHQ2FAHZSEDiP32ip/hsPzw9WhNLeJqWB9lB7s54zM/dlFxHuhtYaxA9hWyrWnV+SCwRnOw6xx6mbxI+eV5EEj2F7DBGqtALsYQn2aS3zub7sFDk+RbPkwxRQMjGUjdaJpbwJJtckO0j2Z4sEj09e2sUhfyDSW5EEbL9Uw35agf7hIzZk0UhO5hhPDsilgjrszueGAHphGwnQuKzxWcrkkb0PAM4mWumgpC9l2STK0hPFoXsZhab+yhho5GwvblHH6IGyfp5RlBCdgibhOgjLIv+vT1u1Nli9+6p3NweN+pxo8q2gmMQsj2zfkJ2OcvVV9ufRTw2YtdSWb/R/e7N263+O7rcDm53jxvcvaH8uFGDW9pwhF7MbmiT3UUeB/C8U0MU8IxtsiNtbUvi7FR6crO6CCiPG3V8k6ET823BlCwG3erN2+3R5da5KpRS/HEAT3yEbE8BgzUP67M52fjkDgEDBo57XEynLh9dbkmkYVkMuNXoPuP1IWjBAyApv1InGaMNhGyjLC3sDE42STXgmzV5jlmz6CwcXabO2FkNV4Am+NCD29cfTCOj9UznKyVZvxYYNh8yONmWDs8W5pADg9hA+WzxSjYJsj0TI0K2GbJW9lpArDyevFD7caMaANd5CB2NkMih108qT1k3JH3KFaRWpulCA2RjR2i55nMSGaSCJRTxD7LFZzeNr+V4dZBNLst6/URnSFp329ph86wIXoEWxewfic+269Pcp3WQzb85i6FpMdrGCUTL8vNRX8j2US9k2zrIVkqRnAP+vdMiCbsggQfp5Ohyq4Uj/MELUfWnPgWip8TZPmJ6tSWW8E97wWjsbruVmARnxMk1Lo6XvNRkN6qEbE89qzcnZGPnWr3TLy2J2yb0NByTYKx5HBJqPfOehWxPiqo3J2T3+gmOiav3y+5Z8LfoNpYnOb55TWDzC0ey5CpP2dgzvgVbuefWG+7lcyM8bAgIN/dhZNk0ADdO8xnf947vkvowRJ4ZDBi7+4wqSNu9JLvuVxPxiLZJuHEyhP9+FZxGgtieYx3qVBBkeJ6d7CvZPJUB95yDvAg975ygM9xKpY9Wl30ahOQ9+CZ/iMoIn3+0YDwPBDzveUIZpPkek82f0QO4B8loOrvDFFZQisckYHjc7eNGBYxMcGANAzZiTc4eoaYW8FRQYUh1NNlvso3OFfgejieevs0I1nA8wXCD8/bkm7vqPJ/qmQ+Zzu54oKXdQR14tdjnfpMNzzzkWQuuhwiIpbTO65nnxcB/4+dOebBB9hxdbsmj2DA2fkdGr9VSg8eVH+YL40KNFWul1N6TDd8xsZit1098gpM8uLnzBpLgO5GD293xzY4H4vB1stF97pcm8ybi463z+vRfMHjxdK0cA9mgqeVUC867cnCSB3evnxS5YNXPM9ltbxl/Zax54h9o1q66sib2uXTh03jIBjVPTs89QTRahd+bxIhATF857LF3Xi11bQ8/IkuDGE0WG9kQedvPv0UcLRfL4lM15cPxpGDkM53d2RchJCuq+VTnUqm8CLksnd0TIdmgtRPEgghiy+WlLDTZujBIRsPxZDienJyeX1xdX1xdn5yen5yeD8cTyylFN698L9CYrNTd+ueLsBodL0dLNuh+cXVtIQky32Ut5FwzmqRqhWr8OUfF8zllJ75f9SMnGzIn9vN+XpbDbsiH+cKyZppkWkJqo6XiJxum7TR/teAbuvVH/OT0vEJI7YyOqi1aIyh7t/NQyNZ82ymsEHzrni+urouH0ZAxrHy4vMdm9LlikIwqLJW9w9cy4MMiG4SwB9/+fm65Wj/MFw/zxXR2B5ePF1fX09nddHb3MF8sV2vP1IQzpPZ/tsRCzL58dIhk6+BbezheqBac1G31mmKquofdSv8HSjZo7bwK9IkWgpvTnqWullEJPsjudHjQZIMZnCf31vm2Z6klpDYuJyH7RRY73/7Bt1F9505n+HFoWWqnYrqCkK2lSAv2zPfF1bXnxV/mYNYNZ0av2vMk1mNG9aGQTc1ZxE3Wzbc9/JCQmtrMtC1km1RR6QvHLJnvIF9IMx7YHhTBs+bGhrKTKCBkE0FeNx/mC3twEjb4dp4rJPx4tU2BkpDtEKkIcJ7BSZGQ2vMQjknG+LGQXciq9WW+JUtdyADlKwnZJTSzB8FlL+zsX+Xq9ZMDf/CjhGFMVYVskyrWff7Bd5EIxzoE+dCtgJDt1ojXcKKZd3FZpKG4ai54hT1CdgXRXpo4g+/heHJxdQ0P/U1nd/ZvZ0pGr7olTC2FbJMqZfbZgxP+FKFxjzx3WkbyQnWF7EIy2Ss5YwwjzbCzm4/L2ue7F58K2cHMVJbvat8QCzbc2DsSsgNbGPi23Jnnv+kaeATS3RcFhOy6QHiYL+CbkfCrIyen5/CFsbqOJ/1mFRCys3rIViwKCNmxWFLmkVVAyM7qIVuxKCBkx2JJmUdWASE7q4dsxaKAkB2LJWUeWQWE7KweshWLAkJ2LJaUeWQVELKzeshWLAoI2bFYUuaRVUDIzuohW7EoIGTHYkmZR1YBITurh2zFooCQHYslZR5ZBYTsrB6yFYsCQnYslpR5ZBUQsrN6yFYsCgjZsVhS5pFVQMjO6iFbsSggZMdiSZlHVgEhO6uHbMWigJAdiyXLzOP64+4fP6V/ZRq91D1b7Aa3u7NFlbYVDle5SSfIhnfdnpye6x/Cs8xnOruDms7K8LsIeb+pDj+3pw+0XK31+3bzCvxFXvByXt0JKXz4+HT57+nsp//i/c5R8V9Cw+8CJmPDP28JPesK8B5h4/SvP+7evN3+7WqLB1awPLpP2w5uhWyrYA/zBfwI2CAZAa/wGzTG3zLNq5z3yi94jxEHBUYEv8enR6c7t/9Sma4PLwKGykZ6lFIfPj71+gkh2z4q+BQfRSkFmgySEf/Diw3a4jq9fgKv1CEdCtlEkMCb8NPow/GE9Au/cUqIzKsM5jSuBPio10+M5BGyyRiWq7Xzx1H1W5owXrgfC9l5o8ojm6uEDwRl3hZetcMnImRz9YLtAXQKvlXIXhksyvEC8gbJyIiFP9nwO2Z5/dt99nA8GSQjvuQ4neCzjVMgxjC2heaDZIQrC9lYjcBlMAM3rfEweTbTleEUTHoDsiHM4Nx7kg2LTX15v16eA7b47OVqPUhG5Lyke9PzgoJl8eCaeSrB6Q6LI2Rj3QKXe/2klMPmEOABgfEIvkA24MIdpCfZunNL3GIhW0OMgdM78dT8fTasbXytaST7caNG97vjm/Tv6HJ7fJPmQB43ZCxpHX0FObh9qXl807lsSTu5EaDBDqtW1IKOrqOU4tEkho87SE+yIRSBAeT5VDvZgCwRweh38/rH089bFUopWPa4spHs45sUWfJ3dLl994SbvpBtrDy6N6yETOMGN9ohm3sRy5TBMNjlGCtDdgV/pMnWVscO0odsHYrA4fIiKyfZvKGF7OVqTf7wZPUcyU6lFMT0eL+R7HdPKbXgpB83CjbfvN0eXWaSg+CzYQGcLdL6UPPoMl0Vo/uuZAPbIbsgrHZusKmMp2xMNlTA8Y8P2aTnvLOKk2w+7DyyeS6SX1Ma28L7JolfMJJN9FRKPW4U8Irdtiab3KyB/UeXWx7A8J4b2NMm2diDWqYKy8BZmZ+yCX/kROFDNg5FYOT86PbciJ4vpDj1FYKRTrg+hp/f1v8TWLXP5vlsXrMg2UopiDo42cSRw3T4MtDTbL7QDtkEMvu0Czp4ThshWykFNMMiqUw2CUVg8EAkWX5FfDYQqS9w88jmHpqLBm31PUjw1mRI0CqP7NF9ekWoQ21dxu4ZfPPxjSHqgPq4Mh9kY3vaJFs7KvtsYRnYKwNt/GqM5HFxrq0y2QDQyek5/oM34pFBFiQbX0r6k63FhMkal4SRbH1RCFmRwW2aJNHxtO4WyDbeXYf6B002j3q1cMYCz2yQagAEOe1yn61P2cvVujLZcMt6OJ6QPx6QFCcbxg/PrvT6CZkd75lUgE2+KmAPWW9KKU72uycFEOPAQ0cjGFYL2cYejENtYGc7PhsCg7wbHHzalhMrVIbgkjQ0kq0dZDWyjaEIHFfTqYdRnGy91Dmd8JHR9eoD4QGQncZ7WJzss8Vrlhr3wAOMPLIfNy9rAzdvsdwa2RBj5D3MRBTRUYQxatRdkVZ5ZAM9PBeGm+elO/L61A9IYQdZimyYBUQ1eCSeZBvF4WQbo2cNK/fZxzc0dT24TdeG8cqSTKeZzdbI1oEBf5gJXjzHg+ZeP+GVNaZcLwuFABCJwnEPeWTz61TcioQNpcjW57GA0QiMjZ/xONk6GoGUNmSpLVeQb96mNylH97t3T+ps8RqRk2AGi9NwuU2y4faYfkQTwlb9FCsJmnFlXNOCmoVsOAmUJRtwN543wGwkIClLNozKSDbPZ8MeHKUYIxk4mZDbWJxspV5uLurECLALnpj77KPL1D3jym/e0ruVDaNMDtcy2TAaeGQeUg3T2Z0FneVqDZXhJYvOyjg2IDMn3zwgn8JCIiNZrtaWDoEhPKQPH5/+czMjz2fbOzGOSueweQGvf0vP0K2ezvXH3WSe/pFZP24UpERG9y/PgYBLxjdfHjepkwbffLZI3XY3v2LTCbKJvrIpCvgrIGT7ayg9dFEBIbuLVpEx+SsgZPtrKD10UQEhu4tWkTH5KyBk+2soPXRRASG7i1aRMfkrIGT7ayg9dFEBIbuLVpEx+SsgZPtrKD10UQEhu4tWkTH5KyBk+2soPXRRgf8D843f+PBhzAQAAAAASUVORK5CYII=;" parent="1" vertex="1">
                    <mxGeometry x="-485" y="-748.32" width="133" height="117.13" as="geometry"/>
                </mxCell>
                <mxCell id="64" value="" style="shape=image;verticalLabelPosition=bottom;labelBackgroundColor=default;verticalAlign=top;aspect=fixed;imageAspect=0;image=https://raw.githubusercontent.com/docker-library/docs/c350af05d3fac7b5c3f6327ac82fe4d990d8729c/docker/logo.png;" parent="1" vertex="1">
                    <mxGeometry x="-499.68" y="-645" width="162.37" height="145" as="geometry"/>
                </mxCell>
                <mxCell id="65" value="" style="shape=image;verticalLabelPosition=bottom;labelBackgroundColor=default;verticalAlign=top;aspect=fixed;imageAspect=0;image=https://www.ubt-uni.net/wp-content/uploads/2019/02/Cisco_Web.jpg;" parent="1" vertex="1">
                    <mxGeometry x="-337.30999999999995" y="-580" width="80" height="80" as="geometry"/>
                </mxCell>
                <mxCell id="66" value="" style="shape=image;verticalLabelPosition=bottom;labelBackgroundColor=default;verticalAlign=top;aspect=fixed;imageAspect=0;image=https://www.networkscreen.com.au/images/Boxshots/Juniper-vMX-Virtual-Router-Box.png;" parent="1" vertex="1">
                    <mxGeometry x="-257.30999999999995" y="-590" width="79.68" height="79.68" as="geometry"/>
                </mxCell>
                <mxCell id="67" value="" style="curved=1;endArrow=classic;html=1;rounded=0;edgeStyle=orthogonalEdgeStyle;entryX=1;entryY=0.5;entryDx=0;entryDy=0;" parent="1" target="41" edge="1">
                    <mxGeometry width="50" height="50" relative="1" as="geometry">
                        <mxPoint x="-539" y="-790" as="sourcePoint"/>
                        <mxPoint x="-604" y="-738" as="targetPoint"/>
                        <Array as="points">
                            <mxPoint x="-539" y="-615"/>
                        </Array>
                    </mxGeometry>
                </mxCell>
                <mxCell id="68" value="Topologies Cisco /&lt;br&gt;images reseau&lt;br&gt;Configuration Ansible&lt;br&gt;Tests auto (connectivité, routage, perf)" style="edgeLabel;html=1;align=center;verticalAlign=middle;resizable=0;points=[];" parent="67" vertex="1" connectable="0">
                    <mxGeometry x="0.2529" y="40" relative="1" as="geometry">
                        <mxPoint x="-210" y="-195" as="offset"/>
                    </mxGeometry>
                </mxCell>
                <mxCell id="69" value="" style="shape=image;verticalLabelPosition=bottom;labelBackgroundColor=default;verticalAlign=top;aspect=fixed;imageAspect=0;image=https://miro.medium.com/v2/resize:fit:700/0*OPChEtXu7YFri0zm.png;" parent="1" vertex="1">
                    <mxGeometry x="-583.31" y="-376" width="220" height="110" as="geometry"/>
                </mxCell>
                <mxCell id="70" value="" style="shape=image;verticalLabelPosition=bottom;labelBackgroundColor=default;verticalAlign=top;aspect=fixed;imageAspect=0;image=data:image/png,iVBORw0KGgoAAAANSUhEUgAAAQwAAAB2CAIAAACyIDrXAAAWLElEQVR4Ae2dD3BV1ZnAM7bjtsNO6VTHbp22s+PMKt6OuDtOR0qCKE1mbSHQ+AethZfFqYq16nbd1SQiDSIYWan0kVgUG5YUROLLewl/EhJMDJT83YARIVHAGkKA5a9ICMgj792dcPDLyXfOPe/cP++9e19O5s6b75577jnf+e73u9855557k6arP2UBZQGhBdKER+N4MByJY+GqaGUBBy2QOEjCEV2B4eCVU0UlzALxhYSAQf8mrGGqImUBpywQR0hoNmjZKdVVOcoCibFAvCChqWDlxLRN1aIs4IgFHIaE5cEoxRHtXVKIURsh3SV6KjWsWcBJSMAn5AVrSjt+lrzCScnpeHtVgaYs4Bgklr3HlLp2MlvW0IUn2rGDOtesBZyBxKYbmVVaMr9Nrbx+uqSVVLaYFnAAEgedKaa6bAYHax9tRbHGVClcC9iFJH6OxVWXJMav0tFZssDU6pCu67YgGZ0upVo92lZOWIdE+YqyALJAqoYdBcnQijK1xc8CKUCORUjiZ1NVcspbwHPYKEhUGEmOBTyEihVIUv5WpxqYYAu4HBgFSXLuown2Qq9U505aTEPiFXMrPT1tAVfRYg4ST9tdKe9RCyQdGAWJ6m55xgLJosUEJB69Dym1U8kCSeFEQeKZ+2gq+brNtiQYFVlIbLZKna4s4KwFEsmJFCTONk+VpizglAUSg4qCRHW3vG2BBHASGxKnoHeqnJ7ePn9xScxNUJ2/uCQvv8BfXCLIEwiGuFUEgqHmtnb2xOa2dlP5wxG96JUlZIPSoJBAMASJtABV0ImjXFaQcG5yzW3tWqy/zKwsI9cJBENwNtfdyYl5+QWQjRXy8gt6evvoKuhi2fyZWVkofziijx8/XtO0uXMfh3J6evsys7I0TcvMymJ18/lySclGCEE5o1CIKyoxIokLzd3c1p6ZlcXdwDt9vlwjzcHVNE3Lyy8wygaQ0BVB+ZqmoSoAEqP8LLcsJOGIDrcAlB/SUb1G+o+29KRB4i1D9/T2gROzt2HSFnA1khM5It1egISOAD29fXQJdC0ACZ0Yjug9vX2AJYoAXEjCEd1fXELUA4bpptFKKhlZIE6oiCIJ0sDlu+CLyE1ptcH1wdeNRiaQk4aEFAVOTFdkBAkdHFBdRpDQXJEqZJpGN3M0y/HgJEUgATdCjojchb5Dk1OMgokMJDQ/AkjgkGQkIfEHYh2cDoEFNUrt0hZQkHDG8XT/RNxfhwhAnBucjw4IYG4uJGRijSYN8nNL6+ntg3SWRqNIQsqEE4EWqEsJMS3gLCqGkSSmHi7JAB0nMSHhiE4mjuB+DB197okACfFR9AuFgBGQT6P8krNbUBoRIDxqmsYlGeVXu2ABBclwPAFC2Ps02IsI4MS0t0FsoRNJfjEkmVlZqF8H5SM8yC6bnzsFjHQGSLgzwiiz2kUWcJATfiRB9blzF0KBzI0WHK65rR028Gw2MgAk5OkhfQocos+CovzFJZC5ua09EAxBfhSyVHcr3n7lFCcehoT2e7G5IeBwb/Pk4R0qATybHp1DHlI1Hb4AEjYohSM6lEYfFUAC/JMQRNSmmQRNlCCwQBwhEdTqnkNACOr2cDUEHzWCRNM0VA6cwoWEPSqGBI7SE1wCSKB1zW3t7Iwwt40qUWABm7RwIomgMpccgrEE6sAYqUfY8Plye3r72I0NC/S9nwsJwAY1AgZ0rICjZM5A0zS6NCNIoHXALR1Y6BKgfCWILTDqIKH7TrDgjxXAanDX57pvOKJz/RvOIkshoXy4x6NVLVCIID/dPTMauEPrEP9QPkqHZkoKh4OhrWPHOrvVjRnTOWOGpALOZjt4KvqH2ohMmXY48V4kAfeF2zkr0O4IYcTIlHCfpv0vZi10FTRprDIkhZ2h4kYSiDks0sAnRBijFhmmD0Ybb7yxOi3N2a0ze3rPC783rDRuX5ENdETuWT7YdSQqWbVlTjAkkvUlMZu/uIReRMiVwd1hNSQ9GGCVhzLBNSEFle/z5eblF7ClQUUof2ZWltGy/LumTLlryhR6FXBefgE5nS2fPIYnR32+XNCTbYsgpes//8tZPGr/7hsfPTT7b/MXfDp/gaBexw/tPhTNezeS4x9ctFEqjIAC1jjxHiTQYCWYssDx7TucJeS9a6/dM/eJ/YUv7S98aV/hS+FB2Tu6KbVR5ouDeun2ITzItvPg8EMzlNNo1wInIyAxKlelp4AFWjIyHITk/X+8oeu55z9ZWARb+JK5m7oFkzYdiD5edgWPHP/gvIDFGs1yMgyJBaXVKV6xwL5XljhIyLZb/rlr0atdi/778u+rRL548VL8rHG8X19WF4UAQoS/7rceu0xxoiAxHa/j5wpxKvlM9yc1V13lFCQ70ifvLVq2t2jZnsu/IH/5ZThO+lfvjv5qxXAAIYT8bt2gzerkOVGQpD4kHb/IcYqQpp9N371kOXe7cP5Lm17Lnn7gWPTFyuERCB1JavdY7GuhWmRQuQIJOlPtpowFDq76H6cIafmlr3Ppn65sf7gsUL8XBhyGZF0b7l8BJHNXO0OI5D9/VJCkciQZOHm6/rvftQ/Jlm98s/Wxp3ctW7nrtZVGvwP95526s3QcjD7zDj+AEE4qd1kfjSAlVSRJZQDQxebu7n7kUfuE1F33D63PLehYvkq8nT87wNXBVGL/Rf2N90V45PgHc1cOXrjk5JWNyUkKRpJAMEQWqJO1JGStu9klT+wSL7MlEOdgyzFyGjantRqh/CObNtsnZOs/jWt5eXl7SVlbSZn4d+DMOagaBLZRcIgV3ttzybf8aHbRiA26WCCsbY2yxdpJGS2Q9PT2kcfVRqtCyEeAAsGQpOex5UieSF97WHAFpcFSADobkWFBCmTmvs/InmiUUnn99TYhWXrNtatfKGpd8XbrinXU79uUPJx+joGEbT672poof/hzfUl15Gcv7Ia2gwBsEOG+4sH6pl1w1ClBzMlQJDGyslfSYdmspMnYT8uxLWWLSjwk7Ne9WD2NUhrmzLFJSP53vqNp2h0TJja/WS6z9Z/uR8qwNuRCUvlBdGbJ0AyvDCRvbYvAGlBu+ZYTBZx4GxL45KEF03DXR8FlZgtMCiSapon1BIVp4WRru01CfnvddWCB53792x1/Dsbczo6EBJZjQjlEoFdndh2JzgsMPwBhIbnltgwUSQ5/Pvz9PlSyzd2UhcToSkjai7xhQrsXyGwJyYIELTcGDQVChb2lvrnXX083f9JP0t96cdn2VVXi7czJL0Alwc0eIClrwjO8MSFZvnVo5ldQOK22WVkwHezhSGK2l8VaTeB/bOZkQYJeXAFHNBJ2Fi6wHEaCV12V88Mfsm2fcXd2Y9nmxrJqwe+Zk2dBJXZ8BWX6i0taPo0+uZYzhRUTkn3HhoYG8YPEiBOvQgIvgYD1iYDGG+Q77T5fLveyCfweFYteKgRvEAvsyNXUwJ3WQXJt/NlPP9v0ta9Zg2TdmL/PvOEGulJaXvzswoa1tQ1rao1+T5+4EknEr+LkPlOMelCwK4akaPOVB4hkkiYvv8BoY/sX5IUFo/wknVxKbqfLq5CwYYR9qwl5MHlFBC48xH2UjexCNhAERHFL4L6JZRkSQdCja9+UbnGp7xbt1gen/Cs0lhUmTZxUvqK8fl19/TtfbSPlU5chiXmbv8O3HKhAghiSzl7ZB4isDpLWS7VIwt4tZAa4MFMscFZ3QsKdF6LxCEf03jVrrcWQmolTtpY3Tv/5DJYNOuXfHnq4bn3j1vLGunLmd33jiWNDkYS9LnQJQ9NlliD5fdDEckY7kHA5SUOG9souMr2mafKay3Rd2PKTG0mM/mkJtPrC2XMVY8ZYgGTL1Jm1FU11FU3ZP/8F22qU8vrS0tqKJpK/tmIHLZ849gUb3tHpliFpOSAbRriDFvlIwofEi89JuAMSC04MHsYK7NW1UL6DYxKij+Bi198/0wIhNbN/UxNqrQm1bgm1Zk/NYVuNUjLS74D8RCDn1oRaP/zwY5SZu2shkjxbbm45o/ORREHCEhKO6OwFTjwk3Bszdyj1f3VbLRBysHTVjm1d1Rs6yJY97R7U6tzZj6EUTdNyZz8Gp3wl7Kze0PHLh2ahzLfenjUhJx8lWoCkvttEGLEfSdhg4tWBOzI9eThtwY+5hLgEkua2draLz12rUvmDH5iCZOvYsUeqa8IR/fjJc5s2fXB565w27V5k1cLCP/p8c1FiRsZkv//tTZs6yVnkt7Dwjyibpml357Xah+SJv5gYjZCraTOSpA4k3Cldy58RYVFhL7kFAm12t8iiPVYTNOvQ8Ki5pb6NN910aucH0OTu/cc31uzZWLNnWvZ9qK7CF4vL1jakZ9yJ0tMz7iSnkN+ytQ0og6ZpE3Lyc/yD9iHZ2GkujDgSSRAnXo0k3K4IuVQ+X678QkbwFSSwVz0pkHDnkem1Kqd3dZqKIRt/9KP+w0dRY5v+t7eqrntq9v2o1fMXvl5V1z1/4esoXdO0p/5jQVVtd1Vdd1Vt99Tp+MRbb88i07s2IRl/WwZSVWbXfiQhtcAzkyFIvDgsgf83wl4/SPH5csk33mUsi/JAISAkCxL6W8CgDIzgK26+WR6Sxd/6Fnei/PP+ixsbPp06fSaUT4T5i96orD9Q+d7+WXOeRIfSJ9312opQZf2B11YM/zdjyHN3XqsjkPx4goLE3rf90MNBuEJcIS+/gHx8GsFgtMsWkixI6P8OR2uVl1/wwaLF8oSQVb1cSMIR/UDf2akzHqDL1zRt3uKVofc/Czb8rTTQmj7pLnR06owHQu9/9uOJP0XppKPlCCTp6QoSe5CQfwTHHZygy0bv+otLZNydPoXIMmch5OyPSaBAtnv5kxtvrPr61yUhgVW9RpCEI3rOfQ+hVs97pTS4/VDFtkPB7YfmvVKKjmqa9i8TMlEidLQcgSQjI5mQwMjEw90t4kDcKSB05dBuzAUsLpndorFkO10Lx46VJIRe1SuAZNZsHzLU80tWBXYcge1Xv/4dysDuQkcrNSAhnHgeEhoVU1GF+8AB7tzs5addFrKJBQcjCep0Pfj978sQsuHqq9GqXgEk7HTz86+Wvdty4t2W4+R35caPJt4xhbUMpNAdrRSExKNjd9ZHSWCRpEXACVx4EJIOCfyf4VtuvnnN1VfHhKTxppuempYN+hPBFCT5S9eUt51e33aa/JZuO3P/s+WoQNhFHS0FiQfe+BUvkodLa+T6kAEEo5wsqJDCDiTQIw7IyZ2sY2skna68a66JSUjL5Mn9h4+ywcEcJK+tW99xlmwLNly49/Jnqm/LxL0yYiLU0VKQeAAS2v8CwZBRbDH6R4RsfoF70XXRMguJUXWSkIQjeld5ICYhO2c+QNSwC8my9e/sGijedv7R1ZeI0+f4B6ctOgg3DhBuy/RBBlqw+Zwk6QP3EWOSlOlu0T6KZO6UMTxwQJkdgYT1UUEHj62RjSRDj5MnTBBDsuepp6EtrAIC1NnMef5AfuUwHuD9P32iAvAgAhxCgoLEY/EE+vToAnN9keMx+QXgfJICW4hNSPYtfllMyL7FL9O6sQqYgmT6M0Hk9LBLd7q4HS2SU0HiPUi4vRru6yXsO6jclYW0RyKZu56fWxc5MWYk+fyjvWJCekpXIR1sQvJ0kSEk0Oky6milJiSe63GR9X/ILWLusn7DdVx2/Y/Mu4F07eyARPxmWExI2qdlG0FS99WqXloB7nuCpiJJIBg6dja6uin64OvDH/6BYEI6XbDLFVItkngOEuLugquOPIbsor6WpmlcSLgxR/5zENwwYjT+IYqJIelZ+ZYRIWhVL91q9o4gMJcg85kL+rrWSO6bGJVpiw5y2YBEU5DMWYq/4Oi6gbu3VjrS3SH0hRTaS5DMjQ8oD+zSVQBaMnWxT8fJ6QIH5TIJg6WBYyfeM5j2JVO9oDMSBH6PcsqEnQuDenBn9JFVGBVAghVMQfJm1UdgZyK4FBJPxBP2STbpC4FXsR6AnljDxRDc3blExXzXXHAWVytIFESSzjkPc8MITPVCIUhwFhIofPOHkSfXcD6cZQeSR1ZFOnfvgevidkhczomRFxKzkpdJ6AW/Pb19gWCIdReSXzDdFI7o3GACFZF1+D29fc1t7eQ79ka1CDp14HlGkByprOISQk/1QiFIYPURRDNTmcMRvb4r+sw7MaKKfCSp6IgqSBybCjPqzBDfNfUrCCPgbazvmqqCZBY8QxRURALjtnHjWEjQVC8UggRTfm8qM1S0Y3/0+QrDqCIJyaw3Bs9d1BUkjkFCLg/3yaAp95VZC0w6aTY5ESxFAVczGpN0PfscSwg71UuXQ8um/N5UZrqWcERv/4z/zw0lIflL89D3UDwGiScG8RYWyQNFkoQQV7Dz7Xpxd452NRbF7hDuaG399rfJBxzoEwWyKb83lZlb6YeH9KLNI6KKDCT3LB883j/0IrsnIXH54IRcJwuoyHR+WCeI+U+CgEAimOKQG0kab7+dDiPbxo2jP+DAasimmPJ7U5nZuiDl46NR+J/rMpC82XjlUw8sJOInS1AjEthRq0y/GhUCu7quX3mfhIQOo184wbWC5JpfmQlccRv9xSWsMyE8yKvC4nLYoyiSPD7yH4K2Tr6T/YADWwhKYVV1cOCO6kK7PSf1PzVEZCDpPXWlK64gcXhMgi4Jvdvc1k6mm+B/Jtr/eApdPpHpKvzFJeQfNYrnoNlCjFK++GT/FurV3F0PPGiU0+XpR85ES/8avf/yP7JiJ4hz/IPL6kZ8nfH8xUtoS3oDUyeSJN2UzirQcc+90NHa+/S/O1t44ks7NaCvbYnMeoMzX9x91PRntRKsvywknhicJNh28auud3UZELLv5aL4VZTgkgfCeqAj+vCfh1FZtHFEGEmwPpLVmYAEhiuSRats1iwwcPpMw/e+RyCRn+q1VleyztrQGflN2dAk2K7exHXCLTfWCiQqqlg2t8yJux+bW52WZnaqV6Zkt+Wp2+v2jhaxmILEXXeyo9U11WlpFqZ63QZAKumjIHEXJNvHj7c21ZtKTumqtpBRhtRzEhiQ0IKrGpMCynw87wXvTvWmgP25TbALiRqccM1qLfFUe0cKTPVaa7trz4KQYD2SkCJc20JvKZZKU73esryRtkCIxTEJfb6KJ0ZWVunetQDycLuRBIrzrkWU5soCtAXApUFwDBJSIl2ZkpUFPGcBAIMWHIZEoeI5t1AKgwVoMGg5LpCogQrYXQlesQBNBZLjBQlU4xUbKT1HuQXAY1kh7pCoqDLKnc8rzWfZgJREQEIq84qxlJ6j0wKABCskDhKoe3ReA9VqN1sAnJMrJAES0MPNVlO6jR4LgEMaCcmEhNZp9FwS1VK3WYD2Q67sFkiQcm6zo9InhS2AfI/ddSkkrKIpfJFU05JoAdbT2BTPQEKrnkSbqqpTzAK0XxnJnoSE25gUu3iqOfG2ANeLuImpAwm3efE2tCrfoxbgeotRYopDYtRsSPfoNVZq27EAXH1JYbRDwprJjvXVuS63AHu5ZVIUJDJW4udxuUMkRj2+aS6nJkYBmVoESsocUpDIWMl6HplL6P481ttvfGYCWm1cubkjChJz9kpk7gS4EakikY3yYl3/D6UCbN8To9gaAAAAAElFTkSuQmCC;" parent="1" vertex="1">
                    <mxGeometry x="-607.31" y="-255" width="268" height="118" as="geometry"/>
                </mxCell>
                <mxCell id="72" value="" style="curved=1;endArrow=classic;html=1;rounded=0;edgeStyle=orthogonalEdgeStyle;entryX=0.554;entryY=0;entryDx=0;entryDy=0;entryPerimeter=0;" parent="1" source="62" target="56" edge="1">
                    <mxGeometry width="50" height="50" relative="1" as="geometry">
                        <mxPoint x="-299" y="-440" as="sourcePoint"/>
                        <mxPoint x="-133" y="-398" as="targetPoint"/>
                        <Array as="points">
                            <mxPoint x="-309" y="-430"/>
                            <mxPoint x="-459" y="-430"/>
                        </Array>
                    </mxGeometry>
                </mxCell>
                <mxCell id="76" value="" style="endArrow=classic;html=1;entryX=1;entryY=0.5;entryDx=0;entryDy=0;" parent="1" target="24" edge="1">
                    <mxGeometry width="50" height="50" relative="1" as="geometry">
                        <mxPoint x="-294" y="-770" as="sourcePoint"/>
                        <mxPoint x="-150" y="-1070" as="targetPoint"/>
                        <Array as="points">
                            <mxPoint x="-300" y="-1505"/>
                        </Array>
                    </mxGeometry>
                </mxCell>
                <mxCell id="77" value="" style="endArrow=classic;html=1;entryX=0;entryY=0.5;entryDx=0;entryDy=0;exitX=0.194;exitY=0.016;exitDx=0;exitDy=0;exitPerimeter=0;" parent="1" source="41" target="24" edge="1">
                    <mxGeometry width="50" height="50" relative="1" as="geometry">
                        <mxPoint x="-818" y="-707" as="sourcePoint"/>
                        <mxPoint x="-939" y="-1430" as="targetPoint"/>
                        <Array as="points">
                            <mxPoint x="-940" y="-1505"/>
                        </Array>
                    </mxGeometry>
                </mxCell>
                <mxCell id="82" value="" style="curved=1;endArrow=classic;html=1;rounded=0;edgeStyle=orthogonalEdgeStyle;" parent="1" target="62" edge="1">
                    <mxGeometry width="50" height="50" relative="1" as="geometry">
                        <mxPoint x="-540" y="-790" as="sourcePoint"/>
                        <mxPoint x="-569" y="-605" as="targetPoint"/>
                        <Array as="points">
                            <mxPoint x="-540" y="-605"/>
                        </Array>
                    </mxGeometry>
                </mxCell>
                <mxCell id="83" value="Topologies Cisco /&lt;br&gt;images reseau&lt;br&gt;Configuration Ansible&lt;br&gt;Tests auto (connectivité, routage, perf)" style="edgeLabel;html=1;align=center;verticalAlign=middle;resizable=0;points=[];" parent="82" vertex="1" connectable="0">
                    <mxGeometry x="0.2529" y="40" relative="1" as="geometry">
                        <mxPoint x="-210" y="-195" as="offset"/>
                    </mxGeometry>
                </mxCell>
                <mxCell id="84" value="" style="rounded=1;whiteSpace=wrap;html=1;fillColor=none;dashed=1;" vertex="1" parent="1">
                    <mxGeometry x="-210" y="-1310" width="160" height="110" as="geometry"/>
                </mxCell>
                <mxCell id="91" value="" style="endArrow=classic;startArrow=classic;html=1;exitX=0.997;exitY=0.298;exitDx=0;exitDy=0;exitPerimeter=0;entryX=0.5;entryY=0;entryDx=0;entryDy=0;" edge="1" parent="1" source="24" target="84">
                    <mxGeometry width="50" height="50" relative="1" as="geometry">
                        <mxPoint x="-150" y="-1470" as="sourcePoint"/>
                        <mxPoint x="-50" y="-1560" as="targetPoint"/>
                        <Array as="points">
                            <mxPoint x="-130" y="-1564"/>
                        </Array>
                    </mxGeometry>
                </mxCell>
                <mxCell id="93" value="" style="shape=image;verticalLabelPosition=bottom;labelBackgroundColor=default;verticalAlign=top;aspect=fixed;imageAspect=0;image=data:image/png,iVBORw0KGgoAAAANSUhEUgAAAIUAAAA+CAIAAACKtU/dAAAEUklEQVR4Ae2avWrjQBDH8xR6Edd+BzUu7x5hufLuBcSB3sEpVaYwCA4MaYQKH1hc6SqwjY/g1vVeMTAMu/rYHWvCXphgwljRfOz/tzOS5Tw5/clJgaecitFanPLIaxMoD+WRlwJ5VaP9oTzyUiCvarQ/lEdeCuRVjfaH8shLgbyq0f5QHnkpkFc12h/KIy8F8qpG++M/5HG31740x83ONu3dXh9cwa07YzQa6v31dPrynb7+fPtJT3DODaa61PvUGvrSeC8a9u35BZL+/dXR46Ftm3Yw1XGzO252h2J7KLZg96W51Ptbd04tLEwR1R+Xeg/pD8W2L82tO4eBIo8MpsJQx82Oer2/nvBPYHg8aBlJVLywh2JL8749v8AJUzxgA4VBRo88uGWTeUARg6lS94JtWtxWuBKqyyKPvjToCEbk4j2vJB5e0sFU0KO2aW/d+VLvL/Ue2h2zwCChS4u3mTxQjphMMO6wXGpQdwYPmBiLVGhGsGneqf7wyl7cgl4bXeo9zRJpP8QDxtd8o9AhM68LjwfEnJ+i83mneGBneHN1Xlm63nllRuM8ygOWOjrNb905HFCeNLSmR3jMU/GSxswrlDUJBiyH+qYiWYcHzg0oyOv0UA48si4PpOKpgOnQoHlH+wN3km1aenKkje6p9z6r8UAt6B0Urn/KoMt7vD9olr40SIUeB5vmHeWBLvTMeBtbZDBVvJdzcf9fgtGxyrUMWuu6PKDCwVS2acNqad6Qx91ewYUxrCDyrTtjATTXos3sD7jtw64MF+wd6Usjcb97qffwAc1Lt/iW6hLyQDX70tAz420k+kH9AVPVu8MbVeG42eEMDfnRFTL6AybS3V5TqdC8IQ/nHK4Fhx51WbRxoqTe9TL7g17lRjc+rMerRogHqJNEhQo6ygNLxc1EXRZtvFemQi168a8fYRpvh9LLKdaBi8Tdh39yzrH7gwaJadmY+1286hw3u9QWob60thh7hf7ANKDFYKqpPfUBPKCYRSpYs3NutD+cc1htEhKEcSi2UzrQ7J69Jg8vdPgWVyjXHzTpzAdSetoUj7u90oIXn5fYpsUxdSi24QihSafsz8wD1jxKhcoxxQPOoRLD8yF8nmibFp7Ae7Oa1xmQ7vPzgHXSmw7vU8U8D+fc4vTDdj8U29QbXLozYq/nd3uFvYC/Uy9xKApGAINW8/56+v31B32F33/A5x78Td1jbNjO3lh/e36BpFPff0BkeLoOj9a9r6SgY7ywMfWE50T1R+imR4QUUB5CwjLDKg+mcEJuykNIWGZY5cEUTshNeQgJywyrPJjCCbkpDyFhmWGVB1M4ITflISQsM6zyYAon5KY8hIRlhlUeTOGE3JSHkLDMsMqDKZyQm/IQEpYZVnkwhRNyUx5CwjLDKg+mcEJuykNIWGZY5cEUTshNeQgJywyrPJjCCbkpDyFhmWGVB1M4ITflISQsM6zyYAon5KY8hIRlhv0Hg31kJelWpb0AAAAASUVORK5CYII=;" vertex="1" parent="1">
                    <mxGeometry x="-191.5" y="-1290" width="133" height="62" as="geometry"/>
                </mxCell>
                <mxCell id="96" value="&lt;span style=&quot;font-size: 25px;&quot;&gt;&lt;b&gt;Stockage&lt;br&gt;PRA / DR&lt;/b&gt;&lt;/span&gt;&lt;div&gt;&lt;span style=&quot;font-size: 25px;&quot;&gt;&lt;b&gt;(sauvegarde des configurations / images routeur )&lt;/b&gt;&lt;/span&gt;&lt;/div&gt;" style="text;html=1;align=center;verticalAlign=middle;whiteSpace=wrap;rounded=0;" vertex="1" parent="1">
                    <mxGeometry x="-70" y="-1270" width="278.5" height="30" as="geometry"/>
                </mxCell>
                <mxCell id="98" value="&lt;span style=&quot;font-size: 25px;&quot;&gt;&lt;b&gt;Alerte manageur&lt;/b&gt;&lt;/span&gt;" style="text;html=1;align=center;verticalAlign=middle;whiteSpace=wrap;rounded=0;" vertex="1" parent="1">
                    <mxGeometry x="330" y="-900" width="280" height="30" as="geometry"/>
                </mxCell>
                <mxCell id="99" value="" style="rounded=1;whiteSpace=wrap;html=1;fillColor=none;dashed=1;" vertex="1" parent="1">
                    <mxGeometry x="-40" y="-1010" width="260" height="200" as="geometry"/>
                </mxCell>
                <mxCell id="100" value="" style="shape=image;verticalLabelPosition=bottom;labelBackgroundColor=default;verticalAlign=top;aspect=fixed;imageAspect=0;image=data:image/png,iVBORw0KGgoAAAANSUhEUgAAAm4AAADxCAIAAAD9Zaz7AAAgAElEQVR4AeydCXyTRf7/mx5JWyi0nIIgiJyFBa9l11VW1hX0pyguu+v+lR7clF5Am3IjKF4LKrIiiusBCq4gLIq0TdK76QXlLvcNhZYeaZo213P/d2aSp0/TpM3dFCevhzJ5Ms/1mXme9/Od+c53/Dj8wQpgBbACWAGsAFbABQX8XNgWb4oVwApgBbACWAGsAIdRiisBVgArgBXACmAFXFIAo9Ql+fDGWAGsAFYAK4AVwCjFdQArgBXACmAFsAIuKYBR6pJ8eGOsAFYAK4AVwApglOI6gBXACmAFsAJYAZcUwCh1ST68MVYAK4AVwApgBTBKcR3ACmAFsAJYAayASwpglLokH94YK4AVwApgBbACGKW4DmAFsAJYAawAVsAlBTBKXZIPb4wVwApgBbACWAGMUlwHsAJYAawAVgAr4JICGKUuyYc3xgpgBbACWAGsAEYprgNYAawAVgArgBVwSQGMUpfkwxtjBbACWAGsAFYAoxTXAawAVgArgBXACrikAEapS/LhjbECWAGsAFYAK4BRiusAVgArgBXACmAFXFIAo9Ql+fDGWAGsAFYAK4AVwCjFdQArgBXACmAFsAIuKYBR6pJ8eGOsAFYAK4AVwApglOI6gBXACmAFsAJYAZcUwCh1ST68MVYAK4AVwApgBTBKcR3ACmAFsAJYAayASwpglLokH94YK4AVwApgBbACGKW4DmAFsAJYAawAVsAlBTBKXZIPb4wVwApgBbACWAGMUlwHsAJYAawAVgAr4JICGKUuyYc3xgpgBbACWAGsAEYprgNYAawAVgArgBVwSQGMUpfkwxtjBbACWAGsAFYAoxTXAawAVgArgBXACrikAEapS/LhjbECWAGsAFYAK4BRiusAVgArgBXACmAFXFIAo9Ql+fDGWAGsAFYAK4AVwCjFdQArgBXACmAFsAIuKYBR6pJ8eGOsAFYAK4AVwApglOI6gBXACmAFsAJYAZcUwCh1ST68MVYAK4AVwApgBTBKcR3ACmAFsAJYAayASwp0RZSyHMe6dNFOb2zzsJ13Sk5fC94QK4AVwApgBdykQJdDKcOxNMeRHEdxHGtCG8uClSzjScSy4GgMyzEMx9HmBR2R5TiPHtpNRY13gxXACmAFsAKeUaDLodQsA8AnC6xTBjKUMa/39P/I/oToZCHSSU8fEe8fK4AVwApgBXxbgS6HUpYFVikgJ82wNAMtUxbQlGFsNr+6pwhYlqZacZMFpjFL8caxew6D94IVwApgBbACXUyBrodSI0erGLaS5i4Q3Gk9d4nkqliugeUIq8o70YlpYxOWI41svYqpvknfvEBcvkRcqWJvN3B3dZyaNbc0Wz0FvBIrgBXACmAF7m0FfBilLLA9KY6jGIrjGJLjbhLcwdvsv87S68p0Kwqa0vK0qTm6tDz9ykLdGyW6TScM/61kL2i5ZoajUfclw4L+U4fafqGBywIDl2BZIwe6R9k6qq6krmT3hZ0fH37rnbzlb+ZK12YtWatY8maO9P2CVR8VvbX3wu7zujPNtJoDTb7IWL23qw2+Oi8pQJKtGkK8dFR8GKwAVsBBBXwapSwLUKrnuEtG7rvLzMo89dLc5qQsY4KcBIuCSsxCC52YRSfl0EsLDMsLGz47S53QgK1AX6q5BdheWUwoBdsynLGOqMy6k/N+wXtrclNXZMdJZbNSMmNSM2OlgiVNHrsid8G7Rau2lW45qi7TcrXwHaCznIztvVCcz0MKsCyr1+ur4aeqqqq6CqWqq6uqq+AHfK+CizkPyFYNfjWth5vwmdVq8IqGP1gBbyqg0+lUKtVdwQdVUVRXhWlUUfnqyif4PFVVVWq1mqZpb56/94/lwyjlAAhVDPfTbXZtsXFprjYpW52YpY2XE/EyMl5GJchpsCjoRAWVoCATsonEHENijjY5V7uisOn7q0wtcrQF/kngY6+40JalOfpU47EPizaszl6Slj4/JT0mJTM6JT0qJT06NaMVTVMzo1Llr6Vmvr5MNntNVuKXxzffMF4hOSNjo8nZ3tPA+bqmAkajcefOnSNGjBg+fPgw1z4Pws/8+fMdqL1dUzR81r6mwKFDh8aPHz98+PAR5s/w4cMfcvYTExNTU1Pja9fo3vPxQZSa+ioZjrvFcP++SKcpieQ8MjFLHy83AGQq6HgZEy8HS4KCSciCfxVMgoJOkFPxciJBYUzMJpbmUx+eZM43cxTNo9RGLyivKKQtwzGNTIP85k8b8pZKM2JT02elpscClGbEgL/pMQClGTG8YZqaGZ2aOTMl4/XUzNelmTNXZM1/X7n2mPoYyVL8jnHi16OA0Wj85JNP/P39RSKRnzs+L730Ekbpr6f++MiV/uc//+nRo4dI8HGlLk+dOvXOnTs+cmkeOg0fQymAGRgwyrHcbYr7+LRuaR5oyDVbokwCwqfCzFEFk5gFFsBUOQMQC5cEBZOYzSRnE+8dYU5pWIbhR53ask3hepYjaWMTe2f/xa/eyEpKk82WZsRKM2alZs5OyZiVkj4rJSMWcRSgVBYLlszYVLDEAKBmgEWaGbtMPvftwuWl2nySM9A06HB1rL/WQ0WNd+sVBQiC2Lp1q7s46ufn9/LLL2OUeqXo8EFaFPjhhx969uwpIKlL74UYpS3KeikFuhlZhiPrKO7zCiI5SwfRSMfLyEWZAJM8SgE7gUlKm7pLgUkKrVVE00yYU25MUhg2HddfJ1HHqc2LgGNUAfK0nDrj8t43MuLS0udIM2ejJTVzdmrGLLi0QSkEKkSp2VoF9AXLe0XLTqmOgEMCYxhbqDbFv8d+IEny008/deUV3mJbjNJ7rIZ0icvZs2dPeHg4Rqn9heVbVikKI9TMcLuvUEvzjYsymbgM1JZrxqS8NU1bUErBBl74q4xJAD2pRILcmJBFLClo/vx8YwMkWjvOvCzwbzKWq0rXZ0nTDs2WpgOOpsoENM2cBRp1M8w+R8gqRSiVxaZCCxVlAO3Av0RL02d/UPDmHV0NPCj2w7S/TnbtnCRJbtu2zQKHrnzFKO3aFaJrnv2ePXsiIiIwSu0vPd9CKYxdxJU2catKmxMVxkXpRDzo/jS33KL+UXMbb4tVqqCg5xGNmnkT5ExiNpGYrQc0zWYSc4jUvEZZDRjawoKYf9Y+MHpRJVP9UekmqWJuqny2NAOiVG5CqdlCNXM0E7buCmiKGnsRSlPTY1IORaccilmWuei7iu+NjNFWs7K1U8HrurYCGKVdu/zw2UMFMEodrQi+hlJaTXMfn6IW5xEJCuCpm6CgTJ2gyB4V/lUA912QAeSB3rzgLwPdeqmELCJBTkHcMsm5zMYTujugmdeGPixnZKmsStnK7EWpsqhUWWxqBuwElaGuUPhV0FGKnHhhL6k5Q2ZL2y/4FXknyWLX5qSc05/Dzbs2dL8HV2OU3oOF+mu6JDTe4YcffggPD3elNUW47dSpU6uqqu5tFX0LpSxHFNeyy/LJRABC0hKQLbzkwdkWpYKfTPmZxCw6rUAnv8WCWPRWPwx3R1f9gfIdKfAnikqVxZi6P4E/EVyg1y7vc9RxAqJUqohZnjnvq9P/1nN6xwbkWD1JvLIrKIBR2hVKCZ+jTQU8gdLnnnsOo9Sm4p74wcAxX5xnknOY1oZmWzo6sAaOmSGT86iPT5Bq2rphyjBk+Z2yVfLF0kPRcHCLmaBOoxSMPY2RKmLTMmLfLVpTRV5nGAb7YXqizvjaPjFKfa1E8Pk4pABGqUNy8Zl9yyqtorm3ynVJubBhFjXVWrVEHVsJfH2TcqlVRbqTjS04g9PKmBp8dbTmh+M7lh9aIP0lyp0olcdK5dGr5XHFd+QYpXydu7cTGKX3dvne81eHUepcEfsWSssb2BWFTGI2mZCFfIgcsD4FrcGCrUz9qYCmqQXkoVrWHPWegS5IJpRWU3c+UL65LHOuNDO6pXXX0UbdNvmBF5IsKi0j9oerX1AU1YJx58oKb9UVFMAo7QqlhM/RpgIYpTalafcH30KpvIpNAa27RGK2wT1tvAoaUTlexizOJXfdYkFsXqAILUTpNf2Vt/NXSDPmSGUxgKbO9Y9aQSnYW5osZnP5eoIiGfuDF7ZbZvhHX1YAo9SXSwefW4cKYJR2KJHVDD6EUpZh915nFmejyH+GhCyhX67A0HSodddslcbLmOQc4psrlNYaSi83X1yXnZpyaDYMWhTVsVdRG2pa3USaCVAqzYx+r3CF1qBnbDoQWy0avLJLKoBR2iWLDZ+0WQGMUrMSjv3vQyhlGOb7W9TiXCJBTiRmG92IUjAyNZNJzjZ+flbfbHLiZeD8LaYG3otNF9bIl6SkewSlqRnRb2Yv1ei0GKWO1c2umRujtGuWGz5rkwIYpc5VBR9CKcuw/6lkF+cwYDxoNope5Kwx2mK5gvhHMMgDlZxt2FahM6MUzMDGS3ZBc36NYklq5pxUWTSY6cU+o9OObMAklWZGr1Ms0Ri0MA4EqKj8cXHi3lMAo/TeK9Nf1RVhlDpX3D6EUo7j9leyi7NhqHrgduQ6R1HEBjNKcwzbzvBWaSugXdCcX61YIpXNdTdKo6QgwH3MuqwlGqOOhsGcMEqdq6ldZSuM0q5SUvg8rSqAUWpVlg5X+hZKs2vYlBwDCFuPwhi1GJdOYxVxlImXEck5hm0VBoFV2iLOBc251fIlUtk8z6G0kQAoBdWUwVZpi/L3Xgqj9N4r01/VFWGUOlfcvoXSU3puTSkJgyrA2bzdjdJPzxBmlAqadzkOoFSRLJXPAVEDM2fa0XJrmgemo5xRoIFXFrMuewlGqXMVtMtthVHa5YoMn7BQAYxSoRr2p30LpSqW23hMn5TDJGTTCVnCwIHusUoBSs0B7YW24QXN2TWKJKl8dqoMzODdESDt4KgpTBKIndQKpQzL0sIj219SOGfXUACjtGuUEz5LGwpglNoQpoPVvoVSmmX33GCX5FNwMKg7BsOYfI5MDbztojQhTR6bKnstNfM1d6JUFi2Vx6zLAX2lwO0Io7SDCtnlf8Yo7fJF+Ou+AIxS58rft1DK0vQZPbfusAFMmuaewIGt+koxSp2rJXgr+xXAKLVfK5zTBxXAKHWuUHwLpQxHa1lu11V2SR4I9Wc9FqBjHah2o1SemCab5ZEGXjnsK4UevNgqda6adqGtMEq7UGHhU22rAEZpW03sWeNbKKU5juK4qzrurSNUUg6iIB2fScVnUmCwqWMQRd2rdqPU1Fc60z19pXBmGBgZH/eV2lMP7508GKX3Tln+Kq8Eo9S5YvctlLIcR3OskePy6tllRQZomIKQvAkKY4LCOS8kO1HKe/DOdKcHLwjn24JSCg+Gca6SdqmtMEq7VHHhk7VUAKPUUhH7vvsWSjkQzY9hOLaJ4366w6YpdYnZRrQ4G7HBfpQulso9EKIBRDsCIRoaCR1GqX11smvnwijt2uX3qz97jFLnqoCPoRSM9jSNFannuAO3meVKXVKOISGLcKp1F0Q7glEDeQ9eo3lcqUW0I2SVzvXouFKMUufqaNfaCqO0a5UXPlsLBTBKLQSx86sPodQ0F7cZpgzHaWgut4ZdV6pLytYnyA2gpTcLuCOBGA6g35RIkJPxMjpeBnkJVsJFAV2WgNcS77hExcuIpBzq0woSopSBk6y1SITHlbZogVOuKYBR6pp+eOtOVgCj1LkC8CGUWl4Ay7EMR3DcJR23/TSxooBYnMMkZvMoZeCEphRAaSYDaAqBCvDZBqXIME3KZj6tYJqB0Qvcm1qHsz+7RuHZcaWN2IPXsoDvze8Ypfdmuf5qrgqj1Lmi9l2UmqduAchTU9yxBvabc8a1xYaUfCY5h0nIohJz6EQwgQyZoCATFVRiFpWUTSflMMm5piUpl0nKpZNz6aQcOjGLSs5lYOBAlgVuwpQw5hC0SjFKnatCeKtWCmCUtpIDf+lqCmCUOldivotSBsyjgjpOAVVJjmtguasGrqSBPXCT+Oqc5rNzus/OEZ+dIT87Q312htxWQX5aQWytMAqXTysMn1YYtlboPzml/fS0Tnab0AOdaCsNvHhcqXM1CG/VWgGM0tZ64G9dTAGMUucKzEdRygo4CrEHplNBdiTNcQaO0zBcA8OpGE5Fc/U0V09xdXCppbg62rSA9ealDiaaIUXhnlrNzyLoK3XTuFIbMXg5HDjQuXradbbCKO06ZYXP1IoCGKVWRLFjlY+i1I4zt5YF8VbYdAtyIS4jK7dlK57NXKuZYfC40haJcMoJBTBKnRANb+I7CmCUOlcW9xZKbWpgnbF8djjJGhxXKo9OzYxyQzj7DDR7DJxkLRMEDlSTOhKHaOAVv3cTGKX3btn+Kq4Mo9S5Yr63UGppj1powhuilvnOg/lKl0jl81LdjtIMU4gGhFKGZblWTcsWZ+joV/6KHN0Q5/eUAhilnlIW79crCmCUOiez0yiFMf6AKyyIdYAaT5GXkPDpzv9kYRW6aT0LQ/aSYOoyBoycMUd3aEcKdCL8mZpydgGUmhQE/0EaA1csmGDauVr8k/cVwCj1vub4iG5UAKPUOTFdQSkPRJrhaJoDfxmOZqF/rNlL1rTSM+spDow7JUy+RHYJgM6ZNtMfAYrzYZTCM0TcBH8Z+OoC3l1Iu64XZ/K2Ahil3lYcH8+tCmCUOienkyhlaIZlWuwhBCgTlwQnYms9Z3bQtWxptb0e7dwiPw9GmgXTlwED2SKH4GRgEhnTPEpNlqwHUWoOZ68mnYzBC+hJsSwD8AkaAeClMhxLW17ar/E7TZtkYFmWYUAV4FWw+Mqv93TinkSpUFhPC3iv7p9lWb66dniNNN2qMneY340ZMEqdE9NJlNI0rWa4GwbuTBN3uIEtVbNljezhRvawGixH1OyRBrActlgPV6L1bTNbyd/RfsqauNJm7qSWu0aC4TEgED5s97QNVO+i1PWZYViOYZgGpvay+uJp9bkTzefONJw7pzp7q/m6hqtnBG8zqPjv7UceRVFarValUl29evXIkSMKheLHH3/csWPHv/71r48//ngz/Gzfvn3Xrl379+/Pzs4+fPjwhQsXqqqqGhsb9Xq9/Q8y5+4ltNW9h1KapvV6vVarvXnz5rFjx/Lz8w8cOPDtt99+Bz87d+7cv3+/QqE4evTozZs3VSqVXq9vWzNdkfQe2JZlWYPBoFarKysrjx07lpeXl56evlvw2bVr14EDB/Lz88vLy69evVpfX6/Var1TYy3kxSi1EMTOrx2gFJl5oOWWJcCwEgYQ62gDu/sy/cEJ/fqSptVK/UoltUJJwoVaAdJwKWyzxpTNnIHP2UGCXKEkrC4rlcTKYuPKEt2aEu1bhw0fHNPvu8Ge1nKNsKGZZUhk4rbYKUASb6HU8XGlJosaWNcUx3EEQ9aS1aVVeT+c/nLb0fffy1v1Tv7qd5Rr3lW+8Z5y3aaiDZ8f3/zj+W/La5VqqppjDTQoHYqlOLi1naXvo9mETxCGYZqami5evHjgwIENGza8/vrrU6ZMeeyxxx566KFBgwb17ds3PDy8e/fu3cyfnj179urVq1+/foMGDRo2bNi4ceN+//vfv/DCC7Nnz96wYcPu3bvLy8tra2ubm5vRUdxuvHZ1lEJBwAscSZL19fVlZWWfffZZfHz8iy+++Nhjj40YMeKBBx7o379/r169IuCHV3vkyJETJkx47rnn5s+fv2XLluzs7KqqKqPRiCoZ0rmdVz2WZSmKommacdOHhf59CAzer+jocrRabWVlpUwm++ijjxYsWDB16tTf/va3I0aMGDJkyMCBA3u3/tx3332DBw8eNmzYhAkTJk2a9I9//GPt2rW7du06e/asRqMhCPAE9sKnC6EUVRaCIAULAdMWf9FXkgAf/m/brfifQDaSJCmKaqfGWpRFBygFuWErKsmyGo5V1rHbTtFriunkbCYxm0rMIhKzSJhgErM8s2TTifYs8OiLs5nVSuPWM1RZE9cEmkMpU9diy0V3BkrlYDBMqxi8rfGOzs7Ugg1azUkVdzej8uDHRe+tzU5aJp+VJo+RZkRLM2KlmbFS2RypfI5UPi9NMXtZTsz6/KTPyz4oqJI3MXU0awQovSdaflmWVavVJSUlGzdunD59emRk5IABA0JDQwMCAkQikZ/jn8DAwG7duvXu3fuhhx6aNGlSbGzspk0fZGdn19TUGI1GNz5wuzpKKYqqqak59MuhZcuWTZ48ediwYT179hSLxf7wI2r34+fnJxKJAgMDw8LChgwZ8oc//CE+Pn7fvn3V1dUGg4Gm6XYeTDdu3HjnnXeWLVuW5vJHKpW+++67lZWV4OkFPy0PAK+kNBpNaWnpRx999Nprrz388MMDBw7s3r27RCJxqOoGBgaGhob27t17zJgxU6dOlUqlv/zyS01NjaeZ2lVQytDM9evXV69enSr4pKSkSKVSwQqQtFiZkpIizCCVSi0yoE3SpGnvvfeeXg/j49lRbexAKfQpukZw/75oTFMak7KMCXISRI3PIsCioOBCg/lEPbJQCVmkaTEdS7Cm5ScwnxqMZQ+C7q4sIXddZW9SHAloSppafU1yWLgbg7Xu7ysVWqUQpRqjDnTM0ixLCwPpC4oIdPdRelJ3suHY1iPvrlUuSpXNWpoenZIenZoRnZoRlZoOxqqmZMxKyZyVkjknNTMmRfb/UjNfk2bErs1N+vLI5ovqcwwDXZMEe+1CSdQqaDAYrl69+vnnn0+fPv2hhx7q1q1bQECA4+i03IJ/iqEEIusDDzzw1FNPpaampqenV1VVkSTZzrPeTiW7IkqRgW40Gs+ePfvee+9Nnjz5/vvvt3hx4RlqqWzr73w2kUgUEBAgkUj69+//1FNPvfHGG0ePHm1ububbfi2kLi8vj4yMFIvFEnd8Ro4ceeLECYtD2FmCTmRDByII4uzZs//6179efPHF4cOHh4WF+fv78/II0/zKDhO8nsHBwQMGDJg4caJUKs3Ly9NoNOhFwYmzbX+TLoFSlmXv3LkTFRUVFhYmhh931JqWfYSEhPTr1+8///kPRYE2Qns+HaOU4LjDGu6do8ySPAbEjpcT4G+WmWc8PsGsZ3Dh17iaQJA2HyiLNDNbsKYFpVSC3DTbGiB6Fr00n958kjin44wsZfZ7RYIgX6VWQ2e8h1IUOLC1VYq+scAXmcy4nP523srUX2JT5LOXZs5KSY+xQGlqRmxqZmxKxuwU8DcaLOlRKenR0kNzPih5W1lZRLXpQLWnHvhCHoPBcO7cuTfffPPRRx/t2bNnYGBghw8a1zOIRCKxWDxgwIAnn3zyjTfeKCws1Gq1rjyCuyJKCSNx4sSJ1NTUcePG8QDgH+JIZPTVOcH9/f1DQ0NHjhy5dOnS8vJyvV5vMhYFN0J5efnIkSOd23/brR4c+uCxY8dcKUf77wiWZZubmwsLCxctWjRq1KiwsLC2L3/8m1zbU3V0jVgsvv/++6dPn75jx46qqir7z9POnL6PUpZlVSqVVCrt1q2bo+rZk18kEoWFhW3atAlVVDt1s45Sk2kD2wqVKnZdCZGUSydkMfEyOkFOWbE+TXOF2kNTMyCBiSk0ZNHkaLSZlyiB8MlvwucXzKQGplQD69FMahDnJPiroJOyjO8cY8rUrIkuLf69LSkkk2dRKoMNvIQOdmcCV2OhVxQEO0tzlJ7T7bu+Z41iaWrm7JRDsUsz5qSAJTYFBE5Chin6G5MKTF4I1MzYlMyYFGCqRqUcik6Tz16fI82tlxGcFlwXGGvb4mVtZ4XolGwEQdy4cWPDhg0PP/xwt27d+OeOxdPcntvA6TwikSg4OHjYsGF/+9vfDh061NDQIOyytV+WroVSmqavXr26fv36cePGBQcHW6jH688nLDI4+jU4ODgyMvKtt96qrKwkCEKIui6HUoQcvV6fk5Mzc+bMBx54ICgoyKogrryFWN2hn5+fv79/RETEpEmTtm/f7l6g+jhKWZZtamravHlzRESELXFcXN+tWzepVKrVwqeo3Xe+TZRyDMfQxCkNvVZJxGc2xcv18XIS4EpOx5usTzP8wFfT5Numn3gLtW0CEBRMiwYNXGBKmhfzTN18K64ppzAPyswfSzjjN/qJ3zk0UuV0UjbzzhHykhaOxgRvBtatdfejFAUOFHjw8tGOhI8PWEwUDNCvl107uDp/UUp6bEr6rNQMfoEBCNNjYOtuFGjmRViFe05t+RsF4x1GLT30+vrihMN1So6DYSvMY0Xsrg+dkLGxsfG///3vM8880yOsB38P8M9uTzyG+KNYTQQGBg4YMODVV189ePCgWq12VJGuglKSJJuamr777rtHH300ODi4rSGFOj49URA9evR45pln5HK5sCOqy6GUYZijR48uXLhw0KBBtiCKKphH63DPnj2nTJmyZ89ejUbTfm+0nTXZx1FqNBr37ds3aNAgqzev6yslEkl0dHRNTY2dcvHZrKMU9NbTXJWRe/9oQ2KWNkGuj5fp4uU62EsqgJ/C1EOJLEIEWjMa+WytE3ah1MxaQFwhShFubaBUuGfTViBncjb52RljPfSK5TiTPyF//SjhKZRmWMbgBW5QgrGP0MdYa+Do0w0n1+UuTkmPXXoI9Ia2i1II1BaIRrcANSNq6aGZKelR7xe+UWm4ASNR+bRVytDMjRs3li5dOmDAgLbNuRYPcW9+9ff3DwoKGjBgQHR0dHFxscFgQPUEPWUsKo/F166C0gsXLsybN69Pnz58G0Dbx1BbzdvmcW6Nv7//Qw899MknnzQ2NiIBuxBKGYa5e/fuxo0bR48eLZFIkI3Yjg4eRSl64+nTp89rr7125MgRirRuLVjU0na++jJKGYYpLi4eM2ZMO5W2nYLo8KegoKA///nPV65caUcfWz/ZQClLMRy35yqbkqtLyKLiZUSCvDkxV5OgINqQEoJNxsSjBdqs7dmmQuDJ22KSb9fladoqD6S1YyhNyKJScpvSK0kSBAiyHiPIgyi1iMHbGqUsxxKcVs3VfHJ4Y1pGFDRJYwUcnaUT5KQAACAASURBVGUKrN/KKrWN0szolPSZKekzV2Qt+Or0Dj1ndGe4X1s1yNn1FEWVlpa98MILyL2lbS1v+xz3/hqJRDJq1Ki33367urraTndQ30ep0WiUy+WPP/64WCxuK7twTVvBhb+6nu7Tp8/atWtVKhXHceXlR7tEXylBEAUFBVOmTAkLC7Mw3G0J4mmUouOKxeLIyMgtW7bU19e7Yp76LEoZhjlz5swTTzzhnAOXrdLh1/v7+0+YMOHkyZO8Z5xDzzYbKOW4qyS3UskkyHSwG5JKUBgTcwywVba1lWnqJQX2IuJcG9Za5EewhN2fLa27yLo15wS4NS+WeUyGqclft+XocFvLreBZKZjEHOPbRxuvkhwLZhC38vEeSoGbrsDXguOaOH32jV/W5MRLZVGwZzQWOBa1LGiGGfS3dY9pBuo0Nf81zUUD8qTJZ6/IWnqq7qQBDmVqbQdbuXzvrzIajZmZmY888gj/NPfQayZ/nzidEIlEoaGh06ZNKy8vJwiiw/GRPo7Spqamf/3rXw888ICPCB4REbFixYra2loft0oRYDQazZYtW4YNG2a1PdzpOuaWDVGB9urVKzo6+ty5c8719PPviz/88EN4eLhbTszPz++5555zvUP31q1bf/nLX/gnhrvODe1HJBINHTo0Pz/fOY5yHGcdpTTHfXeFTcoi4zO1Jj8gE9JMNqINuxPQFELODMVWIOyklQCldKpS/9MdkgbR96x8vI1S0xhS0I6uous/LH03DbrjumtyN2nGHGn63H+f2K7jSBhPsRW8rVy/d1eRJLl///7hw4d76O3SvfcY2ltgYOCjjz565cqVDu80X0ZpfX396tWr3fiIdIvUvXv33rhxY35+/qhRo9yyQz8/P7d78FIUdePGjTmz5/iaehaKob6Jxx9/PDs7m4+P4dD97ZtWaW1tbUJCQkhIiMX1uuVrQEBA//79Dxw44MqYXesobaC51YVMfCa1KN0IrEzQJ9pq6UoolROJCiYph/nolBY0JFn7wPlK4SRrMnfPVypo4IWdl2YPXkhThqVOVZesyEpMBX2c0e5CaWr6XOmh2esKV97RXQfRe33pQ5Lkzz//PHz4cB+xiuy8FcVi8fDhw+1xRvBNlNI0XV9fv3DhwtDQUDsv2ZvZBg0atHbt2hEjRrirVrgRpSh27unTp//0pz+1717kTcXaOZZIJPL39x86dOi///1vnU6H0Ij+2vMk8DWUsizb2Nj47rvv9uzZs52rdvonkUjUs2fPbdu2GQwGVxrwrKP0uJpdomAWZTKL0qGV2QalFmQ1f/U9kxS8AVAJciYpm1lTbDihbYl3L7TUAErlS6SyealuR6k5nH0jIQhnbz42wRh+OL5demhWSvrr7kRpxry0X2KXy+MKbmXSvhRIkGGYoqKi8ePH+2D7WPu3Ymho6OLFizs0SUGoKpLctm1b+3tz6NeXX37ZlTscPT1ra2vj4uLaDndx6Ew8l1kkEvXr1w/1PrrlKG5EqdFoLC4unjhxYpfgKK+eSCQaMGDAe++9xwdzsLMW+RpKdTrdrl27+vfvz1+aexOhoaHr1q1rbm625z2jnTzWUbrvNrs4mwSeROZRm63GgLayUBkTR1u52rYyYc2g7cSVIKhhagF5SNXSWQpHd5qY1gqlYMCJsIfSqbQw2pFgXCnHtOorbaI0m0pXLpfFpmS8ngJGuTh1rFZbwX7WzLnSzFnLZPO/vbCVYKw7LbdTJzz3040bN5555pmu9UhCriX9+vU7fPiwPcr4IErVavXixYvRgF13mX3ufZy5fW9uQSnLssjJ6De/+U2Xe/lDkkZERKxdu1atVtvzFoiqt0+h1GAw5OTkjB492kP1NiQkJCYmpr6+3p5bu/081lG6+TSTlG2Il9GJWQZBzAQ+QoKwyddsiVq6/HQiONscWgEcjBfnkd/eYvVmu5QF/aZmlDaeW4Os0kwYoq8VnJzCG49SWbRUHrMuZ4nGKAjRgLyBOK6BUL2hjJPKolMyZroJpXAgTeacVMUsqXzeprJVBtreGJLtVxTXf9VoNImJiR4KUOL2Z7Fwh4GBgVOmTNHpdPaI4Gso/d9InnXr1vXoYRqz66FHklAuX0i7BaUURSmVyjFjxvCeur5waY6eQ69evdauXdvU1GRP7fUptyOapo8dO/bYY4956D1GIpFMmzYNxWq2U5x2sllH6ZulTYnZugQZnaAw2kYpgGiLnxFAKQq80IZkraxYr/8KYiEBlCblGL68YtCZ+dkapefXyJZIM+eCMZpusQ5NKI1JlcVI5bHrcpY2GWAMXrNVihyPVET96rz5IFZRRhQ8tFPYbgV+gFJp5myAUtncDflSvW+glKKovXv3Dhw4sCs+ysPDw7/77rt27iLhTz6FUpqmv/766/DwcCS7pwe3OPqU91x+11FKkuSxY8cQRz13nl7Ys0gkioiI+N9UAcKAGMIaa5H2EauUYZgrV648//zzbUecu0U0sVj8u9/97vz58/ZH2bUQyuKrdZSuLVEnZOkTZEyCjGjVtMuH+gN05Ee/wDZe30UphVCanENsv6jTshwajdIWpWkgRjwKJ+Qy0hBKM2JSZbGp8th12SlNei3AJ206PI/SVXnzIEdBMAd3NPAiq3S2VBGbKpu7IW+ZgTaFF7AoeC9/vXXr1uTJk7tc0y66aUeMGHHnzp1WoTVsy+dTKC0oKBg0aBD/MMIotV1urX5hGObs2bMTJ070kD3kFhg4tJOIiIgvv/zSHpr6AkoZhrl9+/bcuXM91LsfEBAwYsSI8vJy+9u9W9UPa1+so/SNEq0p1q7cFOG2FVBNViZq2jX3lYLYvG1Hi3rdBm1rASvIxCzgeZScy3x9hTLQPEpb9DivOb9KsSRNNhugNNNljgIzEfZZpkOUyma9lZOm0TUzYIYaYBSDygrmfmXrjfWrcufBcIDuskrhcWWzpZkxqfI56wuXG5jORylBEFu3bvXxUQS2HkzBwcGLFy+2f8y7L6AUToXEVlZWTpo0KSgoCA06asvRrthCYKuYLNa7YpWiYEYvv/zyPcNRJM7AgQPlcrnB0IHzROeiFB1do9GsXr0a9Uq4vZaKRKLBgwf/9NNP7rJHEUiso3TTCSohE7jqJAC3I0jTtojqKmsASo0JcmZxLvPdFZokTTHekV2IVLikvbwub5kUxIiPSpG5jlIYsSh9Vmp6TIosNk0+56OSNw1ESw1G1YVh2Xpj3aq8+amZ0e5r4IUnnzk7LT06VT77vcPrjWzLcVveHbybunnz5u9///su+mACDkdldjkcIVF9AaUcx+n1+qVLl4rFYqsE5VdaEOie+eoKSpuamhITEz00hLFzFX744Yc7jN7Q6ShtbGz8/PPP+/bt64kuauQrvmPHDucG3bbz4LSO0p1X2IRM0MWYyHvwdhVwtj1PBZmoMCYqyORs/f7rJGVt+uHbhlvv569JSQdB4VNksS43tJqD/2XGpshnLVcs+PeJDymmZUpu2GHKIpSuzpsvdTdKpRmz0zKi0hRztx39EIZLbKcCeOOnb775xo1jwtC0aPfdd9/48eOff/75V1999fXXZ7722muvvvrqtGnTnnjiicjIyIEDB6IJqwMDA9EwO+ceYYGBgc8884ydDke+g1KWZQ8ePNinTx/nrvoe2MpplBoMhr179/K9y/eAFMJLCAoKevXVV+vr69sZGNOJKGUYxmAwHDhw4IEHHhCethvTPXr0+Oc//+norC/2PCWtozS7nl2SyyTImESfHuJiZ+sxlSg3Jmbp0pRapcp6FWqga7Yf2QQaRWVuaeAFKAVzdMtnpShmrVIsOnR7t6kwoMswmP2M8yRK02PTMmcuU8w7cOk7ysZkOPZUDrfkaWpqmj59Ot9d58pdIRKJwsPDn3766ffffz83N/f8+fO3b99WqVSNjY1qtbqhoaGmpub69esVFRVFRUX79u374IMPZs2a9eSTTw4ePDg0NNSJlqKePXt+9dVX1iuNDXV8wSqtqqryXKhSV0rQa9s6h1KKoo4fP47ihzhRW7x2da4cKDQ0dPPmze049HYiSkmSKiwsHDdunIdasIKDg5OTk1UqFeqvcei+tnG7t6y2jtLrRm6ZEjgWJeaQlqGO7A3XYCfnPJ8NGtZJOYa3juiuEy1XLkwRnCHj2oGVOQtAiAaZO8aVogm65bNS5THrcuMrdMdNh/MOSjOjpIrXV+XOqag7wdiIlSi8fI+mT506NXz4cFdufrRtYGDg2LFjv/jii2vXrhmNRhDMmEFREcG9z1+CcD1JkhqN5vr164WFhdu3b581a9aECRP4qa07PCWRSDRy5MiqqiqHfBM6F6UoNM/mzZs9FKq0Q9F8JIMTKGVZtr6+/m9/+1tAQADfAH5PAnXgwIHHjx+31VPYWSilabqiomLy5Mluee1uWw+DgoKmT5+O5qVAjw7+oeGWhHWUEjS76TSTlMUk5rTpKG3lxOt5ELZtsHV0jQJMWr44l9pxmW1uaWRtpR7DsZcMl9bnpaXKZrkJpajPEoyE2Vi0soE2T3vpHZTKZkrlURtL05ppx2avbSWKm77s2LHDdYcjsVj81FNPKZVKPigJ8qxBt70QpfzAOIvTNxqNjY2NZ8+e/f77/8TGxg4fPrxDOzUkJCQ5OZmGH4u9tfO1c1HKcdyFCxcefPDBto+SX9UaJ1BqMBh27tyJxj3f2ygNCAj4y1/+AibkaXkFbanRnYXSmzdv/uMf//DQK2BAQMCTTz5pTwztFiEcTFlHKc0yOdVsSoEB+ByBCPXm6b5RPN4uRlNjgpxYVcQcVoOhKFY/LMc2MPXfnvhKKoOGaauRmi54IR2KWpG1ILPyF4ZvZfUKSpdmzlyWPiv96l6Ks2GGW1XBAytJkpw7dy6a09HpR7lIJBo3blxRURE/MYvpTJHnWNsybbsGboCMS5IkVSpVeXn5Bx98MHny5N69e9t6C+7Xr19ZWRl6stivTeeilKKolStXen/QUUBAgBh+JBIJsuQQjZwudBc3dBSlLAscnseNG8cfl6cpv8YtCeRN7W/+iMViCfwEBQV5xwJGR+ndu3dWVpbFOyhfyVmW9fLMMPX19cuWLQsLC/OECBKJZOzYscePH3eoeYlXw86EdZRSHKmmuH8eB1Hg4fhRgfXJc7SLtPTGy8nkHOKLC6yKBF2UNj40w5GnVRXrc6Up8lgwHgYNiUl3kKMtA2lA1KRlsqh/Fq2+Q95tOahHUQqODkJMSLNnbyxadld309b8rC3n4+FUY2PjpEmTXLw9goODN2zYoNfrrdqgjl4Bj0a9Xn/t2rVdu3b9/e9/79Wrl8WDEjkcNTc38/ntPFDnovT8+fNDhgxxUXALKax+9ff3DwkJGTVq1LPPPjtnzpzVq1e///77W7Zs+fjjj998882kpKR//OMfjz/++MCBAz00NNDqWfErHUWpTqfbuHGjxUuVJ94GevbsOXLkSCTaihUrPvzwwy3ws2HDhuTk5FdeeWX8+PHh4eEWZ8Jfl4sJkUgkkUhGjBixbt26W7du+QhKm5ubN27cGBER4QnBUWT/vLw8j3LU5iRrLJwiu7yalRaSYEgMGDOKphRtPczU0bZWb+Xn5yEHJrXCuLZIf7qZI5G3jznaEWgJNC8cR3Mc28zo95z/bkX2/LSMaCmIax+desg5lAKOSjOj38hPyKvKgo3KtPBg6LhoXOnq/AUwOIPL40oB/uFxM6JXZSfkVqczNMnx1rCdHHB3tsrKStfjxQwYMCA7O5vnqK37385z5/eD8pMkWVNT89NPP/31r3/t06cPfzNHRER8/fXX4PazYePaOlwnopSm6fXr1yP7hjeq+Cty8SnMbx4aGjpmzJj58+d/++23R48erays1Gg0BoOBhJ//mcUEQWi12rq6ukuXLmVlZX388cd//etfBw0a5KG2O/7EhAmHUMowzOXLlx966CHhHtwyEoN/pwkJCRk9evSCBQt27dqFRGtsbNTr9SRJUvBDkqTBYKirqzt//vzPP/+8evXqSZMmIbpYnJXTXwMCAgYPHpyQkFBWVoZeTG3VYW9apXq9/vvvv/dQHLSAgIC+ffvu3buXJEkXnxu2tOLXW7dKoflmNBq4HyvZpQUERCmTkM0kgJGmgki83kKjEwHxwTzkMnC20oJGWSVLAPcbhhHEsOc5ajYUwf+3yetby95eLgPh4FPTY1LTox2O2JAZnQKsw9jlmfP3XPhSzTbCZzFhQikvPKS4iqhfk7/AhG1Xoh0B32MY8jA9dkXOwl0nP9dw9Sy8ZMEBOyF56tSpoUOHOn3zow2HDx9+4sQJHoGeuCUoirp79+6BAweee+45ZBOMHDnyzp07TkjWiSi9c6cKBf624Cj/QHelIPz9/YODg3/3u99t2rTp5MmTjY2N/OTS7ZQIwzBGo7G6ulqpVC5fvnzs2LHeAapDKG1ubl6/fn1br1G3vIUEBQU98sgj//znP0+fPt3Y2Ihso/YrMxoTcvPmze+++27GjBk9evRwvQR79+4zc+bMnOycxsbGdsqLdzXwTgMvQRAKhcJD0epFIlGvXr02b97c/nuDE/e41U1soBQMgtRzLKniuM/OM0vymhMUNHBByhZw1GcbeIGfETpPo1TZ9MNNopHlOGBegIiBaEFaCL6aWn4JTnux6eimordSD82X/hKbCkaaOhTPLzolPTolY/ZK+eLPD3/UQN9kWQK2KlOtDgwPz3Kc+1AanZoelZI5a7k84YszW+oMlSyr41iGslrmXlyZnZ193333ufIE9/PzGzhwYHZ2tqnIHLQRHbrW//XsVlbe3rZt28SJExcvXmw0Gp1oFOoslLIsu3v3bjQdqdtRGhAQMGTIkPXr158/f54gCItnscCBuj299Tr98ePHV6xYMWzYME8D1X6Usix769Ytq07mLqJUJBINGjTojbVvnDt3Ds2F2Uo3wdPHqmosy6I3vG+++eaJJ55wusm3Z8+ezz777P79+/n5TxDIrR7UmyhF0er/8Ic/OH1p7T9YevTokZKS0tjYaOtK3bveBkpBgyfBcSTL0VU099VFKiWPTsxubZL6LErldLyCTspllhfp99zSg+lzQK0F8frgf+CbxQcaq2Adw3FGTntac3hzyTvLMuZKwXTcEKUgEFLHoRtSQLtu7Nq8JTtP/fsudY1lSY6lTYdGdw48MH8TuY7SFOQhBdqio5Znx20//elt+hIDwE0yHGXDYdni6j349dCh9H79+rVf4zv8VSKRrFq1qp2RcG68AJZl9Xr9xYsXL1y44ARHO3G+UoIgXn75ZRSSwr0oDQkJefrpp7Ozs/U60F3totrNzc2FhYXTp0/v3r17h0XvdAb7UWowGLZv327VM84VlAYEBEydOlUulwsn37ZTOt5mRfkZhrl06VL8onhHPeFDQ0Ofeuqp7du3V1dXWwx9aacY0dE9bZWyLHv16tWXXnrJQy9VoaGhMTExtbW1dmruejYrKIXMoSFWYLxYjqwzcvsr2ZWg35ROUBAJWQQIt5tFgkSWMSHL0DJFDB9okI9uj6aLcf9fFPIXWZ8wuiHoFiXj5cZ4GZGcTa87TGZWsQ00aNcVwNNEVAvh+McDDXsXDZz2evOZb058skoRL5XFSDPhIoeNqKAPFXWgQrjCaPUgZj1AWnSabNabOSk/X/pBRcMiNO3XRGqeoHwCohREOwJheFEk/Uy4f9DxCfdv+gvdoNBx09GMpLEgKlNmTMqh6JRDUWmK2HVZafsu7r5DXiM5LbxiluZom15WFtfvsa9uQamfn98DDzywd+9e7zTUuChGZ1mlFy5c6NOnj7+/f1uOOt086O/vHxYWNmfOnGvXrpEk6aIy/OYMw9y8eXPt2rUDBgxw+tzap6z9KK2rq3vyySetnobTKA0JCZk1a9aNGzf4Nw/4Gs8L0HHC4jnFMEx9ff2WLVsGDBiAfID5rlxhcSNN/P39xWLxuHHjNm7cePnyFUcbVzyNUjT0+e7du/PmzfPQ65REIpkyZQryqwJFwD/fOxbe+RxWUAqtOB4CcIQ/S2lZ7ngj+/FRIi2vOTFbnyCH86khQAKyolC9aJ419JeA0DVC1nrgr4KAc7pBfygFnOtNwSRkk8nZ2hX5TdtPGyu0nB7GjAevA+Z2XZRoRy0WOiABHyRO38Ddzr5zaHPphtWKRKl8llQRI5XDRTZLmgknMpPNTpWDmUFT5bPSMuevz5J+fmTz8cZSHVNnKjz+wPAETEGOkHUM16gI1ZrcOGkG7JSFzrewPRl6PMEOV5MvMQiyj1gLw0dkgtC+KfIYsKTPWp2ZtK38g+K7xVpwXAPBmV2c4IHauVgv/OQulKJoCV999VVdXR3/ePLC+TtxiM5C6datW9uJuNs+eGz92r1794SEBNQwiOJhOCGIrU00Gs1XX301bNgwng22TsOJ9XailKbpkpISW9aecygNDg5OSUmpra11rlXDqlwIbwRB7Nmz5/7777f1wiQSiYKCgh588MG0tLTjx487YRB7p4G3sbHxrbfe6tmzp9U3GCeKW7hJUFAQmj2NvxbvPDGso5QvTtDJCOlCsaDNt47miu+yn55oXlWgScnTLs41JGYTidkU/GtIzEaLEX4lE7PAlCyeW0CHaBbwhErKZpbkUil5ujcPN39zQXu4gVVRHAx5a9nAaQWlbVaZ8QeauAmuqVJ/TXHtl62H//lm7pI12QtXKOalyeemyedKM+dKM+Ytly9am5v8du7yr8u3ld4srDfWUBzJ0gQHLEL4OmLeP1SSAa5PcGYatFpFqFblxy/Lmpsmny2Vx0rlsWnymDR5NFxAeAdTWhGVhhZ5FPppedbs1flxb+Yu/eLolsLr2SqqluCMLE2wDElBb2TT6wNfkJ2UyM3NHThwoLCiO5329/e/7777Zs2alZ2dLXTf6KQrs3nYTkEpSZIvvPCCxXDStvaKQ+IHBwcvWbKkpqbGalQpm9fvyA96vX7Pnj0jRoxwO03tRKler1+xYoVVn2dePYdEE4vFSUlJ6IXPvSF1EA9Ikvz+++8tbFN0hiKRqG/fvrGxsUVFRc3NzUKnMIdY4mmrVKvVfvHFF/3793dIWDszBwQEjBo1qqCgAL3HuLcI2q/aHaAUbIwgAFDKUhzDUFwTxZ3Xc4q75I83DNvPaLeeobaeMX56xmBaKoxbK4hPz5CfVlBo2VoB0lsrSOEiXGM1G5+B/1W4OUxTn1Qwn55mvj5H7b/BFKrY6ySnY8B5omh56D2gvUZOMzYtNBKuZjmK4Jprqcoz6nJllWz/uV3fnv5qR8WX35z48ttj3xy8dKC4uuCK9pyGrmMYI8ewqG/U1D6O1GtBKgNnK+W9n1gN2fjN6S93nN7+zanPd5z6bAf8u/Pk53DZvvPkFztPbofLZztPfrbzJMiz89QXO09+8fOVH4vqcq8YzjZxdQwH5n5hGEBvBkx7Aw8uvAaLy/Pi1zNnzrjuwSu8i8Ri8dChQ2fPnn3gwIGbN2/qdDo3vvu7RZhOQemNGzcGDx5s4YPKw8C5d/9p06ZVVVU59BR2QkCdTrdjx44hQ4bwlpawuJ1O24nS6urqxx57zGpjKa+e/efg7+8/Y8YMRyNNOioaQRCffvopahpFJ+nn5xcRETF9+vRffjmkVpsDqzm6X3N+j6KUJMn09HRPvDz5+fn5+/sPGjTowIEDJOHxoS9mtVr+7xilMPI6ME7Rwxm0lwLbimFYhmC5JpproDk102ahOTVaz//lE20zM+bMfILfp3CrtitpTk1xWhr4R6E+UUgyhuEoFg6pRDRtudy2KdNVtfzAr0Dbwp5jyCmGpDnSwOqbOK2G02qY5mZaZ4CjbMyANHk2ITu+pYkc7hvuFvWAmPpNWI4lGWMj1dREa5oYTTNYmrRgadbSzVpaK1jQmuZmprmJ1TYxWj1joJH1CYsFtUtTsP0AvkaYDt5yVZ2UunPnzujRo+1/GNmZUywW9+vX7+mnn5ZKpenp6deuXdPr9cI3UPQ46JSL7hSUpqenI99dCwGdg6ifn19kZGRFRQUKL+VRGVmW1Wq1Gzdu7NWrF6KpxSU499UelKLWXTQpJjoKkosXjU/Ycw6BgYEjR448d+6cp+sey7JNTU1xcXGoEaJ79+6TJk3auXPn3bt3+ddKV16APIHSqVOnVlVV0TR95MiRRx991KL5xB55O8zj7+/ft2/f7du3o3mcXFHAuQrfMUrb7ldYV4Tptjk9vQYdHamGJtMW9kfaOjqCpUO0ceIy2+7f2nHb5rJ11q3Wm85HsEfeBDfxvFX2TvvS2Nj4pz/9yaFHUof3jDADYuqkSZOSkpJQxICamho0WsOJInOLTN5H6f/q/7p169w4oiAsLOy7777je9rcIkv7O6murn799dfdGDzPHpTq9fqPP/7YXbp169Zt927zBFDtX607fr1x48Zjjz32+OOPb9q06fr16xYOuq4cAd04bvfgvX379vnz55999lmLthPh7ex0WiQSRURErFu3zmtDX9oq7AxKoV9vCwO8z3/hZfBH57HSIUtQTuFOOkzzR+kwZzsZnDiurb3ZQqlABFubenU9RVELFizwkL+78MYLDAzs0aPHyJEjX3rppfXr1x/474GKigq1Wk1RlFvKzn7VvI9SmqZffPFFd72vBAQEvPjii/xAfu+oR9O0XC6///77hWXqStoelDY0NMyYMcOVo/DbollH+LkW7K8tTudkWa60tNTqMF+n94k29BBKT5w4ER0d7aEokt26dYuLi2toaHDx2l3Z3CmUunJA87b8Q9+8wtX/haASptvut+UtoO1vXWuNScTW//nSJTAMs3v37oiICP6h44WERCLp3bv3ww8//Nprr23atCknJwf2qrphTKQ90nofpSqVatSoUe4SNjw8vKSkxI1Wjj2icRx35MiRkSNHuusq7EHp7du3IyMjXT8iMon4KCJ2Xq/PZvMESp988skFCxYI29Jdl53fg1gsnjFjc7AfygAAIABJREFUxu3btztXUgdRaqZQK1aZV9p/JaZnP3RparUrW7swZzL/35IPNmyC/lyLsxB+FaZbtnQoxZ8xdGkGHcfgmLRpAd2WyNkHnkhLlyhj9oA250Sb8PlBFzS0otFf4C6Nelr5/KjFGlnawIvJ7FQFh/gwUEHTJrw3k0MX5vHMZ8+edT0ML3/b2JPg7TMU627gwIF//OMfExISvv/++7Nnz2o0Gp4TlpXGHWJ4H6Xnz5+3NZzDHrmEeUQi0XPPPQcGtrvhnnFMTS+jlGXZiooKt+gWGBj4f//3f940SR1T1sHcnkBpN/jhb0xhlXMxLRaL//jHP549e5b3WHbwct2W3XGUwnsMPfJBkmeM/Qlw8iZ08Bt1cEEon8mb2HybgwchDWP6gMg+AGYmpJoeA+g/ew/R/hmgIarQ9wpSDrGTghEdgIsTy9HA88l8amhnZnckUzaUmYMuUXATpGLLga3lB3nQJaDcJEfQIBAVPBV0QBCZsMVluGV3vpHSarXR0dFeaONt/5709/cPDw9/5OFH5s6d++2331ZUVKABA6amcvdp5X2UZmVlWfU5al8Qq78GBwf/8MMPer3efXrYuycvo5QkyZ9++sktuoWEhOzatcve6/T5fJ5AqdXK5vrKgICAxx577MiRI53OUZszw7RX3PC5zgCemIjVXua2v7Vs1JJqm8uuNQCcCGNoChSGZWgwGAQFrTdjzS0oFZovYIfASqRYlmI4sNCmhaFhxHw05IUG42IYmqPRryhnO/nhOBqwh9b5wfUIuQ2ck1nK9FLBsvB629rkdunnnUwsyx46dMj1SLyu33gikcjf3z8gIKBHjx7jx49fuHDhwYMHKysr3TtrhPdR+sUXX7jFJdLf3/+BBx5wLoi/63XJmyhFbsObN292i26DBg26du2a6wr4yB66BErRKKBhw4bJZDJf4Kj9KDXZReg/juMoPWeopJpPa9R5t1SHLqkOXVSlX7J3ybisu9nAohgG/B6t1CP0GyCuKcVwDMER1XTzaU1jQaXqlwuqX841yM43Fl3Vnq8javSUEVCGhcGK+B237EV4CMc4znAcwdI1LHmCbiqk1Jlkw09k/V5SBZeGvWTDj3DZRzbsJ1X/bVka9pFggb+izKq9pAP5fyRV++DyX7Lhv+Cgqp/AQet/opvzGKKcprUsQ6KWZrNG5jcI4cV2Xhrdlmq1evr06W55bLkCVH4QHtpJYGBg3759n3322a1bt54/f95gMPBjCVwRzPsoXbt2rbu8IpHDkSuX7/S23kQpx3GNjY3JycmuNzkGBQW98sorBoPB6Qv3tQ27Ckr79++/Y8cO9B7sHee49kvKngZe1B3J0hzFkhxRx6pzb158J/3ka18qn3qvYNyavAdS84ZI84am5Q6V5j6YlgsSy+BfUyJv6LK8oWloyR2aVjBsxenP5LSebGkN5XHXkjAPlWQZQEeKIxtYTUn15c05x2K/Lnp6Y+64NXlD0/KHpuYMT1GMkxY+veHIrC9ufFKozrtN3IX2IGzwNTeZthzKJEd7KIW/seCgLMOyTAOtKyNqvtReSWs8MaPu8LN1pU+qSn9fX9Ky1JX+Hi5P1JU8US9Y6kqeqCt9Av0qzF9f+nu4PFFf2io/+AoW9Cv8i/YG19eV/qG+5A/1ZRNB4sgUzakZjZfWkfVfMvqjLAWiNJgvsr1ra782eOJXVMszMjIGDx7sCghd39bqczMgICA0NPThhx9+9913z5496zpQvY/ShQsXui4O2sNHH33UWVTwMkobGhpeeeUV13ULDQ197733PHHjdNY+fR+lIpGoX79+7777rlarhZ2FPvHE6xCloJMQzk7GkSq9Kv3aibhv8yLTinosKJHMLRbPKxbPLxYvQEuReEGRZEGReGGROE64FIvjioP4ZeGR0KQLm9JpLZi+xKRBC0HNFijodyTBwjJkA6XOu316yZ68x9cU9U4oDQaHMx9lYZFkfpFkXpFkfmlwXFnEYuX49WeS9jdkVZINDOhDBP9Ag6+l2JbfhfUW+RNxLMUw+pPG2xtUJ2c0lDzaqIxsyB+j8pmlIX8MOKXyCZrzfzFWbWGICoY1wrncdDxUhVfVuenm5ua0tDS3dE25/vhruweRSBQaGjphwoTNmze7GLrd+yj9+9//7pZQQWKxWC6T8z5ZXq4wXkZpbW3t5MmT29YER9d069btp59+8rJWHj2c76O0Z8+eqampnTv0pW0RdIhSgCKGYXQXGy6u2F80TJrfY35h8NwSybwSyXwBRxcWA4KipRVHi8Rx7aDUFNWvLUpBbyTN0ozhuvrSPzOV41crI+ILg+cqg+YWBc43czQOJCSA30rJwiJJXElQXEnQImXP5KIJ626uz9RfbjI7vDqEUtgPSt8h63/QnH6toXRCXdG42sIxdYVjVAU+hNL6/DG1BWPqiiJVxZGa0kebTr9urP+SZlQ0DOPvCy0efG1DN+etW7emTZtmdTYrR59fnsvfrVu3Z5555ueff9ZoNOj8HVXSyyj9X8ieqVOnuqXxPCIi4uzZs45eL1/KLia8jNK7d+/+7ne/c70ihYWFnT592sVr96nNfRyl3bp1i4qKunv3bmdVVFuFZQOlLdYi8C/SlFw7+sqWkvCkssCFxeL5Ssn8EoExCk1SwEuTJSqJU0rMabgSoBQuRUFxRUELD3drsUptoBSYqyzDNZ+8e3z29rz7E4tCFpRA21cZtEBpsnoXFYkXwSMCfhdK4vJD4gol4ECFkrjC4IUl/Refjv6y6WgtrUd+vTyuoRS2rVLQJsxcN1RuUJc/oS4eq8ofXVcw5m7hmJrCyPqCSN+xSusLImsLI+sKga2szhujzh/bUPo7Q+VHDFfFgoZp21doqy54eD3LskePHp04caK74su4/hy0uoeAgIBBgwatXLmyuroaBSN0SExvopRlWYIg/vznP7tF0oEDB968edPDtcDm7r2JUjTd929+8xurFcChlX369LmXfI5QeynLsu6NduSQpO1nfvDBB0tLS524MW3WPDf9YB2loFkUNL6CURaNhVeVf1xXFrqwADIMteUqgSG4oAjgDdmjcUUAnxBvFihtjVWleGGZAKUtyEakgyUJmmMZtrG48sS0zcXhcQXiuYVB80qDFpQELSwK4luPW6FUKVlYELxQKQEnUyyOyxcvKBQvKOkRf/aFrZqSuxQFnGnhiJHWLklmEfnTAOGFjef115aqjzyqLopsUI5Bjbr1+WPq8yNVYPEhwxSeT6Q6f4w6f3RDXqQ6d0xj2ePG2ytYpgZMidX5M3+b9YX/syxLUVRhYeHjjz/e6WNj2r9d/fz8QkJCXn755aNHjzrqH+hNlHJg9iKAUre4HQ0aNKgTx7l7GaVXr14dMWJEh9Wg/QwikWjAgAE3btxoVdG7+Bcft0rDwsLi4+NVKpWvyWwDpWCgC0szjLbibv6f3s0LjysNWpAfAnEVDDtEEUolC0zGqATYgkrJIqU4HtmmvJGqhGQ1/RXHAZR2T7qI+krh2EigiNlihNYo+KM9V33qlc0lPRYVBs8vEM8vlMyH8OY5irAd32KYwvMBdDd11oKcyqCFZaEJp/76me6iCs7hCSf2Bk3H1joTIU5ZRm24+ZamdIJKOUalHFNfMKY+fyxcEEd9kKat0N5QEKk5PN5YtZUlDRxr9DnLlOP0en1RUdHTTz/ts/2m/NMzICDgkUceKS0tdYim3kQpb5VilPKlhhLtRztiWfbatWtuCa503333Xb923dce666cj4+jFE2D88477yCfI1eu1L3bWkUpcjXijFWG0//4vLDHQogo8NdkjCJiwb8ImUrJokLJIqUkXilBeFtkFaWg6VW8sLS7uYGXR6npmqDtyHDEXWPFku8L+icqQxYqgxcWShYUmg5tG6XmTlPUdYo6U5VBcYWBC/L6JhxP/o6oJeFBrFLUzHJGq6vbVVc+Ua0c0wB6RiNV+WPBUjAWpMFXX0epKn8MoGnZE0TtzzSns5yv1b11x9m9URR15syZqKio8PBwiwEqFg/ETv8aGBg4bty4oqIi+51xvIxSiqKmTJnilvk++/fvf+vWLYdas52tAla286ZVynFcZWWlWxp4+/bte/nyZSvX02VX+T5KkQfvl19+2Vne5lbL1gZKOTAE5c7WsqL7pMigBLZmeygFEDWjNL5IHG8/SgWWE2hepUi2dvfJwuEri4Lji4IXKYPjlBKe4m1RyhumLS5IZsM0ThkUpwyMUwYuyB+ytObrcsYIGnltfEBrNmM82nD2L3UlkQClBWMbCsaqCgVLwdgugVJV/hh1wRjNuWkUdc329dqQwVurGYapqqr68IMPx44d66EI1+7CcHBw8Pjx40+ePGknY7yM0v/1QE+bNs0tVml4eHhFRQVN03ZeqXsri5dRWlNTM3HiRNcrSc+ePY8dO9YpirlXf35vvo9SNL/skCFDDh48SJLIRuJPv9MSVlEKxr8YbhDFj7ydHxKfFxJfiPo7AdKQhYraeIG/j8kqFS8CrbuggRd1YbZYpUWCBl6rVqkApcDZSH9dc/ilfylD4N6CF0GQ88e1QGmr7lKz/3ArR2IlcHSKKwmOP/Z/n+gu6Smgs7k1WZAA58DUGas2qQ9PqC8c01AwpiE/sgFZosK/XcEqVeWDdmnVkfHGO1vAJfrwp7m5ubi4ePbs2QMHDnSL44zrT8a2exCJRGKxePLkyXb2I3ofpdHR0W5BaXBwsFwud2/sJ/trn/dROmnSpLbF7eiabt26HTx4EKPUUd1cyY+asgICAkaNGqVUKsEIE+Ab0skPOxsoJdlbW4oKw5cWhMyHdDR55ALXXL51l3fZhQkLr12TN68gjxL2p7Zt4DXFkUXdlwx79+vS/MEpxcHziwC2AUrNu7IYacNz1GyPmjx7+fzCRHzR/Suq/10OZ9yiWVPEWhTgD/3l6ObD6qPPqZTAi6e1bxFw3AW+u77kvtv6DC1OGPTv1hSObToxlTFUQd8x/u3B/iebl3LSNK1SqQ4dOvT//t//GzRokEQisRpIwZUbzy3bBgcHp6amGo0wFEa72ngTpehEkpKS3PUi8uGHH+r1XppCx0JFL6NUpVL9/e9/d71uSCSSd955xy1xsiwE6ayvXcIqRQUXFBQ0ceLE06dPo6aUzqWpdZTSWvr4lM1FIckFIQt4Q9OENIBSC6oBaAmYJ2RYS1qIUuB21Eyh9lb+Mc9yHNVEHn3tk6LuiwpD5iuDF5oPjXYiPKjJ9oWnxJuhQpu11XGV4oSSbkvKZ35B1hvhQBGAbxi3wURTjtXpq/5dW/KwqnCsOh8ML0ELJBbPUV9z37UkKM/XuvxxtQVjVWXjiVoZB2Lfo/e1Tn5rs/VoYFmWpmm1Wq1QKBYtWjRhwoQePXq4pfPP9QelcA99+vTJz88Ht2u7QnofpevXr3cXSl988UW1Wm2rpDy63sso1Wq1S5YsEZavc+mAgICXX36ZIAiPiuPNnXsCpcHBwR4aUB4cHDx16tRr1651+tuMdZQ2n6osHZRSJk4sCjEPcTG75sKeyBZQmU3GjtdYQSl8JAlR2nzqduljq8qCkH/TQuigy/eG8ihFHG273uY5FAfFlwTFK3+7XnPkNojcBJsCEEqh0caw1E3VhYT6ItCoC5bWKO1C9iiiaV3+2PqCSE3J2MZrKzlO4/soRa+TKMj4mTNnPvvssxkzZowcOTIsLMwtwQece0pabBUUFPTcc89ptVr0rLH1dPM+Sr/55puQkBC3OHANGTKksrLS1qV5dL2XUUoQxIcffmhRxM59HTRo0PXr944TrydQ+vjjj7/wwgshISHOKdzOViKRqFu3bjNnzrxz507n0tQ6Smu/O1rWd8nhoISiYDRgFAEVscq68dchU4UovbTRFDhQ0HUJBpPW/Xiq7EFpWeDC0iAwYhXuE8VhgK24rZpwba23AlTUoVsweEntrmMo2D06rrnflGEMh1Unn6/LG23qaGyF0jG+N5zUpj1qQimIJjGmsXBs46lnOfauGaUefRK6tHN096I+D47jaJquq6s7cuTIp59+OnPmzAkTJvTu3VssFiNTtRNbgPv06dPhDM/eR6lSqQwNDXULSsVi8b59++xpx3apvK1t7GWUMgyzf//+oKAg16tTSEjI7t27rV1Tl1znCZQ+//zzBQUFf/7znz3xZiwSibp37y6VSpuamjpRcesovb5SVhyeXBYUrwyJs9qc2yE422Zoi1JzOxmyS0FMgTvvZJf0TS0LXHQ4IM4cibAtGnnztO1PVtaAmIIwlIQyIv7ahl8YgoUBKPhWOuC7S2sV6vLf1eUClNaB6IBdYNAL35zbNlEPR8Sq8sdqDj/C0p1jZDhap9ENLPyLyKrRaC6cv/Djjz+uWrXqpZdeGj9+fP/+/TvL6TcwMDAqKqp9p0Hvo/Ty5cu9e/d2C0r9/Pyef/55MPW31z9eRinLsqdOnYqIiHAdpQEBAVOnTsVTf7djO06dOvXWrVuFhYXjx493i4tc22OFh4dv3LiRj/fp9frLWUfpqde/KemWWCJeBK1SFPdASCmhy49wfXvptig1D9WAKGVpliGvLP+pJHxpaUBcSWBbM5TfOd85yq8RGs3ClSANw/MuKJYsKAxPOLN8L62ngWHa8gEopRp/UZU/XpMzWpVnxcmodXtvBxZhW7B5f019IQouEakpfZgkukzTk5CjKM2HB2NZliTJ/7mKnD179uDBg++///7rr7/+5JNPDhs2LDw8XCwWowei64/FtreoxZqhQ4dev369naYk76O0qalp9OjRKKK9xdk68TUsLCw3N5emzXdny53i2VR5efno0aOdOGGrm7QfogFdya1bt0aOHOmWOhMWFpaTk+NZgWzv3b3uNujWc2/gwOeff76qqspoNO7bt2/w4MFu0dyi3P39/fv16/ftt992Vr+1dZSee2l7aXCCEoa0Nc/3IkQUGDna1u7sYI3Ag/cybOAV3qwsw7AUdWHx3pJuycUBCwuDQFjdDnbY4h68CJ4P3+TbakMzShcWhiecTv2B1sHAR3y9hHHzCdV+VfkjdXmjG/JgbKPW/roApXmmCILe56ITR0RWaX0+QKled0+NHwct89BNSafTVVVVlZWVffXVV2lpaS+++OKECRP69evnaR/gHj167Nmzp52Hl/dRynHcK6+8EhAQ4JYnVEBAwLRp0+rq6vhbxDuJsrKy4cOHu+US/Pz87EFpQ0PD3/72NzRI0cXjBgYGvvLKK940TFmWO3bs2IULF4xGI3zjdFspeQil1dXVHMdpNJqPPvqoV69eFiB0y1eRSDR06FCFQkEQnTDY1DpKL77yZWn3pMJgMNeK21AKogaCwIGHuyVdfv8Q3UyYUIoC+dEMS1KXkveWdF9cFAiy2XAJtspLoUNvK46ardKFxZKFxT0Szy6xQCnyPaLJhp8ajzzWkDumIW+sKm+cxdCXLofSmiLQVwpQWvaIQXfN1KLttnutk3fUFmMEQfzvsXjmzJmff/75zTffnDFjxtixY3v16uUuugjvc4lEsmjRonaCH3UKSt9//313OfH6+fmFhYXt2rVLr9d7raT1ev3GjRvDwsKEUruStgelBoPhww8/dMv8dCho8/fff99OxXCvmDdv3pw4ceJvf/vbrVu3Xrt2zY3H9ShKWZatr6+Pj4/3hAuSn5+fv7//qFGjSktL3SiInQVnHaVXEv6r7JGohNOWuQelMFADsDKDQDj7G1sUPEpZNI8JzTAEfSn5x5KwxaZ52VqMTp6O7VmftkxYhORicdzh7skXkyBKTX44MF4/mI2VptSyxrI/qHPGNORFNuQC91eh125XQ2nk3aKxIEpDfmRD2W8p4g7LUtBnWdgKYGf16GLZUMR8tVp95syZnTt3xsTEjB492r03bUBAwJ/+9Kfm5mb0xGkrUKegNC8vr1u3bi6aVkJ0jRo16uTJk955HlEUJZfLhw8fLjwBF9P2oJSm6dLS0rCwMLd0M4tEosjIyNOnT7d91WtbSVxZA6a81OmSk5ORx0BwcPCzzz67e/dud8075lGUogu/cuXKSy+95KHhMYGBgRMnTrx48aIrIjuxrXWU3vigSNkjoSQorjTQqvuP4w28sHUXTAAuWVTQK7l2/wmGACHzQZQhNDc3ZUJpcdhipRhYw3zoQQEjnUEpvzlE6X9oHQh5ZB6Gw4C53FiaaiqpP/wc8tRV5/Lhdk3dol0NpWNqC8c25I1RKSPrjjzD0HUQpfC9wYkK0mU3oWm6sbHx+PHj69atGzNmjLvmohGJRA8++GB1dbXvoJRl2erq6mHDhrnXoWP69Om3bt1q38fKxdqB2uqPHTv25JNPuvfk7UEpy7J37tx55JFHXMQ2v7lEIvnLX/6C5uZzURmrmyNIUxS1ffv27t2788dFEd5nzJiRkZHR2Nhoq2Za3WfblV5AKcMwx48f/+1vf+uh4eMSieTll1+2MzxZWwWcW2MdpbW/XD/Sd8nhwAVlAKW8UcgnnHE7Qs3FSvGCwoeWNR2tQjwDHDWhlGOMzKXkH4t7JJtR2tZT15njWqJUD5rRAUqBpWY6PmM8V38qqrYwUpU/Wp0D/HiFC0ApXIQrfTqdNxa8EJREas7MZGk1axoAdO9bpVbvAYPBcPjw4RkzZrjLPO3fv//ly5dtPbA6xSqlafq1115zL40kEkl8fHxtbW07PlZWBbd/JUVRx48fnzJlitsNFHtQynGcVqtdvXo16i4VksnptFgsjo+Pr6ur84Rtihpd9u3b17dvX2ELBLKq/f39Bw4cOG/evNLSUo1G49B0RsIi8wJKOY6jKOqXX34ZOnSoeystX3ChoaGxsbENDQ3CS/No2jpK9deJo6NWlgTPKw0yRdk1T2eGHGt5pjqQUEriSoMWKgPnFL/wgeGGBsULRJOIgjQFUHo5eW9xj0SleCG0Si1Q6uR4VpsoBTw1o5yp0Vx7o6YoUl0wRp0LONqanV0mzhECPJgJPDeyoWSs4dZHLKPjL9OjNcmhnXviQdPOCaCpnqOiotxim/bp0+fo0aM+hVKO43bt2uV2IIWFhSUnJ1dXV7u3pRdJZzAYysvLJ0+e7PbTttPtCI1gLikpCQ8P5x/BriSQjSWRSJKSkmpqatqpkM79ZDQa9+/fP3jwYAv8CLEaEBAwZMiQZcuWnTp1ymg0OnGjeQelHMc1Nzdv27atX79+rmjezrY9evRYu3ZtU1Ozc2o7upV1lNJG9vy8r5U95xVL5ptRZHbZFUwIav7JLqBCf+CFJWELr36cQzczNlC6p7hHvFIMZvk2W8O8JbrQxRGupgZe3ioFbbsMWliOptQHVUceUyvHqIGzringESQTDBzYpUaaqkGsiUjN0cepplMcS/oISlmWVavV9fX1FJyT3Imb3NHKLczPMuzRo0eHDh36/9s7E/AoirSPfzlmJvfBYYRwR8GZJBwKiOyqq4jXswo+uqIrqKuShHAIKK7irniAKAHXZZF9/FA/BAQR1htdREzmTAgQDuUMGBIIkMydzN3d1Z/VNdN05spkjmTQt59+kprq6u7qX1fXv+utt6uCPHshburVq5dSqQyU/x5plbIs29jY2K9fP2GtGuLlBE+Wnp7+5z//ub6+PlqWXmLUNRgMn3zyyejRo2PxzX7oUsqybGtr68SJE6PCje9zFYlETzzxxOnTp6PVoKcoymQyrVu3bsCAAb7OdL6ZT0lJKSoqWrVq1enTp8mNC1Rchc8ICXeblLIsazQan3/++Si6m3kV5tzc3LVr13aPA51/KaUQ2/r9MVX/MmUKkVLSSclJZoDh7DuV1arUMnl6mXL0i211Wm5iUnerkOZqek+r9GN19iyleKamw2hHxGu3VDgXaaen800QVEpZxn66/eTjek2REQ8c6C2lXo5I8WndNfB26e+vaVUWWX+eiygDocuZtD1DYvg+Pd0SQ1HUunXrHn74YbVabbVao1XLhJ53rVY7Y8YMr4ctjJ+ZmZlyuTxQ3dRTUsowzLRp07zaK2FcndcuCQkJEonkD3/4w65du4izVejAvVKSOtrhcBw5cuS5556L6XRAIRp4WZa12+3vvvtuVIz/REqJsCUlJU2ePHnXrl2RTw9AUdSJEyeeffZZr/5R/k75SilxS05JSZkwYcLGjRvPnTsXul2hO6WUZdkLFy48/PDDUTEX8UCIxZ5A6Nu37/bt26P1IuhVpIU//Uspi1hbu+vwjLWqLCKisy99SBqulP6QWirPmX18ydcuHcOPu+tj4O1WKUUsPzkMYpl2Z+smw/6JehX22cFuO1Vk9m8/gzbEpZRi+ccZq8QNa+PecU6DGrE98H2VsHgJwy0tLbfeeqtYLJZKpatWrTpz5kzoj7fwOOGFEUJms3nRokXC5y28cG5u7r59+wJlo6eklGXZXwaviMU4UAkJCYmJif369XvxxReP/HSEvAYFepMIhIVlWYfDcebMmXXr1o0dOzYW+RTezdClFCHU0NBw9dVXC3cPL8xLKd95OXDgwKVLl/7000/hTVJNUVRLS8uWLVsmTpwYpPnOt4b5bAtzkpWVddddd23f/p+LFy+G8v7azVKKEPrpp59uvPHGWLwFkqJbUFBQWVkZ69omgJRybRmD+ueaokWalDlK0Ry1aLYaz0XqaRpiM28guy4/GpE7oEgpVaSUVqaWqX73evshIxlsyD1aIOue8IxrlaL6eR+rs2YpxU91S6sUT49KVu5yKcZ5ylL/bKtmJJ6vtBLrqBYPZntZSCke6dDIdfHqFDJzzUjbqb/RVDuxogep3bptE03TxF2CPO3p6el33HHHp59+2tLSErZ/RJcyjxDSarV/+ctf+Oom7EC/fv3q6wMOfNFTUsowjE6nv/baa8O+rkA78jW1WCweNWpURUVFXV2d0WgUThLOTxiJv20TTB5JhqkymUyHDx9+9913b7311uzs7Bj5bQrzH7qUEuejl19+OYhWCY8cJCwUMD5OHAk+AAAgAElEQVQsFovHjBnz9ttvHzx40Gg0UtxEj6ToCl9HSJj/a7FYGn5u2LZt25QpU7KysoKc1O8QE/zZSUAkEvXu3fuRRx6Ry+UWiyW4oHazlJIea7lcPmLEiOgWDB5CUlKSTCY7dOhQ8AvvUn3imziAlHJCR9HshXU/1F65QC6ZpRSVq0XleFzcTlulfAIstyVqcYk8pUSRUqIc/oJ2+3HKhFjkZFmKl1Li+YNNvk725LwtqswyhegpdfJMtYgfzj5GBt4ONBAWdYqx72k9PFWnKjJWSY1VUq1Cpr0cpJToPc5z5TWGmkLryUcZ+88068QvCx7bbs+ad00m07Rp04TDCCQmJubm5j700ENff/11S0tLrC0wCKGjR4/KZIXBa6VOtyYkJFx11VXNzc0dSo/gR09JKeeTjlavXh25JASHkJqaOmLEiJKSki1bttTV1Z0/f95gMFgsFofDQVGUy+Wy2Wzt7e1ms7mhoWHPnj0ffPBBSUmJVCpNT0+P1ngIwXPYpb5Sov2nTp0aOnRop4cNJQFfg5MA2UUikYwYMWLWrFmbN2+uq6s7d+5cW1ub1WJ1Op1krGmHw2m1WrVa7dGjR3fu3LlkyZKbbropup2ISUlJ+fn58+fP379/P5ngSFBsLwVjJKXnz+OvNgItVqt106ZN+fn5pCfYL8NQ4AvTCA8iFot///vfnzx5MnZtU/9SiihcAWN1aXc1Lv5UMWCuPK1MJS7HrkC8UgZqlfIJJCUKSYlSPFMtKZEPfqb5bZWzBXFHxq6zpGbnnWg9UvqxKnMWJ6Ul/qUUTw4Tpiuvd19pR21BWMqRi7W5zF+ZD91tVBcaq64xVEkvi1apW0orpUalzPLj7bStFrEUw1pY5BCqaaBy3A3xSqVy8ODBXp06iYmJSUlJubm5DzzwwKefftrQ0GCz2fg3R/JIR543chyz2bxixYq0tDThwxZGOCkpafz48Xq9PlDGelBKWZZtamoqKCjw4hzGZXa6S1JSUnZ2dkFBweTJk5988slXX331n//85/vvv7927doVK1YsWrRo+vTpv/vd7wYMGEBmrSEH5Gu3To8fYYIutUpZlrVarcuWLYtKjx1/jcIAaW8lJiZmZGQUFBTccccdM2fOXLZs2erVq9dxy4oVK5599tn7779/5MiRubm5wpfOCFEIdydZuvrqq1999dXm5mZhs5gvzz0ipSzLmkym5cuX5+TkCLmRsPASQg8Lj0OGo7r33nvJF+H8xUYx4F9KsYpyH14yLONsbWt49XNFwTPKNNJjynnS4ulWAnwYw0upuKQydWZ1xizN1X9tXK3EOurvy8YOrdK5W1WZ5QpRiTq5VI3HLORnSw0yun0gO7N3fEApJRfLmZopxCLK7NJtbfvxLqOqSO9pksa/25GxUmZUFJl/muoy/BdbrfFFueJESq1W69y5c8mcmsInQfic5Obm3nzzzcuXL9doNK2trU6nk9gPuQuJqMAzDNPW1rZp06aBAwdGbkESi8UPPfRQkHfbnpVShNDrr78e655I4U0k4eTkZDG3SCQSkUgUpN9LeNN9jxOtmK5KKflcauTIkZFnQFiDC8PCI5N4QoxMiy2RSHyh8bsL941KOCsr69tvvw30XCGEYjGcfaDTueMR29LS8uSTT6anp/PXSAjwP7sU4OnxAYlEUlJSEqOJjwJLKWIZzseWG1fPee4dueL6l6oz52lEs1SSMtL9qZJg+y1ppyqxguImo5oz6mrw36d29yqt/f1rrZt/dOn8vgBhhj5SOtsjpV4NUK+f3koZuO/WndJbSgU3FltBuQYyFnuGRpTOZfis/eiftZoxegXuMdXK/Uy7xg/dQALcVzR+Rr33Ssb/DOS7xCfwCvim11VKtVVSvQK7HOvV49qOPUpb93IWXTK2MMtygzPwNl7BFXdTkDQxT548KZVKfR8D4XOSkJCQlJQkFosHDhx4//33r127Vq1WNzU1tbW10TTNN1VDybdQfZ1OZ2Nj48qVKwcMGOCbgTBi0tLS1qxZE7A0s2zPSin5Kqa4uDjyl4Yw4PB1VpBmsfCmh3GKEHfpqpSSHtPNmzdHblMVQhCGO825LzR+90737VKCpKSkO+64I4ii9IiU4iFcGaa+vn7y5Mn8W0UkpYWnJwxkZGS89tprVqsVSw/+JDNqSwAp5Y5PLKCIwjJDW1iT8vSPj7xXPfwFTdZsRWqpUlKqxsJJFM4dJjE1ySWarNnqwsUH5m5o299CW7gqPUCeO0rpJ6rMOR4pJZO7hWnO9VVWXyklXjlEady5w9eMWNzLaGbsP9lOL2uru1OvGaNTFurkhV5zgONvZoi77A94YAe8ul1/ie7iv4HScB7Cl5J5ZkjlduEO4j4gd1iPR3GHkSIMcplBWWhQybSqUW3777ad+1/G2ci4O0fxPOrkLYXzUua9qwLcg1hGMwxTUVHht4YSPifC4p6YmJiSktKvX79bbrllwYIFH374oUqlOnnyZEtLS3t7u8vloihK6NsizD7p+nI6nUYDHol3/fr1N998c6eOGyHWRAkJCVdeeeWBAwc4xxpsCROemoR7UErJtTMMs3bt2kAfToR4peElE97QQEcIJU2gfUOPD0NKEUKtra0PPPAAX4+HfjphSmFJ7jTstaPXT7+7C9OEF87Pz6+trQ3i7tcjUkoeH4qi9u7dO2rUKN6dyvcNI8Sr9qVHjpmdnf3OO+9YrVZiyvb7FPs+153GBJNSvDM2eOKVplgasc6LTv1Xxw489YF6wsvqgQsUubOVmeXq1HKNuLw6pVyVMVuVO0cxdJHyhqUH5nxs+G+jS8fgtm1QR1LSXcr1laKTcz9RZc5ViEo5A6/fMRn8zgwTUgvVr5Tyauom5a4bSaZYRBsp805707K2Iw8Z9t5kVI0yKIv1qiKDqpCsRmWhUVloUrhXo6LQoCzUq4r41aDCCbzSGJXeyQTpi4KkJyfFGVAWmzRj9PtvbTvyiL1xBWNTYEc4hFfuirCUkpap4IOfaL6CdVqwSAKGQefPn584caLf0s+XdeFjQ/zXSfrExESxWJyWlnbFFVeMHj36T3/604IFC1atWvXRRx99/fXXVVVVtbW1dXV1R48ePXbs2NGjRw8cOKBQKP7zn/+8/fbbTz31lEwmExqL/OahS5FJSUnjxo0zGU3Ex8fvQxgPUqrV6u6+++4Y9bcFIUZuaJAE/I0OnibyrWFIKXEl/fHHHwsKCiLJAF+qQwkIT+SlGYF2F+7S1XBCQkJGRkZFRUXw+eB6UEoRQk6n84svvhgyZEiETmq+AAmuhISEvLy8L774wuVyETUNsTYLnqxzKSVaiEcGwi+9iGYR1ea0/NTaunHPsVc+21/2fu1D/9oz5a26R/59aNb6M6/uaN1y0HrCSpkQ43T7LuFmnp/Xd3fGPFKKGCeDpTRjnkdKfQUyGsPZXxrtyJ2vjrnD2XE3TVkHYu24hcrYGdtxl3Gb4+xSy8kFpuNPmU48Rlbz8cfMxx9rO4bX9qP4r/m4e5PfNCQl2YtP4BUQHtN/+mOllpOLHM3L6fbPEXWGG8/Ijh3FsIoSIwKRUlaoo5zIBi8M0d/KMMymTZsCTU/oW9aDx5BHKzk5OTU1NTs7+4orrhgwYMCwYcOuueYamUwmlUqHDh3ap0+fjIwMkUhEEne1rgmePjU1denSpbyOxpuU8hljWbaqqqp3797BLyfqW8ntC37YUNIEP0IoW8OTUvLx64YNG3Jzc0M5i980wcuw71ZyEN/4QDF+TxpipEgkuu+++zr9wLQHpZTUQRaLZfXq1b179yYQQrw6r2SBACYkJCQnJw8dOrS6upoYcqJS8XUmpdxJyEAKWMAZGttquR44Yh9gbBRldrp0dpfBSVtoXJGTZhGecAWbGD3tu4C59Rh4GcZJca3SeUpRqeaS25FQUGMlpcLMcY05zjiKdZTGmxhy4S7EOPDo8Mx5ljmLmAuIOY/o84i+IPjL/WS8YvylIXvhg/is+JhkF5/jMOdZ1ISYFkSZuW+K+EY1hRulHHyaa5qSq+D+ElnFg1EIL7N7wkaj8a677gpiMQtS3H03kfkIvR6YbvuZkJAwcODA48eP84oVz1L6y3cpixcvFnrPdg8or6aV35OGksbvjqFHhi2lNE3rdLo5c+YQ160wupx9y23wGHJRwdMIt4YOwTdlYWHhiRMngph2SbXQ41LKsiy5CxkZGWHcglCQikSi4uLiQ4cOdUojxKoyJCkN8VhdT4ZreTLPGaIpxuHCw9nHepI1n1apT7Zxz6JPpP8I3qOHD7jT8b8FbV7vg3p+e/57TuH57fnvJ154eM9mzoXLfTqvXd39poKU3RRUKBT9+/f3faQvxxiJRPLYY485HI7g7HrQwOuVsZaWlttvvz3Wn5nG560MW0pJM+XixYuTJ0/u2Ve3qIPNy8v77rvvOh13idg8e8CDt2PxZRjmzJkz9913X1TGdCQwhW8kCQkJYrH45ptvbmho8PtO3DE7nf/6rUtpAEJeUhQgFWe3Fqrapd38xV7aSo7n+e357zmL57fnv5944eE9m4VSKojDQb7x6hUf259Op7O0tDQq3+pFvVrp6gGTkpL69+9/4MCBTpHFj5SyLFtXVzds2LDu7zTtKt6op49ESsmA+8eOHYvdhJpRv94gByT6kZmZuWbNGuKyF7wMx4mUkq7rI0eOXH/99dEqwF5SStR02rRpUfnYNP6ktPP5SsP0PPJ1OwpepELZKpS0Dsrnb4OfBNw5wo4nJxHkk7Ondzgc2dgDpl2E0IkTJ4YPHx6LPssgFUeMNmVlZf31r38NZUimuJJSmqa3bt2al5cXtpUsRjxjfdiwpZR/mogrqUwm412lvCriWF9CFI+fk5OzdOnStrY2/uqCBOJHSsk7zXfffUeqkciBeN1B8jM9PX3hwoVarTYIk1A29biUIreBl6I5A+/WDvOVugeCEHaXhh8OKqX+pA/3iXVcfYiS7Vyjj+tQDmob9qNx3AHDjhdIqScj5LMXd7757AY6A58g+gGXy/Xyyy9nZWWR8hr5Y9BTRyAfvI4cOfLs2bOhYIorKSUzn1RUVHTPyLc9dY98zxu5lOIhTlyu3bt3jxgxQtgq4qtj35PGZ0x2dvaLL75osVhCKb28H0CPG3j5nDidzg0bNuTl5UXexc7fO69ARkbG8uXLg3s1d0qvZ6WUOCVhNUUUwzgobjj7bpuvlIdzyTHH8w2Jp7PUn5R6xZF+SOzoyzq44fGDuSvzp4xKgHgVcefje0OFgaicJMyDnDt37rrrrvsVNEnJpCi7d+8OsUMl3qQUIWQwGBYtWpSVlUVuh7Aeic/aP/JcRUVKiUPvDz/8MGLECKHrHAEYeSa74Qi9evVavHhx6DrKC1g8SClf9fwickuWLIl8hnZhyefD5C706dNn/fr1TqeTP2lXA/EgpVxXHpZSun7elm6cr5SwIl+/UAzroFkHI1gR60B4DFv3ipADXdpq51JSuD3qllb8PsC1Bjt3WiJ7+N6qrscTv1yhfArDvmfovpj3338/Ozv7Mqp0AtVrOTk5//jHPzp11uDJxpuUkj4nvV4/d+7czMxM3tIbV7eGDMUcxY+AoyWlRE2rqqrGjh3Lq2lcoQtUbv/nf/4nJyfnpZdeMpvNQca55MstH4gfAy/JEnmFvXjx4owZM4hbddjNU14+hQECMCEhoV+/fjt27HC5XIx7hHgeSUiB+JFSlnEwuFXafVN/u+8U/ozEVe/Ub8SrbqNTt8Gp/9Cl/9ClW+9etetdZCUx+vVO/f859etduo+ptv8y9r2IakUM5THudi6lId2ZkBIJhdM3HNIhYpTo3XffHTp0qFgsDrvcB6kjum1TZmbmM888E2QaDV96cSilpKlhMBjmzJkTrYGfonsLrrjiisWLF0dl0lCSsShKKXkXOXTo0C9jREskEr7rNLoEon60/Pz81atXh2G0jDcpJY8Y8b248cYbIzF0CRVUGCbwk5OTCwoKampqwvs8Jq6ktLvnK+VuEsOyLsr4H9P+6037rjPtvdZce6157xjz3jFttXg1c39JgMSb9o7B674xptqxxprr2w//0fjzX20X/5exHUBUG+KmY+2uzkkvY7PXT996vvti2tradu7cecstt1ymvXRkEo85c+bodLoujdUZn1JKbvwvk4z+7W9/I1++R73uDvuAmZmZL774YmVlZWFhpFPg8XkYOnRoXV1diDb5UJ4Kl8t17ty5xx9/PDc3N87fDkUiUVFR0WeffWa328MgEJ9SSrqu1Wp1JNOaCuVTGOaLTXJy8tixY48ePdqlR56Un7iR0p6ZrxTPI4dYh611i776Wr26CE+g/YPMSEbW5cbCNVRJfceR98TgIXONcplJKTPUjDL/OMXe9Bbdvp9FzkCm2lAe2l9NGoZhmpqaXn/9dZlMlpKSEucVEP84kUCfPn2eeeZZg8HQ1YcqnqUUIWSz2f/1r38NGjSIN1d6XXh3/kxKSkpPTy8tLW1ubt67d+8111wT5OzCuq/T8LBhw+rq6qL7KCGETCbTqlWrfKcLDJLtbt6UlZU1derUI0eOeCZWCvOtfuvWrZEM+eR11XfeeWfw+UpDvFN2u3379u1XXnml1/Gj+FMsFk+aNKmhoYGM8h36u0i8SWln85Vyk8/4DlUfSoy3B6+7jNGItdlaN4ctpXhYeYXUqJSaVDKzZlT7jw9T5m8QZSMTnYVZkEMsWXGfjKZpu93+ywTRJSUlw4YNuywEVSQSDRo06M033zSbzWEAjnMpxeZKiv7+++/Hjh1LzJVRrIa6eqhevXrNmzevubmZYZj9+/f7nT6IP2an8ilMEPVWKTGSk7bRrl27brrpph6ZMICn4RtITk4eNmzYihUrdDod/pbcM+VCGGWYZdn4lFIyrWlFRQWZ1tQXQlRixGLx9OnTg8yc4xdpXEkpOjnv426fr5RBrM3e+pG+hrRKpV1tleLpX+RSg1xqlEsNCqleJdPt+Z3z4kbkaibf+fjl/puKpGm6vb1do9HMnDlz0KBBEonE15VUWA8GCUflUQlykPT09IkTJ+7YsSNsX754llJhqTt9+vRjjz3WU+bK5OTk/Pz81157jf+eb9++fXyr1G8BCHLXfDdFt69UyI2EL168+Prrrw8fPrzHX0fIkEx9+/b94x//qNFonE5n6A0p3+viY+JWSlmWbW1tLSsri+IoSL7lJy0t7bnnngvxS1wCrcellJshFA/FzjBOmpPS7pqv1N1gRB4pHaNXFxqqsJTiiUI91t1ODbx4fjS5VKeQapV41SukBrlMv+d6l3Y1HrAXv82SyXH4UvrbDbS3t6vV6rKyMqlUmpWVlZSURKy+fqtOv5G+hT5aMaQxOmfOnAgHErtcpJS84G/cuHHcuHFRdJ0N5XakpaWNHz/+iy++MJvNvP1cKKW8a4+wDIRyZD5NrKWUYRibzbZ///4nnngiPz9f+OEpn4eYBsiDk5iYmJmZOXHixPXr1xv0uDOC9HRGXsXEs5QihM6cOXPPPffEDntSUlJGRsbKlSvJzKah8OxZKRWMwcvQyOXipLS75iv19GdyfaWb9TVj9JpC3LisxNN3k9XTJxqku9SzSe4JcH2rBrnMXDvB2bIZ3wNuDgDP2UK5Kb/mNMTke+zYsTfeeOO2227Lz89PTU0NvZEai+opOTm5d+/eU6dO3bVrl9VqjbA+uoyklJgrGxsbFy9eLJPJ0tLSyMuNUMC8whHyl0gkgwcPXrRo0alTp7yGjvKSUnIi4dm7dOpYSyl5RBFCdpu9srJy+vTpAwcOjF3N7nvtEokkMzNz3Lhxb775Jhn3jojob0FKiU/1gQMHRo0axX/c5Ysokhgy1WNOTs6GDRvIsNudgo0fKaWQy8lJaXfNV+oRN8Q6cV9pzWi9mjPVVnYQxS6oqZeDkrzQUDuJbt+LWAo3TQUjNwjDv2bZDHxtFLcYDIbdu3cvXLhw4sSJAwYM+GWC+1hX5fzTRR6V1NTUgQMHTpkyZevWrXq9nuQ3cil95513+BNFHpgyZUpUTHaB7wbrcDgOHz48a9asESNGZGZmJiUlBXq5Ce9yEhISUlNThw0b9vjjj6tUKv59RZglX7cjoY521WdtyJAh+/ftjzU3MrIdQshisVRVVZWXlxOAXc1tl6hKJJL+/fvfeuuta9eubW5uJt+MCnU0Kle9devWyIdE4K8rWm5HwgLjcrm+//77QYMGkXLCnysqAXLMxMTEK6+8cteuXRRFXS5Sig28yMVNstZt85V6BI1rlX6k3zPaQKTUSxEj+akoMh17nEXNXmPges4sLBi/uTD/8DudzpaWlt27dy9ZsuTuu++WSqV9+/ZNS0sTiURelWlUaqikpKSUlJS8vLzRo0fPnz+/srLSy72Iz1h4t4SiqDVr1oijt0ydOjUqlWOnl0ME9ZVXXpkwYUJeXp5YLPYV1K7WUyKRKDc3t7i4eP78+RqNpr29nbfoeuVn3759Uqk0JSVFIpGkpKSkcksat5Aw2SQJbRkxYsTBgwe9ThHrn3a7/fjx42+//fbtt99eUFCQkZERrXZqQkJCWlpa3759R48eXV5evnPnTr3eENPL2bJlC/kE2fcZDCMmFlLKsmx7e/u6detyc3M7fQXvap4TPYtIJBo+fHhNTU38S6m7IxHR3T5f6aW+UrtN+5GuZrRBxbVKI9FOwb66KqlOWWisHU8ZtyEWfx7DLyClxB9SWDo5Wz9jNpvr6+s///zzJUuWTJkyZcyYMQUFBXl5eZmZmSkpKURcO63NfRWXyGdOTs7gwYPHjRtXWlq6ffv2pqYmvx0hEUqpw+H45ptvZsyY8eijj87gFmGAhB/llunc4rV1+vTp/NYZM2Y88sgjK1eu7B4pJW6fdrv9woULX331VVlZ2fjx4wcNGpSZmcnLaijwk5OT09LS8vLyiouLH3zwwfXr1zc2NvJWMv4p8Ao0NjYuW7ZsAbcsXLDwGW5ZuBAHFi5c6I73CZD4BQsWLPQsJGbp0qXEMdjrLN3wk3wzs3fv3oqKiilTphQWFvbr149MR0/okWq9U5LJyckpKSm9evUaOnTohAkT5s+fv23btqamJofDEeh1JIpXp1Kp7rnnnsncctttt5FAl/4K93r++ecNhphov8lkWr58+SRuuU2wkKxOmjRJGBBsv23SpEnCn5MnTyYZJpFkLxK+8847Fy5cKKys/HLuWQMvNnt6hrMnY/Bu6775St3ixrCs3abdpK0ZbVBiKQ3foivQUe4gMp1CplUXm488jph2bnTfnpnszO+Nj/NImqYtFsu5c+cOHjz4+eefV1RUPP3009OmTbvpppvGjBkjk8mGDBnSv3//PtySk5OTLVhyuSUvL2/YsGFSqfTaa6+99957Fy1a9MH7H9TW1l64cCFs79wQoVEUZY/GYrPZrFary+XqNinlL5CYLi9evKhUKisqKh599NEbbrhBJpMNGDCgT58+OTk5ubm5mZmZGRkZWVlZ2dnZvXv3zs/Pv+qqq8aPH//ggw++9tprO3bsaGpqCn2UAIQQMfvTNM1wC03TJIaPp0NeukFseFaBAgghs9l86tSpnTt3vvHGG0888cTEiROLi4uHDx8+ePDg3r17E4ykuObk5PTq1atv375DhgwZOXLkuHHj7r///ueee27Tpk11dXVarTYUG2OgnIQR73K5bNFbYlqGXS6X1Wq1WCxWzxIo457t3v/9pieJLNxis9o6fQbjQUqFY/B2v5TSLGuz6bCUGpXYdxd75HqLYnj6KtMpCrWqwot7JtDthxAeC4IYeoUN1DAK+W9lF1IbkqmYOQcZymq1Go3GlpaWn3/++eDBg2q1+vvvv9+xY8dHH3200bN8yC1ffvnl7t279+3d19DQoNfrLRaLcDCwbqhn+aZthIEevNmEPMm/zWYjqrBv375vv/1248aN77333ltvvbVy5co1a9Zs2LDhm2++qa6urq+v12q1VouV0O609hFend/EQnrCxJdXmJB0uVwmk+ns2bOHDx9WqVTffvvtBsHy4YcffvbZZ7t3766rqzt9+rTBYLBYLMKxc4W3oxsun5DvhhNF5RTdkFu/5VOY+fiRUjIG7zZ11tNKcZlGVKYWl6nEpR3HXpilEpM1nKnWvIdowBgQi32CrFhKq0cbFTJD1TXRlFJloV4lM9aOdureR6zL43gEUiosgRAGAkAgJALdIBgh5QMS+SMQb1L6iTprrlJcyklpqSrm85UKpXQMJ6XRa5XK8XANBqXUqB5pbypHrM0jpf7uA8QBASAABIISACkNiqeHN8ablG5VZ81WiUs0olKuVVomaIYSZfVqp3aheRq4VWqz6T7SVsdESvUKqUlZbDnyR8Rae/hWw+mBABAAAkAgNgTiQ0oRiyhs4D0572NNVrlKPFMjKlG7rbu8RbdUJSnBq7fVN1Q1DSClNOd2tJmT0kID/qg0Sn2luFXKDX6kKGo7cAeN2mJzB+GoQAAIAAEg0MME4kVKGYplnMzJeVurM2djKRXHQEoz552Yu4W2uUgfKQcezwzDsg6b9mNd9bVGeaGhEk/2Eh23I7lUr8Sj8hq4sRpclKmHbzWcHggAASAABGJDoIellKganrSaRsiFTi3YVpM5RyWaqRGX+muVhm/jVUhKqzPnHn/6Y8bhHnvIw5NBrNOh22asuQ6PnVuFBw6MnpTKjHgkQpl+zy0U3e45I/wHAkAACACBXxWBuJBSTJRBiGbOvfLf6tx5KmzdJR68oRpvOzr6+tlLLilVZs+tX/IVg5iOIyRgzyO67Zu2vdfrlTIdVr5roiOlVTKdosiIJzQttBy5B7EOj9sRePD+qh4huBggAASAQM9Lqfse4MEa0Pl1e5T9F6pEJUpJmUriRxE7lUzfBGrPpzWVefMb/63COtrhEyGEWJq2aIx1d+lVhTo5nvc7mlIqlxk0I+1nZnNf3UB5AwJAAAgAgV8hgbiRUm9o9GAAAAiaSURBVM7Ua6xqVhW9pBaXVKWWKqInpTXJpTXJJSrZ3w3fNZAmoVfDlHGeNh0rMWqKdFWkuzQ6ampQyPQKmbZ2jOPCck+T9FdYhuCSgAAQAAK/cQLxJKUsaz/rqr2tQpNeUpVaEj0pLa0WzawWPbH39lW2BjtvXeUDuAQgY3vTcqO6OIpuR4YqmbFKplfKtAfGM7avf+PlDC4fCAABIPArJhBfUso4UePLX6rzyhUpT4X90YuXjVeNPZieVPUurX/pU8aBO0rJwge49jBDt39r3nODsUqq45yPIrfxGiplxsoinbqw7eR9LBuToZw9lwL/gQAQAAJAoCcJxJeU0gxr1jRqxi9Wpj2liNpQRyWq1Cfk1z1nlJ+mER4qkLgNC6UUx7jOWk/NMagLtVGSUvxRjaKwtfZal+Fd91l78kbDuYEAEAACQCBWBOJLShHN0hZ04m/blP3mYs8jPOJumM5HgsGSSqr6lhx+YTNlpBCNRY1fO0BFNNW2o7VughZ/VyozRP51qVzWqim2nHyIcZ3xku0O54UfQAAIAAEgcJkTiDMppRCiWetx454736jOKFeJy9XiWVgUiUNvyH814jKNuEwpmaUSl2tSZ9bcsdRyREsk1K+OcnO9sYg+a/p5kV5VbKwq5L4x7fpYDXKpHk/TJsN9rgpZ64Eb6PYvGZYCKb3MHxPIPhAAAkAgGIE4k1LSZESs/tufqouf16SWV4vLNeJylWSWuiurhkusSClTS8r2SJ/TfXkYD0yI50YNaGpluHGPGNshy5FHjFUj9YpCHW6bSrlp10J16NXJpfjL1B9kxh9k+ppR1nNLEWP3GhIi2N2AbUAACAABIHAZEogzKaWx1mHNc6CL7ypqhj9bnV6mksxSSGYpubZpiIKK26MpZaq0mcqCpy/+W05buS9JudlCAzQQaZalsNAylEu/y7TvboNqJGfjJTOYhiylVTJtlcy4W2pUj7GcmcsyZ7ki4UAM1lNYgAAQAAJA4FdJIJ6klJhZPY1Hymxv+T+VvPBZeXqpUoRX4tOrlpSpUwI1Ut2bFOIyVc4cheyZC+9V0W1ORKbc9vSS+ruRuFHKsDTN0ixjo0yVpsN/0mlGaRVds/Hq5DKtulhfM95x7gVEnWNZK8LzoXqcnfydGOKAABAAAkDgcicQT1JKWJJWKcuwiGYclGHnierJbyp6z1GllKjEM7GapuBVmVqqSC1TcqsqpUyNbbmlakmJRlKqSS1T5s1TTFqm/+YIY3OyxNco6I1y95WyLMO1TFnkpK2HtPUztbXjDcpCvbdPLxny3q2ylyzAcplONdJw+G7b2X8gqoVi7SzrQFxHKRPQrhw0W7ARCAABIAAELgcC8SelAmrEKmqtbz/10pfqsX9X9J2tTC+Rp86Up5RUpZVWppdWpZcpUkvVKaUaPPnazD0Zs6v7Pl0z+u+nXv7SelzLcE1Cv5++CE7SMYjtvxTLuhDDMsxZZ/sG89GpLXvGalXFernMIJcaOK8ibvYYLKW4M7VSaqiUGdSjDXtvbj9aRpnkyGVjcc+ruzHqMSnzDk8k0PG88AsIAAEgAAQuWwJxLaVEBbHV1cq2HzY0rvhBc9dbVdIXqvIXKHo/rcmevydjfk3m0+rceap+C5TDn1f/4Y2GV3aa92hpC24GEicjXsFCvkecBxJiEE0juh25DrsM75lOPtW6b5Kx5jps9dUU66qLdNVFWs1IrWqMTjNBt++e9vpnXYavGGczohjk8tsKFeaIWLFDzhEkBAJAAAgAgTgmEO9SiueM4RQVIZZxsc6LjHmPrmV93amXd5yY/XH9kx+dLN1c/8LnLe/vM6kvOppdlB3vgG26WK0i6aRE2FcIObmVYVErZVO4DB86Lqxob15kuTDbcmGOpfkFx4W3KPOnNPUzorkeWUQh1smwThavXq5GvKbzfcJxXC4ga0AACAABIBAygXiVUk8Tzm0M5TpQKdLQJPqIWORiGTtiHPhTVMSwiOL+Mu6/7nZfOMZU/tw0p4g0g1gaYYMtNtUihqHtDGNlaDui6Q6c8bkolpvFjcYeTJfG++WSCbMiDHc4BvwAAkAACACBy45AvEppVEF2Wbi6vEOI2fV4EoeYHJIBASAABIDA5UDgtyKlXbsXHk+hru3VeepYHbfzM0MKIAAEgAAQiBmB34SUxoweHBgIAAEgAASAAAtSCoUACAABIAAEgEBEBEBKI8IHOwMBIAAEgAAQACmFMgAEgAAQAAJAICICIKUR4YOdgQAQAAJAAAiAlEIZAAJAAAgAASAQEQGQ0ojwwc5AAAgAASAABEBKoQwAASAABIAAEIiIAEhpRPhgZyAABIAAEAACIKVQBoAAEAACQAAIREQApDQifLAzEAACQAAIAAGQUigDQAAIAAEgAAQiIgBSGhE+2BkIAAEgAASAAEgplAEgAASAABAAAhERACmNCB/sDASAABAAAkAApBTKABAAAkAACACBiAiAlEaED3YGAkAACAABIABSCmUACAABIAAEgEBEBEBKI8IHOwMBIAAEgAAQACmFMgAEgAAQAAJAICICIKUR4YOdgQAQAAJAAAiAlEIZAAJAAAgAASAQEQGQ0ojwwc5AAAgAASAABEBKoQwAASAABIAAEIiIAEhpRPhgZyAABIAAEAACIKVQBoAAEAACQAAIREQApDQifLAzEAACQAAIAAGQUigDQAAIAAEgAAQiIgBSGhE+2BkIAAEgAASAAEgplAEgAASAABAAAhERACmNCB/sDASAABAAAkAApBTKABAAAkAACACBiAiAlEaED3YGAkAACAABIABSCmUACAABIAAEgEBEBEBKI8IHOwMBIAAEgAAQACmFMgAEgAAQAAJAICICIKUR4YOdgQAQAAJAAAiAlEIZAAJAAAgAASAQEQGQ0ojwwc5AAAgAASAABEBKoQwAASAABIAAEIiIwP8D+e0QzmNmqOMAAAAASUVORK5CYII=;" vertex="1" parent="1">
                    <mxGeometry x="-23.78" y="-995" width="232.28" height="90" as="geometry"/>
                </mxCell>
                <mxCell id="101" value="" style="shape=image;verticalLabelPosition=bottom;labelBackgroundColor=default;verticalAlign=top;aspect=fixed;imageAspect=0;image=https://beconnected.esafety.gov.au/pluginfile.php/87852/mod_resource/content/2/images/t38_c2_a1_p1@2x.png;" vertex="1" parent="1">
                    <mxGeometry x="-10" y="-920" width="164.95" height="120" as="geometry"/>
                </mxCell>
                <mxCell id="103" style="edgeStyle=none;html=1;exitX=1;exitY=0.25;exitDx=0;exitDy=0;entryX=0.5;entryY=1;entryDx=0;entryDy=0;" edge="1" parent="1" source="56" target="99">
                    <mxGeometry relative="1" as="geometry">
                        <Array as="points">
                            <mxPoint x="100" y="-320"/>
                        </Array>
                    </mxGeometry>
                </mxCell>
                <mxCell id="104" style="edgeStyle=none;html=1;entryX=0;entryY=0.5;entryDx=0;entryDy=0;exitX=1;exitY=0.75;exitDx=0;exitDy=0;" edge="1" parent="1" source="24" target="99">
                    <mxGeometry relative="1" as="geometry">
                        <mxPoint x="-560" y="-750" as="sourcePoint"/>
                        <mxPoint x="-71" y="-1140" as="targetPoint"/>
                        <Array as="points">
                            <mxPoint x="-240" y="-1432"/>
                            <mxPoint x="-230" y="-910"/>
                            <mxPoint x="-90" y="-910"/>
                        </Array>
                    </mxGeometry>
                </mxCell>
                <mxCell id="107" value="" style="shape=image;verticalLabelPosition=bottom;labelBackgroundColor=default;verticalAlign=top;aspect=fixed;imageAspect=0;image=data:image/png,iVBORw0KGgoAAAANSUhEUgAAAUEAAABICAIAAADnFNAaAAAgAElEQVR4Ae1diXcUxdb3D2CmNxafn5BkMknIMmsySUgCCUkIIYQk7Ivs+xYSEURRERFFNjcEFXwiPFTExxNFwAUUMCwhAVkEFUWRVVT2XUjyfdXVXV3dXdXdk+Xpd85w5tS5U9Oz0Onf/d3fvbeq7/E4WG9TPuDnE8YI1uNgPaZjBDqGAQdLD2hbHd0RypGizRBHdwSY1z7CsRlom47hjNvw4RJfNR1d4QzpYRcnLY9hdlc4fDAuaOvGBHFGGcPswBbHBJ0NZ5p0jBe/VBrb2BLC7PFtwE+Kl2w4Y4sXZ6SxDXhVZcMZ1WgDxwT/iBPfQhzj2tik+dbAkB7QNh1b2+JMHs3QAbGtgU0c73FHMF4RS+Kot+GMjAFwpGwDOGlsRpxp0EhEl0cDLVMURWAowm0jaNlF4IHRFa614YxmVLAhgQThCsGGYuhQREaXCCRXuIIoiCvaGCSuABLkh96GM9go4icBQxFmA2AkhImjeLlDux5oqd9bVOhqDX4GwhWw4QwVURAnQY3N4kREiaPebiYijTzGtlbmoa0d7wcHxJqO9yvH3NNYPKxi2gjA7dKMzLTQU1C4F/oCSLMav6D3FPoZ6DXgvORBLPkC3DX8ZXwLkQ8pF3kB4Ees8a0Jx+LeQWFaQ78gAxshvKkMiVch62LewZxvJXaFpCoycPDsqvcXKl9A416qLxBJmPgqmWwVjsU8gsS0cIbIupCNZeSD46kY9kAcSqOKn0UcMtII2dgSP6swZoWxDXAImblB/GzEyRiNS5wMZjQ8TJtRY0/GmMLVanKGnAxftcDPMMoFyMSiXL3dSDisDz9jCIT8LMbA/y1+hjiE+FRhUs3PIOgl4k2ZJ2MMx5uhLfGzASfHmXKyeIAEVzozUzHcEJGMc7spP1OYWVbL9dXAeJyP+QIWs7WqWKuEIUtbjNthxE6P26H6hTrZQAlDASx6B1wMN4CrKX5By8mQmXX83Ei+IDgml9QviZ+h4oXaOD4IDRw0V6vwT+NkJIAV5NPZWH+MVX4G7saAk+9xi0wLEeshaGNZD0OmbRq+xTnZAGMK9zZB3OvG+Fa2FW1MZODg+Bbn4b8d9wbHt1AJ6/SwyLdQFYsjJMOExohy9XEvPtMw7pX5FmAsKFUMjw9OD5tzL51vaTq50XhYxbdiohvpYSxnJrMr8AVqG/KtiY/QK2H9jKSNDXwB5FttHK7XxqYMDKNxOvfi2WlT7sU8Qr20sQW/oOVeSjT+F3Ev8CNYHK7Y1vLPjaCNLXEvjMAhA5tE4zInB8O3uB8x4F6cmakYVuthMUcla2MY/cI8NkEbE/LVONII+Sech2m2KSYBMpuEnxVtLLOxiTbG0KjJSzWSNm7afDUt7sVy1GGYrctXE3EoZa1hNajpmZmgh/F42KI2hthT+BmWgoLjaqiHRWQqGWmcjaEt56jEpDQug5FN52cqhhuih/H3GvCziRKGXK3l5/rkrkX8S37Eki/Qc3JQ2tgsW2bAyVAJ6/SwXhtrvAM9j63wc6g+DLk66NGAn0P1YakOhHOvJYyZRrl4fIvbRujS1oShKpa5l6CNQ/VhOfqF+WdxFOkuVB/WMy3Ot7itZWA636r0cKg+TEhBN0Ecbo1vG5BzVvJkVI4N1Yfx7JexbcC3eN+IhbqUrIRhLtqqHgZROtTAUBUb6GEZ+aH6sBEtIxkM+dlEA+O1YrUebiQNHA4KwqhnK1QfpqGxYTlqHHtyvhogMDgNDNUvhkMjJWzEyUgMG3ZuNYkehhpYqlfpc9RwRpOX1meqcT1skifDc2YEG4vPQ/VhzBfgNWHcxvLVf1GOGuTV1P3SUtY6VB9GXI1YOlQfJvBtqD6cgGeeoY3ln0P1YYyZQ/VhxMba/HM9uqYhA4fqwxLT4kpYicMpfIt3a/5F3BuqD2trV4hp9dyLz1Bj6VB9GO/QkHskYXbaRBur9TBe9WkkbRyqD1urMFNzVKH6MF7+NbVD9WGSL4BewGQUfQFeGW5g/xY1d23QvwU5GbL0f42fQ+uH5WXDSl7NgJND64c1elipA4fqwypVjOlh2Iml65cO1YehNjbKQsOakFEuunHrw4lRzUtyA4sXzj7yzf6bN27cunnz28MHFi2YVZSd6I8SNAys4lvYlSnnn31OPj/DNf/pRw/s3XPt2tXbt2/9ePTbN5Y836NzalJ0S6lbE+rheuafCf2bWC46mPVJf0E/Vqg+LGahQ+uHsZ06sLoUecWSpfpwUnTLebMeOXH8WG1tbZ363y8///jMEw+lxP9D7K8SM0n0tQpeB/to+ajvDh+sqalRf0zd77/9+uqLczL9DrxPC7cNcKisYdL3RZp2cVkqC2v4Gca9Cksb9m81gQYO1YeD0cCEfmmLGlhZIajEsVgW2nqt+G+wfjgpusWBfXs0qENPr129smD29KToFho2hk/x+vCzT065cvkSeqPGOHH8WGFHv3YNE14rbhA/S7VizBeE6sOh+rClfmlqPgxfO/H3Xz9ckhv46cfv9TwMcXj1yuWy0f19kbzCxmB7LVQTYnyR3OSxAy9dvKDBLXp66eKFkQMKceLF2dXIboK+SLkmDOkX9maZsK46/2yWc1b6IuXaz99o7w64DgmuWMLWJOFVYkwPh+rDGDP/vevDfic/YVivs2dOIdRpjAvnf588dqDfySu7Z2FdWcP6dvn5x6Oat6Cn586emTJhiMLAofqwuNcPlou2vDIJ+AI552zoFwzyz6H6sNIRrWZa7fzfef2wL5LtGMd283H5bi4lGizx8zpYv7N56Yg+t27eRNjTGGdOnRgzqATLS0k8XJwTOPHLT5qD0dPr1689O2NKYlRzSMJJkWynBKbQw2THMz4HYTGTESfr9XCj5qXwypCsgU20sZqfm0Abh+rDwWhjQlRsURv/f1k/7I1ks+LY8mxu02ihulx6VEwU5hfzXT1ckhMg+dHykdeuXUUI1BjfHzlU0imAC+PCTO+PR7/VHIae3rnz58pli3yRvA9Al326kPtqgvLVW8YJj+ZxHeNYbyRcKox2/IDeIbR+uN78LHM1XFGMjQb8HKoPa3lYzdJ/i/XDA1O5NUP4PWUKihCSt00QHsvj2sWwybGtFs2fdeP6dYRDjbGvalc3kJoCFJqTEvPFpx/X3L2rOQY+vX371qo3X02Map4SxTyUw302hvC91eXCRyOEsR1YfyT4QJSRUhYMmmae8TXDuG2UkdZq4FB9OFQfxnQvnpHWa2B8b63/en14XjGPQKs3dk4UFpbw/kg23XX/28tfJcISTlbvrsjPSEiKafn5xnV37vxJPLLm7t11769q7w1PcrKP53M7J5IBDH/GOwP5FCfKkKlWI/Xvlrnxw/e/rt61f2/l/r275Qdu7/5anCeOWzdvenHuzJK8FMUpQJyjsDyc6VPYfsO6NV9X7/q6GnwUeawW50nj9i2fvDx/Vve8VE8Ea7aK2N7e55j+4JgN69bsq9oJvsjaY+vmTc/PmVGUkyTtRI3xKuqUdkfYc+KYKbns4t7cq735R/PYfBeM7UH6CtfAuK3px/JFMH0DzDPduGV9uYUl/NB2TCASZr9UYwd/5LLFC/dW7kC/f1/Vri2frp8/+7GCTK8rnNF8rLx/AGF9Unuf47HJYzd++H51ZQX6tK+rd6//4L0+hZniG/F9KiXb4+B7dclY8uKcbV98uq9K/MNZOJN7dm3/z3v/Khv9QDtXa0LULbOuJ9zeK5F5piu3rC+/sDs3LJVNcpjubiuvZBRj8vjWtvbRttIsdlEP/rXe3PTObGeXPSGM3CMdXH24fSy3ahBfReJhBOnZXfmAEwSxn6xfSyPY2trajR/9e8O694johZNfV+/KSY72OZhR7bndk4x8x2djhI5xCgPjbNyvWweajzD4auJL6//zbk5KjCeCxUWvO5zplZ/WWF+x8cP3c1LbugGSYeJaNQZiW02fPObWzRvEn2dx8t/vvtUxKQqmtRAyE8LsAaf9iXztea4sE+aXcO2iCIjSY8wVbuvuZz4eqf1LfTmOH5DMeMPFDLaYr/Y7mx/cX037wbdv33pr6cvpnjDT/T18zuZTS4ed/+M32kedOvlL1yy/fvFwbmqswcVJ+zR8/tTJX8YO6el28PK+01J9OKGNrZvH9tEI7UnYOp7vF7C7lN22NGuMVfVhb0Szh7JZDWntKRMW9eQyokEXh/mD3r8F1jwU+7gPhhlRYkWpMDWXDzi5rMTILz6jxsn4GdHYtbW1+6p2FWb6/JHs6PZcRanR1300QuiRKO96qasPb/7kI82H1/tpbW1tdeWO4twA9BGIljd+9H69P1Pzxtra2r17dhbnBCAby2snQFYsNf5/VixdZJAv1HwU7WlNTc3uiq1dOrg1ubTpnVnkhTXG8v58dhzwJlolDGfk9cPD05lPKWJn81i+2Ks4gkmjBtB+HprfunlTXnqC3lOgmXRP2PLXX6LVMtHnvDR/FuRwtL90/+KOR745gA6ot3Hnzp8vPPdkYkxLXAO3i7KvGqgFMDyfX00UJuew3gi78c4eGW3tL/fgNH8C9HRuESd3R+OcrLWN+6VB1qrQx20Za4SrbROEEekAV4WZ3m+DP1+HD+7rld/OG8EMacduplwW8H+1dbwwJI31itlppIRxHj5yaH+9/0j6N9bW1lbtrkiMaoHXh7+u3q0/st4z4ld85Y9qrlCxGPfOfmKyQYohqK+rqanZtuUTTySP8JAQZm/fllk1kHrprHyA79AWBcOE+vDAFPaLceRrt7pcmFnAJTnAu8TeaducmQ9b+cFbN28KxN6rZ9H4Nja3g5v39KNWQpL331mOf0JeesLBr6khgJVfhR9z9eqVR8pGxbexIyXsamMb296+HUu7IvhVlwvbxguj0xkRhJB4wSjiTRp9jmZzi9hKSpy7bjhf4LarSJjOt+Aw0qvK2sMSP7t1PPVvVl0u7Jkk9EpkQTK5Xdtzv57B/+fG9m+/nh01oMjrYLu4WX1ghp+R3ZP48Zkmmed6eBDjn1dXVzdn5sOIhN0RjEGDmulH0Q54dsZUfM/KNFfrxgIw+sbpD46W3ISsjTPb2tcN46vkcgN+qqvLhZd7cIFIsiou8TGbx5Ivhj1lwsISDncWCWH2uU89gn6GgXHt2tVpZSOJ2rhTu7hjP3xn8F700trVK9D9DV3hzAvPPXn3zh30asONqt0V7X0OjTZ+LI/dM4lKcn2SgC/Ts7ErzPZwLjUa+mIcPyCA8A+JF8+ckTul8ZXD0FYw7I9kx3Xgto2n/tDqcuGzMUKfJFD1GdQj96cfvrdyvi5e+GPKhKGeCKbAzf57KPmygNfW9gnCQ7n4On5VoRhxclNg+JsDe1Pi/oFUcVNg+ND+6kBsKyn/FG5/7qlpVs5eUMdU7f7K52yOZ6dcYSAT88ko8t90T5nwdAHni1BCYojMTvHMe4PJf6k9k4TFvfiUKKyXS9TDcy3/dzZ/sj414X6cSKFtkcnr6uoAhuX6cLonrGLr5qDOkunBt27dHFCSo8S3suKd2YXdWUo+LVvG8n0T7QnykZDDPWG2BzsytEzTVxOFse0BAxutYcJ1MomBITMrGPY62CQnU57N0b61ulyoKhf+M0zIc3H+KKF89IAL5383PiNXr1yeWjrM62DzXOy7lMsCAnj3JP6pAj4QharBaj2srKlgmwLDv5493R1LUzcFhs+eOVWSm4z08JefbzQ+dfV49fTJXzpnJGhUsTvc3juJoSUgKsuE2YWcR8y3QW2cGmVfM4R8pVaXC6sH85lKBI5Ccas8XFdXd+3a1X5FWRoaT2rb6tzZ0xb/y2tXr5D0cJg9Lz3hzOmTFt9o/bC5sx5BbgJpY3+EbV4RlY3Xj+Bz40VhLK6aSAizjc1gaBH4zlJhbHsGfDJ5y0s0r6y7MNbDqnsaeh3s9M4csVyMIrEPhgsp0aDq88TUcX/+eZt2av788/YLz83wOfm0GOa1vtTLArqGZX142KGF+BbXwHjOiYjhy5cunvjlpxPHf1KNx7EZ0f7t17PEhPP5P34b3rdABBioEhMxfPXKZfD5Zo/ffj1D+4ohvfNRrPvdkUP681ZbW3vxwvmTv/xs/C2/nTtLjB7P/XqmbzdQetE/+gWYHZRK3q5SvjwbFJwSwuxJkfbVdFf72RgB08CAdpAeJoYVd+/cOf/Hb/pCxkdr38UREt/G9uyMKfqzcfHC+atXr+jncR7umuUnSpLbt2+dPX3S+DSeOP7TlcuXiCm0f735KtLDstYFUa7fYXubkt+qLhc+HcMHIiVe7eaxbR1HDn8qy4THOrMJbSi5aDrfqvSw8f7S7aLZecW8ce1n+QA+Ox4kwxbMnn71ymX9ia6pqVm1/NV2CfclR7HzS4wAvKdMWNpHZmAL64eJGF7ywrOg9VpadKHqDMF9QWJU8+Wvv6T/tRfO/z5yQDckiYkYfuet1wDIUSWZ0i7idzZf9soC4lcM79dVyk5HsD9+T+hjO3Jof15aPIq3NYyK5hOjW64i1ep//+3XAcXZ4DBZDyPbF2GfnMNVUGC8ZRw/Mo0JOO0Li7lKiur7cDjfxaWNupGzIOrh4z/92DXLp89B3r59q7Bjoox/e4YvQu/Rrl69UpQTWPHGK/ozKWJYqgkXdkzUp8Fu37414+GJGjdBfNo5w/XtYUJCe/XKZRo9jNi4ndO2aiA1xbBqIN8xzlbstdPy+VVlwsJikA6UfQSefwasC/kWvmrAvXIaDByviqVRv2T7WG5pHyPgVZYJL/Xk20UzybH3Lntl/u3bt/BzXVtb++6Kpe3i70uK5BYUmxSf3+zPZ8WppC+CIpGTiRhe/MKzKnThSFPb3fNS8J8KbQnDMixpGJb7pU3WMxVkeolfMbxfgYhDuzuC+fH7I/pjVr7xCkKdHofKvnZh9j5d2+vfLmGYxMOQY2fkU4XSlnH88n78TkrN74uxfP8ArEVhShjb75Koh38+djQQe+/sxyfrf6oSD7exTZs0Qt/J+96/3nA7OKLDxXmYiOFTJ47npcUj1EloJPVIe53N33nrdf3Pe3flMhrG4lo3y4m1vzuIjI49k4Q1g/lNo8ivVpcLz5dwSQ5t7loGJIWZoSqm8zMZw14H63Owa4dRfwqMq2d1BS1c/ihh6+ZNKCapra39fNOH7b1hvkh2emeellWHn7BxFJ/n4pTVS/jKYWjr6sNEDGM8rOroEt0BvmaY7dLBrf+b1ZOH1d4BsXROSgzxK4b36wr1sJvCw68vmidyL1xTge+kpd3rozg3oP8KgOGSbC17qzl5bhEVxkgraYzKMmFwKosol2gQefjnY0eT4/7hCmf0eZOzZ04V5yYnhNlT4u7b8KG2Gn/j+vWinIA7kqdhWNLDbexEDP987GhuaqxUPZayXxJva9jY4+BXLCNQvQEPQ49Q5LF/PsYEHZrTWF0uvNmPT44SiddICSsaGPcjBpxstL90djy7ZjA1bIA/cXoeF3AyyW1bffnZBrhTh9jSkOSNYMZ14GiaHr7345F8d78qAMbjXppNxPDi5814WObYLu1pGC6UAEbRw++89ZqGh9VogQ1YQFhmUzEs83A4mYdff3kekYdh9xXgYbn7oiiHguHibCLG0GRKlP2VXpxBmURz5W0dJ0zMEkNow/XDRD0MeThBlLvIxUPXc/v2rQXPPO6KYHsXZFz4Q5sZ/WT92pS4++rNwz8fO5oDMAzQorAx6T6jboDhRXpviPGwpvsKxcDN+geYz4KB8ZohfF4CeLuIRjrl0vlWpYexWjGVhyEVF/s4WmQP/9g7SoUHszk/KBrHVmz9/Oh3h0tyAx4HaMYyrjZvHCX0DWAMDPlWyT+TO6U9EQwRwxgPw7Ac515Vz2Zj8jD0C5CNZR/hDmeKspP0l8WF87+b6mHEw2rvgK9elGxDHiboYSUOD7d3aEsNBTUA3lXKT89j9cUn5BGQYcDDCWH2zhmu4z/9oDkn1ZUVHfyR765cppm/fu3ao6DQzRhhWLoHqjEPm+/XUR8extYPD0xmvqBU0TVncsNIIS/ers5Ck/lW5l5FGxswsLY+jMSwtJ+OdLdh0JhhUG2qLhd2T+JBa2QEk5XoDMS09ESw/QIm7SIVE4XRGVoGRjKYaCBtTMSwSg8brh+m83A3Yx5+d8VScY8hzuPgvA5OtlmN7aVEgH/8fm5wr86iHgY+haiHJR42XMcP2biYzsOIq/HeaQQ2aHjC7bQWDvzie6Un3suhU8LW9HBCmN0bKaz852INVuvq6iaPH6Kf/PnYD2nuNrBzixZLo5DYMJYGTRcKD+O2zM80DIs8LBd4AJ/r8Sbx86Qsdpdh5391ufDlOD47VsXAOBs3cn1YA2P0dGg696VhC9dXE4TuiRw8Pt9jIqSryoSHO/FGGhhXxVp+JteHMR6m6WFpfmCPXP11Y0UPX71y+dSJ48aP0yd/0adn4NcBBZgTMNXDeC8X1Ma6EWhjQx5W8zbUw8AvqNYP5yUQFjPgAF7Sm3eLBScDX4BcgzEPJ4TZRz5QdOH8H5ozry871dXVLXjmcbi/tLkeDjPmYaiB8VHLzDQMr165DLkJsheQPUJCmO2pAmpDa3W5sH2iMCyNhR8CeBgqYSM9LPsO5V5tYMaAjS3tLz00jTXFcImsbDu72bWG/VhVZcLUXI5ItjQNDOdh7YfMw0Q9rIt1C7P8O7YR2nrO//Hb0N75IsCo9WHN9Rfs028O7kuKaSnlpS3qYfp+HfXWwwh1WW1t6wxzlvNLeOvrhw30MARDYkzLHdu2mJ60X8+cgiTcQB5W6WHIuhr8iCiqrx4GiWW5btxsWicG930ae9t4YUBA249lxL0W9bBxfRjRLzQKPOaxdE9xmVHHJGegbSuvg+0XMBHDUiyt8G0Qe3QQMVxTU3P37h3TR83du5rkCryqzpw+WZSdZFwfNr3+jA94clop4lizvLT5Th1UHqbUh3E9DPux1g0ndyDgl+CsAjyWJrSOII9gysMJYfaxg3sYn6K6urrn58xAdWMjPdzGqD4s56W1rItTK7QNeNggDse5dGQ6U0FZDoHO5IaRfPsYnF2hTY7PId9CH2HAvXI5il4fBnvcRYDyUrHXLKc1EeS04EKIr74EOa3iHLCUb3R7k9brjaOFvskmkhhpYJyfiRg2vTiMD6iu3OF3NjfWw8afYPzqjm2bPQ5lCbGJHlZXgzSZahjZmuphhC69kR7DLO1rFP6hi69iolDWEaytEz+k/noYrG0S09oGa4zr6urOnD7ZOcOFkGaIYQmfQehhWQODsFbmZJGHCbUlLC+N4w1xr6SQe/ntGym96OgcQmPNEL5jLIyHlbw0roplTNYnX22Ulwa1pSGgR1rzg/Cnj+dzyVFgs54vP1dqSyWdAj4HOz7TvLbUww+SQ0ba2Fp92BhCpq+WjeqHSLjR1y1V7tjWVdzIAvkIMx5uwvpwstM+r0i7MQD+B9XYm8eCjTv0jkAzY4WHE8LspSP7E7tE6+rqamtr31v1z8ToliIPA69hrof/uvpwXBvQjPWxbmMAzdnDn658gMuKVa80JjdL6/kZ+BEDTqbWh70RjGmPx+yunM/B+py8vscjw9PG62Cm53HmPR4JKjYmcm+T8vDa1SvErTzgfloAP8Q+LVNHQDzgk4//kxp/H5TBaHRb1MNy1yTk3kapDz+aF3SPx65SocjL4HtK4zZcP2yghxOkLgvAnJmJzv2UGw9cunhh3NBeiIQbUw/D/JPMvXgkXF89bMuNs22kN2Ph0EV2VbmwqAebGKHwMJl7Leph0/pwh1iwbxD6er1RWSYs6sWnxbApcfe+sXghsdcyzXV/kpNZWGJy0SzvL2TFwTXDcK0StTIMO6IbMZa+ffvWxx+szkyMxEmYxsOnT/6y/YtPt3/5qTJ+AeyKrZ9r/vuQVbZt2dSlvRtt9IPvqkXj4eWvv4hloY1Uce+CdL3LkPu0yPXhxEimPJua2vhqorB6EE/r/fh0jFDsBeluDf2ipxZ52O3gXp4/i7gmZF/VLrg9gCU9bFgfPnH8p07t4nB3QLN9zuZvk3otjfq0Wtsy2trf7EdGx54y4aMRPG3vhKoy4akCzhuOx+c0G7CxAffirxJiaStrHlYM4HNF/pw/ezrxViw1NTVvL381Nf6+ZABj8n8YugZ5zQO5ZRqlrxE/NwqGa2trD+zbM+PhCVmJTiXElfs0iDz8zorXxd/AusXwXrYZX6RAXIFw7IfvCjI9IiYRGqVeLpoe3lu5I83dWqJrA1UcZl/8/DNkDBdnE+vD7gj7uA4srW1u50ShvCObHg10MrEXoKpcWDOEz4oFe7iJuMVG+vphqU9L3usD3i2xZ346cZnhg2MHaZBWbz1888YNSOkGeSlY7Ongj9y7Z6f+TBrUh30RzV7vQ13Yt34EX+CyP5BspyW6KsuEWV1YT5hWG5M5uR7rh2Eieno+9SdC1K0fKbSLAYuWZkwdb7z28MXnnvRFCekx7DKK34IfWFUuLOvL+xzymmFcIVurD69eubR/t6z+3TKJYz9svl+3zN5d0jqnx6fE3Qu3tkfeAbExEcP/+ucSgHZSj3Rualv9W2pra7d8sl7vIGB2+uh3h/WXTs3du2dOnzxyaP/hg18bPH4+dvTWLcKu/b+dO9u/KEvtNaSacJGXoe3uAMgBaCLAsR3a2jfodsBDf6MPhgtuKb+lJWQaDye1bYW4GhqucObjD7QbJx799hu3Q8mBw/qwy8H989UX9GdJWS8RZu+a5b95g7Cj4PVr145+d9jgHIKXDu3/9cwp/a386urq3n7rddyhIF/gDrMt60PtPt5ZyncUlxDHt7YNSLZXlpGpa9ckfnI2K24YAEnYYFS0sQEnq+rDSSDcInti9IdcN1zo7OL8TqF8zAP6XnbNGQd7AEwEm3jku1ja1hDwk8U9ALiAk9ojiQBG5OEnpowjoEtXHyYiSp6EephaH17wzGO6fmmFVyePG6SPR2pra597alMeJh4AAA9lSURBVJonkkNKGHEssUytOXvBPj196kRBpleDmYQwe4GHoUV31eXCK734QCTkVYDM3Hj7BrrSe7M/nxYNFq+DbxFHAz18YF+VvDhBVebpmZ+OLxi8e+fOow+OxjGD7BfnztT3geDrljpnuILaFsriKV347AysAixlob3htpkF7G7K2szPx/A9/HAXLqB43W2aTcllaPt+bBsvDEpVb6OFKNeiHibWh/2RIJNM89YQaZvHCP2TQSVpcM9OQezFA2DMFnrZdYa7Z26fIEyRej8IvVZiUA3m9Rj+v+0pC7N8UC3rY288H4b3iiCnIBnYfdj0pFpXV9e/KEvLw3Ls7Q5nAjGtiPtvnzt7ZojYPYLrYVc48/L8WRavJ+uHHfy6KilG3O4Hi8OLvMyH9PTp4l58uygAXTwC7+6nvmX3JH5+MdiFS+MpiDz81tKXNYfBp65wZtP6tej/deSbAzmpbaFf0IyTxw3Sr07H1w9n+CKqdn2FPqpRjLt37gztU4C4F/VpPZTN4jckgYiA4/YJwugMxgU3i5ZrV4kRtlldqZtpbR7LD0yGm2mhXk5FA9ezPmy6J15VmdAvmfM6mNx2bc+dDWJPvN/PnR09sBjA2MNsMqynyXviSdoYRbk4DvUYrty5zeMABK7FGG0Gw55MwuJ75Xk9hr85uM/rAHQqRsLkMRDb6rvDBzWXEYioP12f7gnTUHHHQNTdu425k1tdXd1zT01DaIRoSY9m3hnE0aqDKwbwGTGEupEr3D44ld1K2VltzyThiXy4FFFhY+L64a5ZPgWTYnIY7S/dt1smlAM1NTWvvTzXFQG6EfWP9j7HiePau3bhPOyKYF996TliPKz5Q1h/+s2BfVmBaJmHpZzT+A5UBq4uFx7qyCSEwbgXjaCXyx1mm1dMhfFnY/gSH6BuczGMZaHBwWqulnJa3Uz3ph0vjO0AOqILs3zErQ+Mz9Hhg/t6d0nzOtgRGdwW+o6n1eXC1vHC0DRQspLqxmb14Qvnfx/cMw+xtMzGKibHfIF5rK7PS1++dHHMwBIrPqJ/Udbv585qTkXN3btznnxY2sFDdBPQXvLCHH1CW/Ne608P7a9OjIa9nFK/dLto+2v0jRw+GC4UihtEE3aZFmm5LIvZTtn3o6oM7Kvscyj41/DwnTt/0kgYOpeUuPtW/nPx8Z9+2Ln9i5JOKRq6jm8DeB6q4iemTsADb7gnnhyig26tkrzUH0gbKlg/dfiRt27eeOaJh1zhDOJhV7htcCrzJWVjnZ0ThSfz2Xg1A6Mekrg2tmSn7bXe1MWeqwfxnaytZzLWw2CPeOMod8dE4ZE8cKuHzMRIg3sp4edCY8t7xHt9DmZcJruLsl8EjEzWj+B7iN3XGPaU9YM4D1+7dvW5mdOSYlqaM7DMsUTiFSehHtbWh69fv/bic08mtW2lZ2B19ghoY39Ui5mPlOrDv8uXLg7t00WhYjHWzfCGfbT2HWKhRXP2TJ9+c2Bfz/w0DRIe60xtxvpwOF/iVxAoZ5thhCzlnN3h9vJsZhulkXDzWL67T0QaUMU2vD58986dTev/neGLgLyK14dxpg3E3lvSKQUdhr+E224H98rCZ/BNs3Aehjw/enD306dOmJ4lKwe8tXRRasL9ci80iHJTnfa3Kdt075rEP1PIJkWouBfvvoJ2Tpxt5QPkv0VVubCgmFPxsJpj9ayrn7kH3KtloMl2OXOLwX5XXofZvVo+fF+fcsRP3P69lTkp0WILF/kubUhjfDZGyAZFY0KtGGH4yuVLE4f3SYpuoeZek/XDSAYbaGMUS1+7drV8zANUHwH9gnr9sN/ZfET/Qj0bf3v4YHZyjEYVp7laL3lxDn6K6mFXV1Z0zfJDF4NyZq5we0Y0s6Q3ITUK6oJxAH64BsZt5As84fYR6aw+RVJVJkzqyPrFVDY8GOfhFW+8kuENRx9i0VCibqkWBTgW8q0vqsXjU8ahlCHAsFwfFtEO/i/FuclVuyvqcfbQW65evTLj4Yn+qBaIgaESdoXbBqUyW3XBY1WZ8FAO47dy16XWthSnbQEpqH5nIJcbh/ajx2vFijY2YGBYJb5nvvE900qFl3vxfge4Z9qqNw3vmVa5Iz/DlRTdYtNHa2ncUnP37ofvv93eG5bkZJ8q4GhZO4jkt6V7pmm18ccfrN6xbfNTj07K8IZpcYjlpcyZWY09nJ8/eO9fO7dvefqxBzv4IvB5WQ8DrpZtgjZ2hTNp7tZPTiut2Pr5of3V+/dW/vvdtx7onuNzCiLGYKwLc9pg7JrlW/LinOrKikP79x46ID+gTRz37z20f+/+vZVrV68Y1qfA7eBwBOK2V7zT16Ke3HtD+DVD+CW9+QEpDI49KwBLj2YeyuZWDuDWDObfGcg93pnLipW4GrxdRNrDpcP2Vu5Yumh+UU4AYQ8iUB6B3JVjYIL0xbmXaGcmOp+dMaVi6+aX5s8iHvB/G9yOG9prw7r3D+yrAmfS8qNy57aFz84QlzqReiFBjqpZqtM2KYt9awC/ZjD3zkDuic5sZltVLkrWz4iTpVdFBAJtnBDWrNhre6GEe28wv2Ywv7QvN7id3Qc4vMF6eEgat3YYmYcrJgpPdeUz2oJmrEULjO5dun9vZXFOEiwv56REb/7kI31JADo8cO/S5a8mRbdIi2YfyeNpiZMNo/jxmVwSugUxqBhLa5uSolvCJRnyDIGr1cwMNbD0CcT4XOMLEqNbSEkylBUz3FdA6y/kuN0TwQZiWuGrKaBH0LCx6BEYbySf1LZVcuy9gdh74RgQbd3YSpxp5Y9qgXkESQMTZsS43eew+x2MG8tXw5VM+vVMGn6GIIeH+Rx2Wn3YE8lr7hRjxTvQjoFKWBol5EtxO2iwcYBb0gAY4yNcySTOeCObJ8a0TIxppRtbijOqUTyNoFpm8EDMnBBm80bYXOHK7gKgcxPv5STd7QHv7oxrY3O3sXnCbfHkZmlNrRh6BDBpwMb3eBxMxzh2WiceXyG8e5KwpDdX4pfuIf5ImdE9xI9+d7h7XoqIKIkz8zMSvv/2GxSlaIw7d/5cAe4hzvkdTIGbeb47j8vjigmgHy07nvE5FA2swZgWMwhpmh4MUqyL86rahnpY4dXQ/YdlnSyyroglrCasqg+LHCsyrTr/bACMRnwJYQyuSULVIGk/Lfr6YRFdWuakMSo2r1o/rJtXOqL12hhKXyPutaiHifXhRCfb2c31TGSLvFx6W6B+vQ42Map56Yg+BvfmO3vm1IRhvXyRcG8akEyGJFmY5dNvoYTAfP36tTlPTgV0B9wqmxLFFHrYHolsvocNSNxrzq4YD0saGPcjVvgWaWMl51wvvlX7AqVMReRbyLrYCDsx4S6WqCuTzqtwRw5llPpMcF6l2YBj4Z0N4SjvsEfkXhpJNuK8FF2LPwNF2nLsrehhAt/K64dFRyBysiGRWvQXKl8A2VU/ktZOaJgWz0uL6TENu+K6F7cVDQz9ggH3ymkwwM+EfmmIXk8E63fyE4b1OnvmFMKexrh04fzUicN8Th42LWoi2EE9cg2S/ufOnpkyYQiOOr1tgEPIzA3iZznipSFQnlfy1QYaGFfI+ny1PKNoYCn5JK9Mkp5SYl0ckxBvYIaCQDjfSEiDuhfEsSpOxrumdfyMoVHRwDA7jerDFkFVj8MgDuEbVZgkrR82xJ4Sx2JMa0kDi8dLXA31sOkoY5Kujen8TMWw18GW5AZ+/vEoceOLurq6G9evT5041O/kIebxEbKx38mXjuhz8YJ2FyXkCC5dvDBqQFGw64c1ngJjY6SZtRyO+QJL9WECP2uidFr0Ts+TQU6GfsGAn0W0w5yZ0f7SBN2rMLOawyl+QcvJFH5uJF8AvYDVEa8PYx5B0cBybkyZkXeThpyMj1Dowhkj0avxFyr869lYngFewIIG1jIz7OUiS2K97zDTw25x/0qZe5V7LyVGNUclFoQ6ZFy/fu2luTNpdR2cUWdMHX/50kX0Ro1x4vgxsU1SEtI4uxrZjZR/lpkWRr8K38r3Ila0MZGBZXbF88y4TWJdgDR5bSBuU5AGGbjpuTc4vtWvH8aQBrlXQQutPqzBTEOeNox7ZcyI+We8MmzN1mtjIz2MK2Qy99L5FhxPepXKw4GYlvNmPXLi+DE9D//y84/PzZyalvA/eu6V9DBUxeLodXDTSod/d/igviHu93O/Lnnh2czESJFa0W4eWha1wrTYMZI2xriXnBvTxuFQCddDD9O5F/cRptyLeYR6aWPoBQz9gpZ7KdH4X8S9UuXJkh5W14cx/AfNt9h75QyzzLFKbgyfgXo4KO4Nhm/xuN1AD+OZaiqGPREgoVWcE1i8cPaRQ/tvXL9+88aNI4e+fmnuzMKOfp9TEHNXjKSEldoPAYG+SD4/I2He04/u37v72tUrt27d/OH7I8sWL+iRlyIyuULCOIFrbFNMNlFeSo1DyMzm9WFKrAuZmc7VFnAIlTDOz5ClDcZGwiTkat1opIcBomRMQn5uEMZwvFmxqfGwRW0Msafwszb/hOONZkMlDBWygSomczJeOiYxMGRmKoZxjm2IrWdmlLs2UcJwFbFu/XB99XAQ9WGCHq4HP9NzZgacjOWrcT2M20HmrhW/oNpfGnoBxRcY6uFGzZOZq2KD+rDsEURfQKkPm2ljJc634gjIbCwzMxTDsKYVtDYm8zP0FLi/MNfDigb2ROhtOCOzqyHfapizfk+D4FvTPFOoPixGyxQehoyK55xx25xvsVqxooH/a/lnHH4qvlVzLESXgjFCZQjq4aBGvQaG+Wo4b6SHId82VX24IWQL4mpMA3vgfV7kWjHkW6m5CrKrdoQ+Au6qJfsLwMAW7VB9mMqxFvkWr1RRMG/On8G+UYq0RUeDRd14BE7h21B9WAqzzerDEHVQ9+I2QQNb4meISUvqF3K4ASfjWWsl9DVlZmv5J1wDyzlqEw0cqg/jUa5sKxr4v8bPDctRi4UiiavlfDWIeINiaZyTYY+kETMbcfJfqIchJ0NiN+VnE1WsWz9cXz0Ms9Oh+rBU2dLmqA31cLAE28DjQ/VhubtL8SMGOWrq/tKyNpb1MGTapuFbXDlb4t5QfZjUp9UA5Oi1sZEeDtWHMWbWa2Nz1jXiXnr+Oej6cLDyWMW3em0s3wmVyrra/LNFJazXzKH6sNxDousb0XJvqD4sppdRekyVG5Mzz9q89P+v+jCmgaWVDFAbYzkqS/VhdfRLyD/hPEyzDfhZq4cbtQ6Ea2O5W8tEG2PdGpo6UKg+HKoPk1m6IfXh/wVJo6dZCAvxKQAAAABJRU5ErkJggg==;" vertex="1" parent="1">
                    <mxGeometry x="-884.25" y="-1270" width="250.5" height="56.19" as="geometry"/>
                </mxCell>
                <mxCell id="108" value="" style="shape=image;verticalLabelPosition=bottom;labelBackgroundColor=default;verticalAlign=top;aspect=fixed;imageAspect=0;image=https://docs.cyderes.cloud/img/cisco_firepower.png;" vertex="1" parent="1">
                    <mxGeometry x="-788.2000000000002" y="-560.32" width="201.87" height="106" as="geometry"/>
                </mxCell>
                <mxCell id="109" value="" style="shape=image;verticalLabelPosition=bottom;labelBackgroundColor=default;verticalAlign=top;aspect=fixed;imageAspect=0;image=https://www.webopedia.com/wp-content/uploads/2022/02/Webo.Fortinet-1014x1024.png;" vertex="1" parent="1">
                    <mxGeometry x="-1110" y="-748.32" width="160" height="161.58" as="geometry"/>
                </mxCell>
                <mxCell id="111" value="" style="shape=image;verticalLabelPosition=bottom;labelBackgroundColor=default;verticalAlign=top;aspect=fixed;imageAspect=0;image=data:image/png,iVBORw0KGgoAAAANSUhEUgAAAYAAAAFICAIAAADWHr4xAAAgAElEQVR4Ae1dh18Tydt//xfvBEnoRUFRrNjb2Xsvd/aud2e9Oxv2evZKUSxgr2BHFAFBgQBJIJQEEkhIthfeC6v7i7ubRrIpMHz83M3OTtvvM883M8/MPPN/NPgDCAAEAAJeQuD/vFQvqBYgABAACNCAgEAnAAgABLyGACAgr0EPKgYIAAQAAYE+ABAACHgNAUBAXoMeVAwQAAgAAgJ9ACAAEPAaAoCAvAY9qBggABAABAT6AEAAIOA1BAABeQ16UDFAACAACAj0AYAAQMBrCAAC8hr0oGKAAEAAEBDoAwABgIDXEAAE5DXoQcUAAYAAICDQBwACAAGvIQAIyGvQg4oBAgABQECgDwAEAAJeQwAQkNegBxUDBAACgIBAHwAIAAS8hgAgIK9BDyoGCAAEAAGBPgAQAAh4DQFAQF6DHlQMEAAIAAICfQAgABDwGgKAgLwGPagYIAAQAAQE+gBAACDgNQQAAXkNelAxQAAgAAgI9AGAAEDAawgAAvIa9KBigABAABAQ6AMAAYCA1xAABOQ16EHFAAGAACAg0AcAAgABryEACMhr0IOKAQIAAUBAoA8ABAACXkMAEJDXoAcVAwQAAoCAQB8ACAAEvIYAICCvQQ8qBggABAABgT4AEAAIeA0BQEBegx5UDBAACAACAn0AIAAQ8BoCgIC8Bj2oGCAAEAAEBPoAQAAg4DUEAAF5DXpQMUAAIAAICPQBgABAwGsIAALyGvSgYoAAQAAQEOgDAAGAgNcQAATkNehBxQABgAAgIM/1AZKiYYLSo2QjTKpNZK2RqDEStUaizkRoIFKHkC0YhZGU5xoEaqJpiqIRs1AoYaHA34QCpCJSZwEEJBKw/ysWIah6E1mqwz+qsVc16NMq5L4CyayEb1XAN8vhW+Xw7Qr4jhx+qESeV6Nva9GCBkyuJ5oQkiD/VwgIuRcBhKDUEFnWhH9Uo5ZCuc0RisJSKLgOIUkKcJE7RQEIyJ1oWpZFUVQDROZpsMdKJKMCvlYGJZdAVx34l1IK3SiH78mRFyq0rBmHcNDjLXF1KUxRlBYm8xuwJ1Xm34DrMueEclcOZ1UjpU24EQNCcUkQbGZAQCwUbgsQFK0yEk+rkGtlUEqpQ6QjSEzJJVBqKXRDBn9QY3oU9HiXBERSVK07hHK1TSg3y+HcelSPgAmzS0KhaRoQkKsIWubHSVptIp5VI8ku8I4gGaXLoE8arAWjQJe3BNyRME5SahORVY248mMgKJTrMihPgxkxEgjFEUEIpgEEJAiL05EERTfCRK4aTStr/5BHsJdbRt6Vw7Im3AQmZY7Jh6RoHUx+VKPXZSIK5VYFXKozT8rAGNUxsfyQChDQD3C07wHGqTIdflcOW5KFSOHkEuhVDVpnIsCvrm1hIQQla8Lve0QoqaXQCxVaayQIQEK2pcJ7CwiIB4mTEQaUfF+Ppss8wT4MqSWXQPfkcHkTjoFlMivCMmBUbj123ZNCKYXuVsJlTTjgICsyEY4GBCSMi4OxBpR8Wo2kutvi48joKV0GFzVgOBgI8UTVjJDZKtQrQrkugz9pMLBUz5OJ1QhAQFahsfvChFOZlZ4b+PBZKbkEyteABeEfBNWCkY+U3hTK1RLobR0COOgHqVh/AARkHRvrbyia1iHkHa+yDzsdy9NgYP80IytfYJ+rJea9RTn1KAwmY9Y1iH0DCIiFwomADiafVCH8IYlXYpJLoMIGDO303V2P+pBQrpWZt00ADrKrVICA7ELETdCCUa9qULdvKnGFvNJl5pXgzkxBpjahuIKh2/PekMElOhwHCwVcBfrhGRDQD3DYfcBIqqABE3WzT/s0IbMSrjESdtvfIRPgJJWv8UWh3K6A64yd+XfBfncDBGQfIzYFRdM1LYSou9raxz5MriwV0jnPKFUZ8FsVXjY8WxPcQyUMZsesBvEDgID4mFiNQQjqocJHOzqjAF+1nW5dvgWjnlf7ij1OkIbyG8BKpVWdAgRkFRrOC4qmCxswwR7mO5E3yyEd0omsDiRFf9ViPmWP43eG1FJIA3XS2TFHifiPgID4mAjHNCGkz06+LDv961q085xKMmBe3oplibyN8PNqBGyVENQrQECCsHAjKZp+U+vT43y296eWQWpTZ/m9zW9A2Q/35cD1MkhhwLm9CjwDdxwO9oFGmLxZ7tPWH0v1y1YhVCcYBcE4eU3MY+6WkLoYTi6BXqjAIEhA28AISAAUftRHjW9t/LGtD9dlcCPc8S1BRVpfN8lZiimjEq7trPsk+ArFxgACYqGwGmjBqEdK/5h/MT0+pdS8Dbdje4bASMoXjsJYUoztcEopVNAADEFcLQMExEWE/6w0EH40/2LU4IkSgTu037IaI3FNTN9vttmkfW+fVyMtHfx3ga89dmIAAdkBiKDofI2vL/Ty9SGjooMP+PPU/ieUW+XmjdF2Olwnew0IyI7AjRj1QuUfSy2WNJRWBn3RYna+zW9fowT1zGcOA1vCbjucXAKVNXW6naK2exkgINv40I0w6Rlfq7b7bjve5tShHbWza/1WKO/rURT4kLPQOUBAFmAIBVU+fPjLNitlVaMd1eLgj1Y5RlhPqhBw0ZulngECskSDG6YourwJt63nPvv2vgLRdtDF+K86Xzz77khPuF0BddRfBa7yOPYMCMgWTgRJf/b581/W+r3ZF0RH3BJN0eZlAQevmbUGjrfiU0qhps50WM+WdrW9AwRkCyKMpHLr/c8CzWjX9TKouqUDrrngJPXeb4VytQSq74i/Cra0yOY7QEC24EEI6k2dvxJQSimkMHRAAkIJ6m2tvwrlaglU1RGFYkuLbL4DBGQLHoSgXtb4cV+X6zsgAcE49dqfhVLZ3AGFYkuLbL4DBGQLHpigXvhzX++oBPTKn4VSAQjIQucAAVmAwQsiBPXKb0f7ySVQhyQghKBe+61QrnZQofBUx9EIQEC2kEIJ6p3f2oBSSyFlRzQ3+LVQrpZAqo64MmBLi2y+AwRkCx6MpD6q/cnng+XqcrqsY/Z1gqJz6/1VKFdLoAbgntVC5wABWYDBCxIU/UXrrxsRMyvhjuoasbDB/06iMr8NaWWQHu34rpp4mmQ1AhCQVWhomqZoWq7H/XTP2yMl0lH3vJU14X7hn9tyQMqE71TCnfPqJGtqBgjIGjLf4uuM/ucMiOnrL1VoRz12VGMkbvvqRWB80rGMyVaBO+N/0DhAQD/AwX9oQkj/cofIdPfkUihPjRId1DO0HiUfKPzJRyXLQfkNWEd1UcDXHUdiAAHZQcm8GdoPF33TZZCsqcNew0BQ1AsV4ndT49RSSK7v0H4q7SiTwGtAQAKgWEZRtNkOnVoKsT9ifhG4Wwk3Qh3Z2Fnsj0KRIw0dWiiWiuNgGBCQfaDqTERmpd/cycPwY1Y1QnRox1c6mEyX+ZlQXtegHdtRt31d4qUABMSDhBeBEL5++zhnUJZaBpXqOuz8i5EPRVFP/cor67UyqEQHXNJztQsQEBcRwecSHZ7mP3cwZFTALVhHnn8xMlIaCA7z+vLjfQWiA56AeNoFCIgHiVCECfOnW6g6/KVgjIhwkrqv8I9ZWEop9MG8KCnUtzp3HCAgR+Vf7Cf3cN6QwaZOMPxhxKbwk22iN2RwR3WP66j+WEkHCMgKMLxonKT8YvNbB76NhycTGiX9wxL0QY2C0Q9ffDRNAwIShEU4sspApPj2evwDBYx0poE+RdOqFl+/IvVmOQzjHd8kJ6wz9mIBAdlDyOI9QdFva1Gf3f+WLoOrDJ2JftpEgxBmv90++8NwrQxSdES/lBZq4VIQEJBz8Glh8qFPHgJINZ+9wDrV8IeVXCNMPFL6ojU6uRR6X99hr4dk8XclAAjIOfRIipbriVs+dhIyuQR6Vo00d9ZVXpKiFXpfPDP8rKrzCsVBvQIE5CBQ/0uGk1Rho29djJdZCWtMnW7y9T+R0DRB0cVa37os7K4crjN21OPAlti7FAYE1B74cJJ6W+crxqC0UqgGePmkaYoyG4N8xEJ3sxyW6zv4ZvT2aA4vDyAgHiSORaAk9aoG9foh1VvlcIe8/MsxIXBTkZT5zkKv71m/UQ6XNoFTF1zpCD4DAhKExaFI5t5UL7rmy6yAFOBn9kdZwTjxTmW8Vmr01rGMzEq4vBn43PhRKtafAAFZx8aBNwhBFTVit8o9vQSTXALdlRm+1GhRDIzzf5ATgiBVdZochTbd4xyUXAI9UiKqlk5tjPtBGA48AAJyACSbSTCSUhqIe3LPcVBKCfS0olmmUtfU1un1eput61wvKYrSarV1dXXVtfWFVQ23ylo8Ng5KLYVe1aBamOygTijF6kiAgNyALEXTBpTMUnnCSWhKiem9QltdW8f+oSjqhm/oEEWYTKba2m/Q1NbVKWrqH5frk0tMYtPQtTKoWIuBw6bt6ESAgNoBmnAWkqIq9fidSlgMy3RyCZRWanxUrq9QqVnqYQKNjY0kCXb60wRB1NfXc8CpravLr2rIKDOkiEBDySXQtTLoaRWigwH+wkphNxYQkF2InEtgwqjPjdhDJXLNTf6Dkkug9DLjowp9gbJBZTHwsdQ0k8nkXCs7XGqKopqbmy0xsQxX1tS/lWvvyAxppe4ZDSWXQLfK4WwVojDgYNLlSm8CBOQKesJ5KYpuRqmyJvxVDXq7Am73zpS0MuihAn5R2VRY1aCs5f62WypYQ0MDhmHCrekcsTAMq9XcsaElRLV1deUq9Uel9nUNmlkJt/vsWGop9ECBfKjHqgw48K/qeucCBOQ6hsIlUDQN4ZTaRJTp8De16B2HO/21MuixEsnTYAo9oYNJdaOWtWtYahQnrNfrqc5q/yRJsqmpiQMI/7G2tlav10M4pYHIsib8bR16T+4oE12XmYXyUY0p9LgOIbEO7W9buEOLEwsISBxcLUolKRolKBNG6WBSoScKG7G3dejzauSREnmgQB4qkCdVyIsaJFeNfdXitUbCgJIQTuGk+V5WmqYxDOObNvjapdFoEASxqLYTBSEIsj38YeDSaDQEQTC4fBMKTjXBpNJAFDbib+uwLBXyuE0oD5SMUNDceuxLm1D0bULBwHTL3d0KEJC7EXV3eRRF6fV6RwZBzc3NndAaTRAEs/TOJ2VODARB7hYOKM9VBAABuYqgB/JjGKbRaDjqxH9Uq9UwDHugPT5VhdFo5EPBj9HpdOzwx6fa38kbAwjIDzoARVEtLS2OTMS0Wm2nGgThOA6o2Q96sPUmAgKyjo0vvcFx3MGJhtFo9KWGi9gWZnLKH+zwY5qamjoVL4sIuruLBgTkbkRFK89kMjkyCKqvr+8kcw0URflcw49Rq9Wd1jwvWmd0W8GAgNwGpdgFkSTpyCCotra2ublZ7MZ4vXyKohobG/l0w4lh0Oi0GxS8Lia7DQAEZBciH0qAIAhHwQQf6+vrO/xvvoO2584zHvShbupMUwABOYOWt9M6viSv0+nca/XAcLypubmmtq6iUl705eunT5/e53549eZt1ouXz7Oynj17/ux5Vlb2i5dv3ubk5uZ9+vS5+Et5RaWqpkara0JQN+/SxnG8oaFBkHw5kZ3HIubtvtnO+gEBtRM4b2UjCMKRdZ/6+noXD4gRBKluaCz8/Pnh4yeXrlw9cPDQH39uWbJ02YxZs0aNHTdo0KDeCX2juscGh0UESYODgoKCpNLg0LDImB69+iQMHDhoxOgx02bMXPzbko2//5G0b//5i5fu3X+Q9ym/tq4ec82HEUVRBoPBEXOYVqsFky9vdVQH6wUE5CBQPpTMZDJxfucFH7VaLY477a6sxWjK+1Rw6Urypj/+nDN33pixv/Tt1y88MspMMS78hYVH9O6TMGr06JmzZq/bsPH0ufNvc943G1raASuKoo4Mf4DtuR3Yej4LICDPY+5qjQ5ao+vq6oxGo4NDABRF3+bk7vhn5+ixY/v06RMdHRMc3DaucYF0rGWVSoOjoqLi43sPHTZ84x+bnzzPNrQ4unWAJEm9Xi9IuJzIznw4ztUe5sH8gIA8CLb7qkIQxJE5SENDg41BEEVROI6XyxV79h/qndDPGl94ID6uV/zmbTu+lJRhGGbbdIWiqIMf3sndA7ivr4lbEiAgcfEVqXSSJG24v2HHAsz5b34bYASRyxW3M+/MX7Q4PDzCAxTjSBUSiWTS1OlXU1LLZOUtRgEPR4zHVbvH4urr61taWhwc+vHBATGeRAAQkCfRdmddCII4aI229NnaYjR9+Jh39PiJ8RMnBYeEOMILHk4jDQ4ePmLUnqT9r968bdYbLCFz0PjV2NhoY9xnWSAIex0BQEBeF0E7G+D4QYTGxkaKoiAYefMuZ9uOv0aMHBUUJPEwrThfnWRQ4uD1Gzc9fvqMsRDhOO6Izw3Xl//aKQ+QrV0IAAJqF2y+kcnBJfna2trCouI/tmwbOCgxJDTUeS7wWg6pVJrQt9/K1Wty8z41tl13wc4urQU623Fc3+iJ7W8FIKD2Y+cLOS3vgRDUSblCuXPvvpgePcRb1RKbn6RSaXRM941/bqmUywW/kY2sra21nG/6goBAG2wjAAjINj6+/paiKMFNMbW1tZWVlTduZwwdMUpsgvBY+bG9el+6miwrLxe0Q3eSQ3C+3iOdbB8gICcB873k/JVpVU3Nq9dv/vhzS/cesR5jB89UFB4esXT5ysdPnimUSnbgwwQsPa76npRAi4QRAAQkjIt/xVr6bFUqq85fujxh0mSpaDsJPcM11mqRSqXDR448evyETFZuyUEuHj3xL4l3mNYCAuoIomR9tuYXFK7fuKlnr3hr2tth4nvExv62dFnuhzyGg4DHVT/tx4CA/FRwPzSboiij0fgsK3vSlKn+tc7lCiEGBwcnDhl6K/OOWq0GDud/6BD+8wAIyH9kZb2lOE48y8oePGSoK/rsp3njeva8ePkq3FmvJLLeKfzjDSAg/5CTjVZCMJx+81bvhL5+yiCuN7tHbNzxk/9qdTobKIFXvokAICDflIujrWpqbj5+8t/omO6uq7FflxARGfX3P7s0DY2OAgfS+QYCgIB8Qw7takWdWrPj739Cw8L8mjvc1fiQ0NCVq9coq1XtwhJk8g4CgIC8g7vrtdbVqzf9uSUiMtJdCtwBypFKpfMWLqpUKF2HF5TgGQQAAXkGZzfX0qhr2rxtR+dZ8HKcHKXS4PkLF1epatyMOChOHAQAAYmDq5il6g2GfQcOSoN90ZmG40whXkqJVLpm3fqa2jrgEkjMbuiesgEBuQdHj5UCwfDxk/8Cu49t/goJCdm2Y0dDo9ZjcgEVtQ8BQEDtw807uTAMO3XufHgEsPvY5h/z27Dw8N1J+xAU9Y6oQK2OIQAIyDGcfCAVRVGp12/ExvW0r3wgRRsCkVHRx06eIknKB6QHmiCMACAgYVx8MPbFqzdDhg4D3OIUAt179LiZcccHpQmaxCAACMg/ekKlQjl7zlyndA8kZhAYMnRo/uciMAryzY4OCMg35fJDq5qa9X/v3OWbPuR9n+akUumSpctVtbU/YAoefAMBQEC+IQfrrSBJ8sat2z1i43xf1X22hVHR0UePnwD3xFvvZV57AwjIa9A7WLGsvHLosOE+q9v+0rB+/Qdkv3xFUmAq5mC/81AyQEAeArp91WAYPn/hYn9Rch9v5+Rp0/Xtuo2+fbIDuRxBABCQIyh5Lc3lqylSqdTHFdtfmieRSA4cPuo1WYKKhRAABCSEim/EySrkCf36+4t6+0U7pdLgwqIvviFe0AozAoCAfLQfGI2mzVu3h/rVPYJ+wUFz5y9sbtb7qNQ7X7P8koAIijZhVCNM1hqJKgMh1xOVbf8UBkLVQqghshkhUcKPzY0URT19njVw0CC/UGn/amR0TExy6rUOcE4VJSk9SqohUtVCKAzfVECuJ5QGosZINMKkEaN8Xwn8hoAomoZwqqqFyG/AXqrQJ1XIPTmSUQnfKodvyOD0tn83y+HbFfAdOfxQgTyvRnLq0LImXAuTBOlnvyyahob1Gzf5712mvkxJEolk+sxZcv/0GURQtA4hZc14Tj36vBp5qETuys19/mb5NxW4ITOHMyrge3LksRJ5oULzNViVgYBwH/099gMCoiiq1ki8qUUzK8wop5ZCV0sc+pdcCl0rg26Ww4+VyBcdbsL8g4coinr2PCuuZy9fVmO/bltUdPS5CxcJ0j/6A/PjiRBUiQ5/WoXcKoevlUHJDmtBaimULjNT0qsapLqFIHzsZJzvEhBF0yhJVeqJu3LYQcaxnSytFMqpQ5sQysdEwB2dNTU3r12/wa813PcbP3vO3Eq5nAu97z1TFG1AyQ9q1PHfXdtacKcSLm/GEcJXNkT5KAGZcEquxx8qEceZ3jbu7Nt0GfRBjZnnZT46JqU/5OVFRcf4vg77dQvDIyLTb97EccL3OOdbi8yzLZj8pEHTZQ6N99ke7kjgvgKubMZNuPdpyOcICCcpVQv+ssZtlC8oj8xKuLgRM6DeFwBfAdas3+jXuu0vjZ+/cFFDo4/eomHCqK867J4cSXbM2iDYyW1HJpdCWSq02kB4d7nGtwjIiFEFGuxWhXvmXLYFkGIWAKIy+takWFYpB3fseIbCIiKjsl++4v8AeDeGoug6I5ldLe4PMKsat8rhTxqsBfXadMCHCEgLky9UaFqZ+wecLNycQHIJlFkJl+pw3zFPb/97p2fUD9QSFBS0as0679INp3aCpMt0+J1KT/wAs7qQVgY9r0Z0sHdM8r5CQFqYvCeHxRtwsnDzA6mlUGED5gsmoUZdU0RkFKAGjyEQHBJar/GVWRhOUkWN2DUP/gCzupBcAt0qh7Te4CDvExBF040w6ZlpF4s4J5BcAuWpMa+Pgy6npIKTXx5jH6aiA0eOcYYhXnnESKqwAUtxeHGd04Hd8phWBtW0eNoi4WUCoii61kjcLPfomFNQWskl5tUx2HsDIQiG58ybHxQk8bAGdvLq+g0Y2GI0eYV02EoxkirwNvswSnGrHK4yEJ5UAi8TUJ2JuOembT6CtOJUZGoplK/BEE/Cz/ZBms7LLxg4EJy98DQfBgcHP3/x0kIOng7iJO31sY+lmtyVw54cB3mTgHQI+bTK/Tt9LNF0Npwug0p0mKeHoW19/t/TZ6Kioj2tf52+PolE8vvmLZ5mne/1UZTZ6nxdhJ0+zvZ8Nn1yCfRY6TmbtNcICCao93VenvSyoFsGMirgWqOn96fpDS0rV62WSMD8ywuMOGbsLxovXWFYZyQ9vOZl2dWthZNLoTe1KOqREwPeISCKoiuacXftLreGY7vjn1cjJs8e3iv8XDRu/ATxlE8qlYaEhPgpwQW3/YkHTkLfvlnZXpiFGTHqhQptdy8VNWNyCSRrwr8P1ET8v3cISI+Sdz272cFZaX3Reo6BKJrOvHtP1NOnM2bMOH/+/KhRo8RTY5FK7t69+44dO3bu3BkTI9bxlIjIyKPHT3jYQQdB0V91mM/+Bl8tgdJlkB4VfXOQFwiIoun39T5K/CxP3SyHmhDR0Wd+WRAEPXzkaJCY86+jR48gCHz48OGIiAiRmEKMYiUSyYwZM6qrqz5+/NC3b18xqmgrU7Jy9eoWo1HEH3pe0TqEdNcpa7bTuj2QrUJxkSdiXiAgDUR4ZbeVs+J5WeOho2JqtWblqjWiaZe54IyM262tdFFR0ahRo0WtyL2FR0ZGXrhwgaLI6uqqwYMT3Vu4ZWlTpk4rLZPxWEKsCIqm8zS+/ht8tQRKLYUUBnEnYp4mILOzm2rv7/pxhIxSSqE6kyes0WUy2Zixv1jqg9vDnz7ltbbSOI7t2bM7LCzM7eWLVODw4cMbGxtaW2kEgUeNGilSLUFBQQMGDcry4GK8ASV9auXLhjo8q0JE3ZjiaQKqM5Gp3thsbgNiG6+yVYgHTAO5Hz6Ei3wCo6FB09pKt7bScnllr15+4+rs6tWrTLNbW+kFCxaIR0ChYeHJqWliDXh45fq+CYJVipvlsMIg4s+wRwmIoui3dahXDnyxgDoVuFUON0LiWoIIkryZcUc81QoKCoqOjqZpitXknTv947xrYuIgGIbZZv/999+iorT/4GEIRnhc4f4ICKd82fbMUZDkEuhdnYiWII8SUDPii7seOIhbPjLnVEV1VYCi6IFDh0VVrcmTJ7Nq3NpK19bWxMf7+iAoJCTkxo10y2ZfvnxZVJTWb9joGfdAX3W4ZR/z/fB9BdIg2jlVjxKQrAm/LvMPAxDbLZ5XI6I69IYgaIXIFug///zTUpNbW+ljx46KqsyuFz5p0qTm5ibLZmdnZ7lerI0SZs6eo1RWuX/A82OJBEU/rULY3uUXgbQyqLxZrF0pniMgnKRy/Gr+xXSOO5WwqKbolpaWCZMm21AM119duHDRUpPbBkG1Q4YMcb1kkUoIDQ1NT08nScKy2ZWVFSJVxxQ7bMTIryWlP9KF+590MHnLB45eO0t8ufWoSI4TPUdAetR88svZL/d6+rQyqKwJc39P/F5ic7M+Lr6PqKr16tUrS01ubaUJAj9z5oyolbpS+MyZMxUKBafNKIqI6qskJjYu71P+d7GI9f+yJvyaL538clC/HilhgzjeajxHQHUmIsO3dz9bE8ZHNSbedixNQ0M3V5TVgby1tbUcZW5tpWWyMlEXth1ol3CSsLCwixcvEgTOb/PQoUOF87gjtltQ0KvXb8Qinu/lvq9H3X7PgrV+68b4a2VQozhmIM8RUKUe96S7VTei/0KFmjCxLNEFxSXuUB+rZURFRVEUyVdmGIaOHDnig1c/T506tbS0hN/g1lZ62bJlVr/THS9u37kn6mVhKEFlVfvB/kNB3VEaRPFT4yECIin6ixYT/DDfj3wgh+qbIZM4fw8ePXaH7lgtY+zYsZZr8JaKnZ//acyYMVZzeuNFZGTk0aNHcRyzbCcbPnxY3OXC02fP6fV6ceRsLlWthx7IPefy3L2a9bkRE+NUhocICCOpj2p/JaAbZcYSlaZOnL9LV5JF1fTly5ezCrQZZVsAACAASURBVMwJwDC0e/fu8PBwURvgVOEjR44oL5dx2sk+3rt3z6nSnE28J2l/VVW1OHI2l/q1WnO7rMW9vOCx0t7VieKfw0MEBBPU2zp/HXymlRq/VItFQEdOnHZWT5xKn5SUxCowP1BYWJCYKOIZK6eaKpVKDxw4wFn8smxzaWmpUwU6m3jL9r+VyirxCOhzVcONMqPHKMO9FT2vFuVIhocICMKpFzX+SkApJabi6gaR+uWupIPO6olT6dPSUi11mBP+b3a2ZcsWUVeXHG9tdHS0RqPmtNDyUeyFsLUb/1AolCIJuq6urqCq8XqpvxLQI6U/E5AJp7J81feSIz8URVViEdCOf3Y5rqLtSPnmzWtLHeaHZbIy8VztONXgI0eO8JtnGUPTlKjjtVVr1ioUCvEIKF/ZeK3U5Eh/88E09xX+TEBGQEBW+vX2HX85paVOJY6MjCwrK7XUYX6YpukdO3Y4VawYifv379/UpOM3zzKGpqn58+eJUTtT5spVq+ViEtAnfyage35NQCacyvbbEVByiUnEEdDf/4inUUOHDq2qUlrqsGBYparu00fczZC2v1EikZw9e1awbZzI7du32y7KlberVq8RlYDylX48BXvg1wQE4dTrWn+1AaWKaQP6Z0+SKzpjO+/s2bPV6nqODgs+ir3Cbbudo0ePVirtE2VrK33+/HnbRbnyds36TaJOwQqrGtL91gj9tMqfp2AIQfmRDxTODPx6qfGraKtgB46ecEVnbOfdsGGD3XkNw0cKhXzQIO/cSiaRSE6fPo2iiCAzciKfPn1i+5Ndefv7lu1KpYhG6OJqzU2/XYZ/WSPKaTAPrYIRbbevcRTbXx5vy1rKRNsHdPaCiF4m9u/fD0Emjg43Nf1wypx5iyDw0aNHvHJtxi+/jC0uLuI0srWVFlyP//KlODg42BWWsZH3n917q6pEXIYvU2kyZf66DyhP488bESmaLmvCvXv1dbv57n65vqJGbcWI7Gr09evpNlTCxVeXL1/mH6pKSkqqra3hK3xBQf6IESNcrNHZ7KGhoQcO7IdhiNMegsBv3rzBiWxtpRUKef/+/Z2txcH0hw8fqa4WcSOivKb+frmh3f3QuxnLmkTxyOGhERBN09UtxA0/dERwtQTKVhhqNY0N4vw9eZ7toHo4myw8PPz+/Xt8HZ49e/a2bdv44wujsWXPnj0e9hg9cuTIvLyP/Ebm55vZkH+IpK6udsqUKc5C4WD68xcvq9VqceRsLlXT0PhcbvAjj6As5YnnH91zBNQIkw8U/ueOI6UUKtQgCIqJ9FeprHJQPZxN1rdv39evuZuAcBxLTEzs1atXUdFnvtq/f/9++PDhzlbU7vShoaF//bUDQf7nd5VpEooiv//+e2hoqMGg5zRSq9WuXLmy3TXazvj46TMUFU3SbR2oQIP445HszEpYpFuqPEdAMEG99MPN0DfLIaWYN5M0NTVFde9hWzHa93bs2LGFhYUcBa6vr+/du3dwcPDmzZv5s7P/uGDLli0hISHtq9HZXL179+a3sLWVzsnJYfylfflSzGm/0dgikk/r8Mjo3A8fv7vNEOv/KqNfzgNe1qAi+QX1HAHRNF3Y4NNXQbIDTsvAQwXSLOYNhQaDYeRoUe7qmjNnjlwu5yhwQUFBXFxcUFDQ0KFD8/LMd/Vw/uXnf4qPj3eWStqX/vfff+dPshAE/uuvHYyl+cGDB5zmYRh67ty59lVnO9fAxMTi4i9iEc/3chGC8sHL4C07vGC4uFEsj1geJaBaI3G7wp98QieXQG9rRTkE/L1D0iaTaeGvS2zrRvverlq1irlUy1KHHz58yBy8CA0N3bVrF3/6Q9PUunXr2lejU7kiIiIqKsot28aEP3z4wF4h/e+/JzkJaJrKzMwQYyFs0tRpFXI5KxfxAjn+dir7VjmsahHrZh6PEhBKUP7llTVdBsn14t4MiSDI3ztFOQ62ffs2Pr9cuHAhMjKSYYoxY8YwFxZylLyk5KsHTodt376dU29rKw1BpkOHDrL8smnTJn6aFy+yxRijLV+xsr5eLR7vsCXXmwj/skNnVSNG0RzyeZSAaJou0fnTYvwDhbhXYtA0jRPE1ZQ0p8YOjiQODQ09cuQIf4Kza9dO1gtiW5rD/I1CNE1t27bNkVranaZPnz4KBXd62NpKl5R8HTZsGFvslClT+AT06dOnkSPdf0vqzt17PHM9PEnRDxV+Mw9IK4OKGzFKLIegtKcJCMKp2xV+4xTui07c4Q9N0xRFvXz1OiTUzdclx8bGpqamcLSXpqnly5db7jYcPny4TFbGSdbaSiuVyt69e7NE4PZAUtJevgmcosgjR45Y+gYZMGAAfxBXXl4+Y8YM9zYpOCTk/MWLovpjZUdA5i0pBr8ZBN0Vbf2LAcTTBETTtL9czHazHBZl87llT2wLF3/5mjjEze7W+/fv9/TpEw6ztLQYZs+ebam6Uqn0+PHjfKfRBIHv27fPMqUbwwMGDCgqEtj6rNU2cq6Njo+Pr66u4nyFWl2/fLmbnUP37pPw8NFjnmTEiiAo+nGVHwyCkkuhPA0q3vCHpj0+AqJpmqSoTJ+/HiO5BKpsFn34w3RwVU3NgkWL3ajhQUFBw4cPz8//xFHdqirlxIkTORX16tWrubmZk5KZDfXr14+T2PVHiUSya9eulpYWTo00Te3du5dTfmxsbG5uLiflf3PGLVu2cFK6+PjLuPEFhZ/F4huhcmtaCN8/GJAug0yi7H/+HyJeGAHRNF1lIHx8O9azaoQUlfn/JwK6xWjctXuPiyrEyT5hwgT+2KFte7GA9WT//v18a1FLi2HPnj2sPZhTfrsfExMTBX2kKZVK1jrOFh4dHZ2ZmcEhIJqmDh484N6G/frbkoZGrYVMRA/CBPWmFvVla3RKKVTaJPpvsHcICGNuSS31UWPQ7QpYbSJF74PfK6AoKvXa9cioKFbxXA/MmjXLZDJyVPfZs2cDBgzgF96jRw+5vJKTuLWVfvfunXuv4goJCdm8+U+9njvgIghc0NFPRETEqVP/8ht25cqV7t278z+kfTGhoWE7d+8hSc9J3Gz7o+l6E3HXh6cCL1QIIf5vsHcIiKLpRph85JMnM66VQcVaEW8i/E47P/z/3fvcYSMExibt0yipVLpq1Sr+oOb69WvMLkR+sdu3b+dbglpaDNu2bWNXzfi5nI3p379/VlYWn1AKCwsFmTEkJGTbtq389A8fPujbt6+ztVtL3ys+PuPOvR/k4ZEHnKS/aPHrMl80Bt2TI1pxbiLkQOsdAmqzBNFyPeFr92Qnl0Kva1Gx570cGdA0Xa/RLHSfGSg0NFTwMoyTJ09YO2s6YMCAz58FToe9fv164MCB1lTXqXipVLpixQoI4h58x3Hsr7/+EqQ5iUTy66+L+etlHz9+sFytd6oZ/MRDhw2TK6v4QvFADIJTr2sQX7sr9YYMkjeLtfWZg6rXCIixRhc2YD5lDHog8sELDvrsI0VRu/cmhYa5ZzE+MjIyOTmZM3DAcczGKarQ0NAdOwQGQQSBr1q1ynJpnK/ADsZERES8ffuW06rWVjo//9No64dRZsyYrtVqObkUCvn48eMcrNd2MolEsujX3zw8/2LlTtM0hFE+NRFLLYUKGjDcU/NRbxIQTdMESeXUoz6yHJBRAWsgsbacW/Y5wfDT59l9EhJsa4uDb2NiYrKzuTOdpibd+vXrbZQwatToT5+4C2etrXRubq5bDC4LFiygKIpDJSiKHDx40Mbx13HjxvGvKmxpMcyc6Z6tQMHBwWnXbwpKxGORBpTM9I0jSqml0Ls6VBTfq1bQ9DIB0TTNGKS9Pg66K4drPWh45oujUaebMGmSDYJw/FVcXBz/Mozq6qpFixbZKCQsLOzgwQN832AURa5cucpGRkdeRUZG8rcFtLbSxcVF48bZGssMHTr0/fscDm3RNLVs2TLLHZWOtEEwTfcesXVqDV8cHo5phMzOary7KJZSCr2pRU2inboQhNT7BMRw0CcNli7zzqJYcgn0RInUe5V9GNkkHTjklslO7969+Z50vn79OskewY39ZWyRkHfUr19dPR22Zs0avlEcRZFTp07ZGP4EBQUlJCQ8eHCfQ0CtrfTu3bsEzUaCLGMjcvW6DYKK4eFIiqY1JvJpFeKt2UBaGfShXiyfGzbA9AkComkaJagSHeZ5m3RKKfRChTZCpGiHXWyAz31VUiYLCQ21oS0Ovho9ejRf23Nz3w8ePNh2CaGhoSdPnuSffqBpauvWrbbz2njbo0ePgoJ8PomoVNV2/Z/FxMRcuXKFn/fy5UsRERE2KnXolUTyqcCj+w+5Ird4pihaB5Mva7zAQTdk0Bct5pl9/xZfbA76CgGZ7UEUXdNC3JV7blUyrQz6qDavefkC+7RZxMgFi391SHNsJlqxYgVfY58/f9ajh33PZ4mJiYIeo8vLZdaW8G22xfzyjz/+NBq5W59bW+nTp0/bHfFJpdJDhw7y+fTZs2euH9mfPG06QXjN6sdRRWZzEIxT+RrMk3Oxu5VwlYHw0KIX75t9iICYtpkw6oVK9B+B5BIoXQYpDATlK+TzTTJvcnIlEqldlbad4NChgxwComnq5s2btnOxb//9V2DvHwxDO3fubIfZJS4u7s2b13wGMRpbevbsyVZqI7B161b+kf2vX7/GxsbayGX3lUQiuX7rNk8jfCKizkhkVEBiL8+nlkLZ1Yge9dSKlxC0PkdAzAFxhYF4rESui2AVSimFblfAufWoCfMm7kKyMMdRFDVxyjS7ymM7QUbGbQ4BMdYW27nYt3369OF7MqNp6sOHXGdvpJBKpRs2bBAszfGrEFeuXKnRqDlf1Nzc3Lu3S54bR4weU1Nba00QXo+HcCpPg2VWwmJYha6VQQ8UsKwZ98BeZ9tI+iIBMS02YVSJDn9e7TYaSi6B7srh3HqszkT6hMnHimQy795zcUNQQUEBR11bWgx///03SzF2A0lJSfwxS3Nz0/bt25w6hJWQkHD//j1+UQqFwnF3H7Nnz66s5J4UoWnKFa9AISGhJ07+C8OwFSH4RDRB0WqI+KBG78lhd03KrsugZ1XIFy3m4dUua4D6LgG1DQdoA0YpDPj7evNPQbtlcF0GPa82g66BSMyHpvzCQqlXq2fM+sFphl2+sEwgkUiam7lXD2q12uXLl1smsx2Oj4+XyWQcFqNpKjs7KzEx0XZe9q1UKl26dAl/+ENR5N69ThxzHTNmTGEhl1JbW2lXnHKMHjM2v6BQWAA+FouTVANEftXiWSrElZXijAr4XR0q1+MG1Id+gH2agNiegBJUE0Iq9cT7euyeHE4pcWjBPl0GZamQL1pcYyKNGEX4iKmZ/SorARzH066nh7d3iSc+Pp4/4qirq5s8eTJLDXYDUqn0r7/+4pdjNLasW7fWwUFQXFxcRkYGv5CvX786NXjp27ev4AH6AwcO2P0QwQShoaF7k/ZBkE8Pfzi9g6RoE25mohIdnl2D3HDMOpFSah7159SjSgPRjJCeOF3Kabe9R/8gIOYrKLMvIfNiGYRTdUbyqw7PVaMvapCnVcijKuRJFZJVjbypQwsascpmM9w4SZGU+dix3/3JFcq58+YLKo/dyBkzZnBGLoyHQ2fNN0OHDhV0G5ad7ahL5smTJwtuazxw4EB4eLjdD2EThIWFCW4FunXrNpvGqcDIUaPyPhX4Xa9gGsxqgR4lFXq8oBF7U4dmqZDHbVrwtAp5UYO8r0e/6PAaI2HCzb+7vqwF/kRAftpj2tFsiqKupqZ1b9cqz5YtW/gEVFpa4uy2vbCwsKSkvRiGckrDcWzxYvvu06RS6f37AhsIv379Ync/JJ9Nrl69yj+Smp+fz09pNyYsLGzX3iQvHv5qR3/owFkAAfmocOvq1Yt/WyKVBtvVKE6CCxfOcyijtZV+8eIFJ5kjj+PGjRM0vuTkvLN2qp4tdsKECSiKcFqCosjZs2fasYHw4MED/JX4piad3W1EbHvYwMjRo+UKpY9KvfM1CxCQ78r8yfOsuJ69WM1xMMA/htraSicnJzuY3TJZeHj48ePH+dMogsBtG4BDQ0NfvXrFYZ/WVrqysnLS5Pacd9u0aRPfsk7TlLP38/y3x+paupePnvpuh/NGywABeQN1x+qEEWTbDifWzhnuELzuZs+edrp8HTNmDP8wemsrXVpaEmXdheOiRYv4czeSJK5cuezsTJD5qHnz5mk0Gj6jOXs9xpLlK0wQ5Bj8IJUnEAAE5AmU211Ho1Y3YJCdA1yWY5a4uLimJh1fUZ1ag7csMDg4+OzZs3z7C0kSmzdvtkzJhsPCwl68eMFf/DIY9HZPfrGFcAIjR45UqVT879q61Qnv9H369lVWq9otC5BRDAQAAYmBqjvLfPc+1/ETquPHj29pMfAV9ZdffuGotOOPAwYMaGribixqbaU/fy4U9BO0dOnShgaB0cqVK1ccr5STsnv37pWVFfzvunjxIieltcfgkJBr6TeA7dmdXdMdZQECcgeKYpaB4XjS/gN2jb6M4q1YsZxvrKUoUpAprOkqP/7kSe4d7a2ttF7fvHXrFo4ZuHv37pmZmSRJcMiiqUnn4iU/Hz9+4JTZZlzP5reWHxMSErJ+46aGhkYxBQXKbg8CgIDag5qH81RVqxYsWsxRdb6aBQUF7dmzh7/21NDQIJjY8cg+ffrwj8i3bYzOttxeJJFIFi9erFJVc5iCpqmTJ086Xp1gyowM7v08ra20QqGwC4tEIhk/YeKn/AJfO3js4V7km9UBAvJNufzQKoIgXr15O3LUaEHNtIy8cuUy316Tm/veMk37wnv37uGbdXQ67caNG1gKiIuLS05O5g9/lErFsGGuXv167NgxDq/9dxqjubmJc5kq/+t69+5zMyMTw7AfMAUPvoEAICDfkIO9ViAoejUlrae9VfmnT5/yaSI1NZWvls7GDBgwoKyMe4s8TVOPHj1i51ZTp06tr6/j0ARNU0eOHHFq67Ng2zZu3MgpubWVNhpbJkyYIJieiQwJCdl/6AhY+bLXv7z2HhCQ16B3tmIcJ7b9tdPGOayYmJhPn/L4WmrjMgwbqst5FRoaunPnTj67wTC0aNEiiUQSERFx6dJFfu0VFRW2OYJTkbXH6dOn8wuHYWjlypXWsgQFBS34dQkKxj7OdjUPpgcE5EGwXa4KgqBFvy5hpzwcxRs2bFhJSQlfS+fPn8dJ2b7HMWPGFBcX88t/+vRpTEzMkCFD+HsFCQI/c+aMjR1DjrckISGBT38YhiYlJQkWIpVKJ0+dbjQaXUYdFCAiAoCARARXjKIbtLp5CxcJHtGYOXNmVZWSQxA0TVnaiQV11cHIiIiII0eO8D1Goyg6f/781NQUTtWtrXRFRfnMmTMdLN92MqlUyvfrShCE4CbvNvaZVlZeIYYIQJluRAAQkBvB9FBRFZWVCxYukki5nltXr17N34BjNBptXzthW+05bydOnPjlyxc+0eTnf+LvP8JxLCUlxS3DH6YZ/PEXTVNZWc85Q0KJRDJx8uSc3FyC8EWnlx7qJX5SDSAgPxGURTNJkiwsKp41Zx7HQ/POnTv5Y4Ty8nJOMg6nOPUYFhZ29uxZ/ko/f3LU2kqr1fXTprnqXtayeXfu3BHkvh+dQ0tGjhrz4tVrsOxl0WV8NwgIyHdlY6NlhJmDvkycMtWSXE6dOkUQ3B2A2dnZQRKJpRq7GB41alRNTQ2fCPgxt27dcuPgKygo6NChQ/xaSktLLd2b9e0/4PXbHBzHbaAHXvkOAoCAfEcWTrekVFY+euwvDAdFRkamp1/n6+fVq+0/AGGNqi5dusSviBNDELglL1gryqn45cuXc2ppbaWrq6vmzJkTFBQkkUjievbKK/SVe76cFmenzAAIyL/Frqiqnj5jZkhoaN++fZ89e8rXz927dzml5I4kHjRokF7fzK/LMubGjXRHinIqzfDhwy2rYMKNjQ3r1q0LDgkZN37i19Iy/xZn52s9ICC/l3mdWrN+0+9Tpk4RPC21ZMkSp5TcwcQnThzncwEb09jYOHSoq1uf+S0JDw/nm59MJuOhw4d/XbL0y9cSv5dl5/sAQEAdQeZqTcPjJ09ra2tZCmACOI6NGzeOr8mux/Tp05u/5M/Wfv78ec7KlOs1MpOsqqoqthYmQJJEaWlZhVzuQ1c9dIQ+5aFvAATkIaDFrgbHcf4hLI1G7fohLEHukEgke/fu5XAB81hToxKJ9SQSydu3b/mVUm1/YiMMyhcDAUBAYqDqnTL5mllcXDRw4EBBBnE9csiQIYLOEs+ePRsdHe16+YIlXLt2jf+Zra3eARzU6joCgIBcx9BXSuBr5vPnzx2/gFRQ4W1ERkREHDx4gHP4vqpKOWvWLBu5XHy1f/9+/mcCAvKVLuh8OwABOY+Zr+bga2ZaWmqPHj1c1Hkb2ds2Rv/vdBiO4ykpKaLWuGrVSv5nAgLy1S5pv12AgOxj5C8p+Jr58NGjQQ7fpGyDaKy9ioyMPHXqX/Z0mEqlWrBggbXErsdHx3Q/IuQVCBCQv3RRfjsBAfEx8dcYPgEZWlpev3m7fOVqaXCI6/ovWMKkSZPKy8tbW2mSJO7cyXTjyS/L6qTBwXPnL3zy7LlWJ+ByHxCQv3ZZmgYE5L+y47acT0A0TVMUpdfrHz/LGjt+oqVKuyscEhJy+bLZDaPR2CKS9Sdx6LDU9BuahkaS+nbPtuCXcuEAz/6AACAgf5CSO9qoN7RcupoyMHFw+27mskFYcXFx06ZNa8eFyzbKDAoKCgkJievZ6+CRY5pGrTsAAGX4IgKAgHxRKuK1qV7TcPrc+XHjJ/Ts1Yvv0MM2I3jmrUQi6d4jdvSYsfsPHalS1YoHBSjZFxAABOQLUvB0GzSNjddv3Fq7bv2QYcPde2DdJZKSSPoPGLhs+YqLl68qqqrBJRae7hbeqA8QkDdQ94E6KYrSNTXnvM89c+78wsW/xvSIdYk7XMscFR09c/acYydOvnz1Wq3WgEMVPtBBPNQEQEAeAtpnq0FRrK6+Pr+g4My5CzPnzI20fuO7ayQjkDskJGTC5ClHjp3IeZ+rqqmBEcRnUQINEwkBQEAiAet/xZIkieF4nabhVubdFWvW9ezdR4Az3BHVPTZu4W9Lk1OvVdfUYRhGkuzqlv+BBlrsIgKAgFwEsMNmx3C8tLzyxu2MHX/vnDZrTmLi4L79+sXH946NjYuOiYmIiAgLCw8OCWmzZDMeFyUSiVQaEhIaFhYREREVHd0jNrZXfHzfvv0GDUqcNHXGH1u2paRd//zlKwSDkU6H7TbOfhggIGcR66TpjRAsq5C/yXl/9/6Di1eSjx47tmff/j+3/7V2w6aVq9esWLFy5arVa9Zv/GPrjl179x05evTcpSuZd++9fP2mpKy8Wd8CLMqdtN/Y+2xAQPYQAu8BAgAB0RAABCQatKBggABAwB4CgIDsIQTeAwQAAqIhAAhINGhBwQABgIA9BAAB2UMIvAcIAAREQwAQkGjQgoIBAgABewgAArKHEHgPEAAIiIYAICDRoAUFAwQAAvYQAARkDyHwHiAAEBANAUBAokELCgYIAATsIQAIyB5C4D1AACAgGgKAgESDFhQMEAAI2EMAEJA9hMB7gABAQDQEAAGJBi0oGCAAELCHACAgewiB9wABgIBoCAACEg1aUDBAACBgDwFAQPYQAu8BAgAB0RAABCQatKBggABAwB4CgIDsIdRR3svl8pMnjycl7U1K2iuXyzvKZ3nuOyorK0+fPpWUtPfgwf35+fmeq7hD1wQI6Jt4z507i+OY22WNomhOTo5SqXR7yc4W+PLly969ewZ2+zmw28+vXr1yNjtI/+Lli4GD+gV2+zk0TJqSkgwAcQsCgIDMMCII0rNX7OXLl93uO12pVE6ePPHxk0dukZYrhbx8+aJXfGzXgC5dA7q8fPnSlaI6Z94XL7L7D+jbNaBLcEhQcvLVzgmC278aEJAZUqVSGdM9MnHwwPr6evdCvG9fUnR0hC/0V0BALkoWEJCLAApmBwRkhuXt27eRkWHBIUGnTv3rxkGQUqmIjeseJAk8fPiQG4sVFKTdSEBAdiGynQAQkG182vcWEJAZt/T06/9N7AMCf5o4abxc4R4DLUVR27ZtYaY8W7dthiCofRJyVy5AQC4iCQjIRQAFswMCMsNy+PBBaXC3rgFdIiJDz50765bRSmlpSfceUQwBLV+xTKPRCArAY5GAgFyEGhCQiwAKZgcEZIZl/fq13YK6MmQxe/ZM11epSZLctn1LkCSAKXPmzOkVFRWCAvBYJCAgF6EGBOQigILZAQHRKIrOnDWdYYquAV3CI0KvXUvDcVwQLwcjCwsLBg8ZxJY5YuSw/AIv7xwBBOSg7KwlAwRkDRlX4gEB0fX1dePHj2XJomtAl9lzZtXW1rYbVhiG9+3bGxIqZcvsFR/38uWLdhdI0zRJkiaTqbm5Sa/XwzDcjqJcJCCKomAY1uv1zc3NEGRyyyyV/xUURWEY1tLS0tTUZDAYXPwZ4JfvSoyLBERRFIIgDIAmk5EkSVca02HyAgKii4qKhg0fwpJF14AuoWHSjIyMduvY58+FY38ZbVmgNLjbnbt32lGgyWR68+bN2bNntmzdvGrViiVLf122bMmatat27fonLS21pKTEcRVtHwEhCFJYWHDl6uW//t6xes3KpcuWLF3226pVK7Zs3Xzm7Jl3797p9XrXlQFF0S9fvqRdS01K2rtu/doVK5YtWfrr8uVLN2xcd+DA/szMTLlcThCEIxUVFBR8avvTaDROAY4gSElJCZO3srKSX1f7CAjH8aKiotTUlH/++XvN2lXL2gBcuWr55i1/nj5z6vXr124BkN9af4kBBERnZWf169ena0CXwG4/R0aFM8QxfsI4x3XbUtgwDP/770mp1GzS7hrQhQ1cuHAOw5zYaW0wGNLTr0+eMqlPQnxEZGhgt58tGU0iCYzpHjlwUP+VK5d/k4ce/wAAGRdJREFU+pTniKY5S0AYhr1+83rJ0t8GDOwXFR0eFPTNnsU0I7Dbz+ERoQl9e8+YOT09PR1BEEsQHA9DkOnx40eLFi0YOKh/TPdIZinA8kuDQ4Ji42IGDx64es2qN2/e2B04DB2W2K9/Qr/+CTdv3nBKgjU1NQsXzu/XP2HAgL5bt27mf4KzBITj+Lt3b5ctWzJwYL/omEjWIGgJYJ+EXpMnT0xOvtJuAPnt9K8YQED09fTrPWKj25bAwvbt28dYowMCf7p79247ZKlQKEaPGcl0smnTp06aPJEJ7969y2g0OlIgRVFlZWVz5s4OkgRaqqJgOCDwJ4k0cOfOvw0Gg+3CnSIgFEX//nuHNDgoIPAnwXotIwO7dZ04cVxNjcp2A/hvlUrlvPlzuwV1daSWgMCfgoICFi9eZHuJICRUwrTt0uWLTjG+UqlkBBcQ+PPSpb/xW+sUAen1+qSkvRERoY58WmC3n0eOHF5cXMyvtMPHAAKiT5w4zvTa2LiYoqKiWbNnMj14UGJ/BymD7SUkSV6+fJHJHhwS9P59zoaN65jHVatW6HRaNqW1AEmSL1++TBw8gMnVNaBLt6CuPWKjBwzoO37CuAUL5s+dO3vEyGEJfeMjo8LYYVGQJGDxr4tkMpmNAYKDBERRVFVV1dRpk7kNGNhvytTJy1csW7t29dx5cwYlDujZq8d/hxLYZHE9ezx79hRFUWufZhkPQdC9e/eiYyLY7KFhwfG9ew4fMWTxr4s2b/5j+/atGzeunz592oCBfXvExkik/+PiwYMHPnr00FpFvkBA9fV1K1YsZT8tsNvP3XtEDRjYb/KUCcuXL127bs3ChQuGDE3s2Ss2JFTCMlRC3/jMzAwEaY+BzxJb/wp3dgLCMGzHX9uZTjB06GAMwy5fvhgRGcr0nqtXrzglTq1Wy5qTliz9DYKgEyeOM0VNmTqprq7OdmkkST558ji+dxyTJSDwp0GJAzb9vvHp0ycNDRqWXHAcr6isuJp8ddGiBVHR33Q4sFvXhYvml5WVWZuOOUhAZWWlLPsEBP7Ut1/vtevWPHnymLOPCYKgnJycPXt2jx4zkp039eufcO/eXbuzCYPB8O+pf4NDvg1VwiNCJk2eePz4scLCQo59naIorVb77NnTLVs3Dx2ayKr0wEH97t+/JzjD8joBqVSq+QvmsU3tk9BrxYplDx7cr6urZSVI0zQEQbm5ufv2J40bP5adnfXrn3D79k27ANruRf71trMTUFNT0+o1K5nu8utvi2iarqysmDZtChPzy7gxdlnDUt7nz59jMnbvEfXs2VOSJO/eu8vE9OufoFQqLBPzw69eveqT0ItJLw3utmjxwuwX2TbmEfX19ZevXBrQdkKSGSutWLm8qamJXzJN044QUE1NzapVK5jhRpAkcMrUSffu321paREskKbNOxgKCwu2btsSGmZe8gsI/GnkqOHvct5ZahonLwRBly5d7N7DPOftGtAlvnfPAwf2V1RU2MjCnBbOyXm3du1qafC3MdewYUOKi4s4hdM07V0C0ul0a9etYT6tW1DXiZPGZ2beNpqsTr1xHC8uLt6585/wiBAm15Chg969e8v/ro4a09kJqKpKOXfeHEb2e/bspmmaIPDTp08xg6CIyNALF847KPuGhoZe8d8GLytXLtdo1DRNfy76zBQuDQ76+vWLjaKUSuXUaZOZsZg0OGj9hnWVlZW21ZKmaRzHc97njBg57Hst3Q4fOSRYi10CQhDk1Kl/IyLDGCqZPGViUdFnwVEGp3ytVnvmzOnAbuadnIHdfv7tt8XMt3OS0TRNUdSrVy/ZHVKxcd1v3bpp13rFltPY2Hj06OGw8OC2I+mSGzdusK/YgBcJiCTJM2dOMVQSEPjTlKmTPnz44AiALS0tKanJDPJdA7pMnjLRZDKxX9SxA52dgIqKin4ZN4bR3rS0NEbYdXV1w4YPZfRw5szp1dXVjnSCo0ePMOX0iI3JzMygKPNGj7r6urDwbz9uWVnPrZVDEMT+/fsY5Qns9vO8+XNUKpW1yRSnEIqi3r/P6du2kMfsISgtLeWkcWQEVFhYyBJZeERocXGxgw1ghkK7du1iPl8iDbx1+6ZgXrVavWrVctZ0defOHRvjO/4n0DSt1+sPHNw/esyoR48eClrovEhARUVFY8eO7hpoHtn17dv75csXdn8/2G+EYejEyeMBgea1zsBuP589e5p91bEDnZ2A3r59wzh56RrQJSfnHSvs02dOMXoSFR2ekppstyfV1tb27ZfAcNaixQtYtx5arZY1Xly6dJEtnxMoLi4eN+7bZsg+CfGfPn3iJLD9iGHYlatX2K2Py5YvZejPMpftERCCICdPnmAYJCDwp3PnzlrmdSTc1KQbOmwwU8L48WP5v/wURWVnZzGNDAj8adfunY4Uy0+DoijHVGSZxlsEhOP40aNHmF0X3YK67tz1tyAFWzaVE1YqFeyO/KjoCKPR6syXk9GvHzs7AT18+CAyyjzp6BrQxdLco9PpEvr2ZuIXLpqvUtkaBJk737EjjB2ke/eotGupbJ/Q6/Vz585myvnrrx1svGWAIIirVy8zM4uuAV32Ju1xtu/SNF1dXb1g4XxmBhfTPaq8XGZZhd0RkFqtHj/hF6ad/Qf0a8cUAMfxCxcvsJsYPn/+zGkAgiBr165mqhgyNLG5uZmTwC2P3iIgpVLJCrpHbLRCYcfex/9YHMfPXzgX+n0DfUbGbX6ajhfTqQmIJImUlGRm3BsWHsL50U5NTWH0OTIqPDMzw8ZOXFm5bMLEcczwZ/r0KZYLRkaj8fffNzFat2DBPMEOpNPpfv9jI5MmLDy4qqpKMJntSJIkz507y9gRQsOk/NGW7RFQXl4eu5h1/Pgx23VZe1tQUMAOJ/fu3cNJptFo4nr2YD7zzJnTNvDkZHTq0VsE9ObN6169vjmc3LBhnVNtZhN//PiRnQWvXLWCje/AgU5NQBAEHT58kFGJkaOGc8RsNBrNU/q2wdG8eXOam4VXlzAMO3v2DGO0DpIE3LiRblkOgiBHjh5mCklMHGj5ig3L5fLJU77tV5wzd1Y7hj9MUXl5HxMHD2SWw9auW80pxzYBXbx4gWlk14AuO83nPFLa8e/EiWNDvi+Wjx07mv1AJvDy5QumipjukZ8+5XHeuuvRKwSEE3jatVTWtrVp08Z2oJeWlvLvvyfZaezw4UMFjVzuAspHyunUBNTc3PzHH9+GJ8uWL+WLJCPjNtOrgkOCnjx5zE/QtmxfyU7dR40eyek0BEGkp19nFE8iDRTcPldU9Jk1IZ86fUqwFkcidTodMxDrGtBlxsxpJuiHlRTbBPTn5j9YAoqMCo+JiWzHv6jocHbHYHCIhDPGOXbsKFPFuPFj2zFDcQQBby3DQxB04OB+FsCIyNB2oBcTExkdHcEC2K9fH9t7vh0ExMeTdWoCUqvV8xfMZfrNvn1JfFHV19ezu/J++WUMZ0zRtmZP3Lx5gz0z8ez5M34h2dlZ7E4zQa9AHz9+ZO1QT58+4ZfgYAxFUew27omTxqnV5n0A7J9tAlq0eCGrP+4KaLU/7Pz+889vHLdw0XxLcxvbQrcEvDICamlp2bLlT3fhxpQT37tnXp5Y40S3QO2WQjo1AVVVKUeOGs7IOz39h6kTAy6O46lpKeye3QcP7nNA12g0M2ZOY0qYPGUin6Fomv748QO7ufnhw4ecEmiazs19z6rNmzev+Qkcj1m0aAFjtxo/4ZeamhrLjLYJaO7cWcxX9IiNnjJ10oyZ013/19jYYNmAFSuWMVX89ttitdrNzv/ZithNDxcvXnBqjV+hkI8aPYJZBV+6bAlbIBuwcRbMYNBv2rSB+bqw8BDXoZsxc/qy5Uu/fLG1cYxtmF8HOjUBlZWVsVtyP3zIFRRkRUX59BnfKGbsL6M5azd3791hjomHhgU/fiw8R/v69evo0d+Opx47dpRfS17ex6jvp/AfP27/BT4kSc6aNYNRg0mTxjc0/OAE1jYB/frbYibjgoXzdDodv5Gux7BbhGfPmckhR9cLZ0uIjolkPuTs2TOCE142JSdQUVHB/BoFdvt5lZAB2AYBtbS0bP3u/ztxsLClj1MdeGQQ6NQElJv7njHxSKSB1g5zYxh25uxpZooUHBKUlva/JXYIgsaN/7aJceGiBZwZB9vDlErlnO/jixUrl7PxbKCoqKhff/Meoq4BXU67yQY0c+Z0zmYZ2wS0detmpgFjfxltuYrHNtL1wN69u5kqhg0fUlFR7nqBgiUk9DV7Vuka0OX48WNOHaoqKSkZPsK8+7RbUNdNv2/kF26DgCAIOnTo22pGeESoUyMvfkWdKqbzEhBFUbdu3WI6a5+EXjZ+9ivllePGm/fIBAT+NH36VHaT4c2bN5htL1HR4Zl3rK7TNzQ0rPm+/2XosCH87qVQyFlL09x5c/gJHIz59Clv8JBvq2AbN67nzAdtE9CVK5cZKCIiw0SyfWZkfEM7JFTy5s1rTvMc/Ea7ydiFy7179zh1E0l+fj5zRkQiDdy9exe/IhsExCw1MPs5ugZ0KSkp4WcHMYIIdGoCOnLk2wL55MkTbZxIIknyuNllh/m8ZUz3qJTUFJqmTSbTgIH9GKVdtGiBSmXVG47JZNq5828mpUQaiGFchxVNTU1/bv6dTdDuAciFi+eZkdp/WyKTk7nn+G0T0OeiQtaUfvPmTcG+4kikDVqprq7u9t2r2e7duzm7rhwp3JE07Fxy48b1LS12fCRZFvjy5QtmHBoSKjl77ozlKyZsg4Bomn737m3vPt8OEh89epif3ZEYqu3PkZQdJk3nJSCSJNd9P7i8atUK23t/1Wo1O0tauHB+bW3t1atXmbUt81mNlGQbikeS5MmTJ5ifx4DAn/hn4imKSk1NCQszn7HsGtClfbcY1tXVLv6+khXXszt/nds2ATU0NEz5vhdp6rTJnBV0R7o7RVGFhYVLlvyakXGbYyljskMQNHvON19LMd2jOIt0jlThSJqkpL0MjFOmTtZqGx3JwqRJ/59futBHjwQscbYJqLq6euHC+UzVvfv04uzGcKQZFEV9+vRp+fJl6enXW4wtNnqUI6X5S5pOTUCTJ09geszevXvs2gtOnz7FJO4RG33m7Gnm6FZA4E8zHDitmnYtjRmbBAT+9OqVwL3spaUlkydPZBaw+vVPcNY5HoZhaWmpMd2/2V83bdrI7762CQhBkLNnz0jaPMmavUHeu8svwXafbmpqWrdu7bdVpKW/YTjX/ywzT2F9mK1fv9apKRJTO0VRjdpGpVJhzcD84MF9BsbQMGl+vqNH6kwm07ZtW5gJdWxsjFzutE9oHMdPnznFnKcJkgScPXvG2SGeVtv4x5+bGKPk1GlTbNgEbAvCv952XgLCcbzn95MBl69csttdtDrtwEH9GQ7qFR/HLJyHR4RcvHjBrq4+fvw4ISGeySvo5AzDsJMnTzDbqSXSwBUrlzt4BJ/xcfHhw4fRY0axbeMfBLN7Foym6a9fv7LHwQYM7FfgzD1CKIqeOHmc4a/Abj/v3Cl8FFOlqp43f07XALOb18BuXc+dOwvDzl0Yq9God+zYNm361NTUFEHPR5WVFfG9ezJQrFq1whpPWWopRVE5Oe9YT3JTp04W7Ay2R0A0TZeVlU6cNIGhv0GJA9++te/Bmm0GiqLnzp2N/u5ebtnypZ3Ekt15CUir1TK/NgGBPz158tguidA0nXYtjenZ7H/HjBnpiMnmw4dcZoXFfNBh5z9st7MM1NbWzp03m+m+EZGhmzf/YW1hzjIXTdMFBQXs6Eki7XaVZ/1h0tseATFOv9pchZlvcw0I/GnmrOmFhQWOwGI0Gk+ePB4V/c2f/8SJ42WyMk4jmUccxx89fsR6UDOPJc+ccvxaCLVavXHT+vA29yY9YqNv3RKwVRkMBtagFhwi+ffUSbuarFKpliz5lRn+/OcaPDMzQ7DxdgmIIIjU1BRmqBskCZg2fUpe3ke7fhRomsYw7OKliyxvDh48UKR1AMHv8m5k5yWgjx8/MjwSFRWem/veETHodLpxP94glpJiNkjb/SsvL5/0fbq3aPFCwfQURX35Usy6NAsNk86ZO7vwc6FgYiYSQZCUlOT+A/oytNU14Kdt27Zas6bbJSCaphmHfoxtK0gSOGnS+BcvsgWHA0wDKIqqqKhYs3Y1o3VdA7okJMRbc5bKZIEg6PTpUwxbBQT+FB0TsWnTRoVCbpvpCILIzs4a+8to9sTsqNEjKisFLpttc6r9gj3aEhUdsXfvHsGxEtOe6urqufPmsI4Wp06dZG1iaJeAaJo2Go1//PltPSFIEjBm7Kjs7CzbHKRSqdatX8u6x46OiXjw4L5tNJiWd4z/dl4CSkv7NpxJHDzQQZsLSZLpN9K/a3uX/v0T7P66Mr2ksbGxbephtjGPGDnMRq7i4iL2aqCuAT8FSQLWrVtbUFDAsQobjcb79++NH/8Le8ija0CXpcuW2Dji4AgB0TTd0NDAeibqGtAlLDxk8+Y/qoW8kdTU1OzevSs2LoYFJCo64vx5+7cP4Ti+b18SO+IICPype4+o/fuTBHcnoij6LufdwoXz2c3i/3luGjxk0Me8j9a0FEGQg4cOsMamwG4/jxo9IiPjNse3rEpVfejwweCQ/7mF794jurzc6gYlRwiIpmkYhqdNn8qOkYMkgevXr+UXS1FUbW3N/gP7LAEMCw++cPG8XXNkx6Ae5is6LwHt3PkX00umTJ0keBGdoJgVCsWUqeYbI7oFBdy5c0cwDT8Sw7CVq5Yz1Q1KHCCoaWyu9+9zho8Yxh5KZMy68b3jZs6a3nZj328TJo5nRxxMmWHhIatWr7Ttx8NBAqJpur6+ftr0qax7M2ZGNnr0yA0b1u3Zs2v3nl3r168dM3YUu6bOJOiTEH/x4nkb3Mp+IGO3unjxQq/4WJaGmEKGjxi6ctWKf/75e2/Snu3bty1YOJ9d22a+NCRUMn3G1A8fPlhjH6aWxsbGTZs2sC6WvueVjh4zaubM6dOmTek/oK8ldwd2+7lPQvyDB/c5RG/ZZgcJiHHbuHTpb+yhEGZz44gRQ9etX7Nnz649e/ds3LR+3LgxLEUy357Qt/e5c2egH48QWzagQ4Y7LwHNmfPt9NPSpb/ZGDhwpI6i6IUL58PCgydOmmB75Z6T8Z9//mI4JSEh3vYhQ5Ikv3z5snHj+j4J8YyVitEfwf9KpIGjRg0/duxoY6OdJWfHCYhRof37k4YOG8xOeQRrb4v8KTau+4IF8169emWbFDiAMIfgli1f2rtPT8aftPUqzCPH4BDJyFHD9+1Lss2zbC1anfbAgX2JgwfYxTA0TDpj5rRHjx7Ztlg7TkA0TWu12mPHjowY+cMPibUPjImJnDd/zpMnjx2kb/YbO0Cg8xLQ+g3rZs2eOWv2zPPnz3EG57blKpPJNm/58/HjR7bn9pxC7tzJXLRowazZM5evWGabgJiMTU1Njx8/2r5j27jxY9m7d9ge3C2oa+/ePefPn3vs2NH8/Hwbv9tsMz5//rxi5XLmk/nuCtlkbABBkPfvcw4ePDBr9sye311tsQ3oGtAlJFQ6ctTwTZs23Lp9y6kdN2wVzK07Dx7c3/HX9kmTJ8R0N9u/Of+CQ4IGDxm0dNlvp8+ccvBL2fJxHHv9+tXOXf9MnDThv+1a7FSRqSKw28+9+/RcsHDemTOnymRldqX5361B69atmTV75oIF854LuT1g62UCMAzn5X08cuTQnLmz2kj2h7ttGQCHm4dFa69fv8Zur+cU0uEfOy8BVVVVKdr+tFqt3c5n2Q9wHFer1ZyTVpYJBMMGg4Gpsbq6yvFdagaDobSs9M2b1zdv3jhz5tThw4eOHTty4cL5+w/uffz4obq6yvaPtmVLIAiqrq5mPtmandUyPROGIEihUHz4kHvv/r2LFy8cO3b0yJFD//574vr1tOzs7C9fvuh0OqfQ41dBUZTBYJDJZDk57zLvZJw/f+7o0SNHjx4+ffrUtWtp/9meP38urKurs2EL55dpGWM0GmUy2Zs3b27eTD9z5tSRo4ePHT968eKFBw/ufzBjWO3guAOCIJVKpVAolEqlNUu/Zb1MGEEQpVL58eOHBw/uX7p88fjxo4cPHzp58nhaWmpW1vPi4qJGbaOzI0d+Lf4b03kJyL9kRhAEhqFI2x+GYS7qfDu+naIoDMPQtiagKOrImKsdtZAkiWEY85lur4XFEEVRDMM8rPYUReE4jrYhyHyahxvQDnF4IAsgIA+ADKoACAAEhBEABCSMC4gFCAAEPIAAICAPgAyqAAgABIQRAAQkjAuIBQgABDyAACAgD4AMqgAIAASEEQAEJIwLiAUIAAQ8gAAgIA+ADKoACAAEhBEABCSMC4gFCAAEPIAAICAPgAyqAAgABIQRAAQkjAuIBQgABDyAACAgD4AMqgAIAASEEQAEJIwLiAUIAAQ8gAAgIA+ADKoACAAEhBEABCSMC4gFCAAEPIAAICAPgAyqAAgABIQRAAQkjAuIBQgABDyAACAgD4AMqgAIAASEEQAEJIwLiAUIAAQ8gAAgIA+ADKoACAAEhBEABCSMC4gFCAAEPIDA/wOjoK3YFn2oUAAAAABJRU5ErkJggg==;" vertex="1" parent="1">
                    <mxGeometry x="-840" y="-1620" width="194" height="165.71" as="geometry"/>
                </mxCell>
            </root>
        </mxGraphModel>
    </diagram>
</mxfile>